<svg xmlns="http://www.w3.org/2000/svg" xmlns:xlink="http://www.w3.org/1999/xlink" width="1360" height="277.1"><rect width="1360" height="277.1" rx="5" ry="5" class="a"/><svg y="0%" x="0%"><circle cx="20" cy="20" r="6" fill="#ff5f58"/><circle cx="40" cy="20" r="6" fill="#ffbd2e"/><circle cx="60" cy="20" r="6" fill="#18c132"/></svg><svg height="217.1" viewBox="0 0 132 21.71" width="1320" x="15" xmlns="http://www.w3.org/2000/svg" xmlns:xlink="http://www.w3.org/1999/xlink" y="50"><style>@keyframes p{0%{transform:translateX(0)}.03%{transform:translateX(-132px)}1.23%{transform:translateX(-264px)}1.27%{transform:translateX(-396px)}1.29%{transform:translateX(-528px)}1.3%{transform:translateX(-660px)}1.31%{transform:translateX(-1188px)}1.32%{transform:translateX(-1320px)}7.23%{transform:translateX(-1584px)}7.24%{transform:translateX(-1716px)}13.15%{transform:translateX(-1848px)}13.16%{transform:translateX(-1980px)}19.07%{transform:translateX(-2244px)}20.42%{transform:translateX(-2508px)}20.78%{transform:translateX(-3300px)}21.07%{transform:translateX(-3432px)}21.08%{transform:translateX(-3564px)}24.95%{transform:translateX(-3828px)}26.15%{transform:translateX(-3960px)}27.34%{transform:translateX(-4092px)}31.39%{transform:translateX(-4224px)}36.83%{transform:translateX(-4488px)}36.84%{transform:translateX(-4620px)}42.75%{transform:translateX(-4884px)}42.76%{transform:translateX(-5016px)}48.67%{transform:translateX(-5148px)}48.68%{transform:translateX(-5280px)}51.43%{transform:translateX(-5544px)}51.79%{transform:translateX(-5808px)}51.8%{transform:translateX(-6072px)}54.59%{transform:translateX(-6336px)}60.51%{transform:translateX(-6600px)}60.96%{transform:translateX(-6864px)}61.29%{transform:translateX(-6996px)}61.3%{transform:translateX(-7128px)}61.57%{transform:translateX(-7392px)}62.85%{transform:translateX(-7788px)}63.22%{transform:translateX(-7920px)}63.23%{transform:translateX(-8052px)}63.25%{transform:translateX(-8184px)}64.44%{transform:translateX(-8316px)}to{transform:translateX(-8448px)}}.a{fill:#282d35}.f,.g,.h,.i{white-space:pre}.f{fill:#a8cc8c;font-weight:700}.g,.h,.i{fill:#b9c0cb}.h,.i{fill:#71bef2;font-weight:700}.i{fill:#d290e3}.j{fill:#303030}.k,.l{fill:#a8cc8c;white-space:pre}.l{fill:#b9c0cb;font-weight:700}.m{fill:#a8cc8c}.n{white-space:pre}</style><g font-family="Monaco,Consolas,Menlo,'Bitstream Vera Sans Mono','Powerline Symbols',monospace" font-size="1.67"><defs><symbol id="1"><text y="1.67" class="f">barf</text><text x="4.008" y="1.67" class="g">:</text><text x="5.01" y="1.67" class="h">/home/barf</text><text x="15.03" y="1.67" class="g">$</text></symbol><symbol id="2"><text y="1.67" class="f">barf</text><text x="4.008" y="1.67" class="g">:</text><text x="5.01" y="1.67" class="h">/home/barf</text><text x="15.03" y="1.67" class="g">$</text><text x="17.034" y="1.67" class="g">barf</text><text x="22.044" y="1.67" class="g">copy</text><text x="27.054" y="1.67" class="g">~/local/*</text><text x="37.074" y="1.67" class="g">~/remote/</text></symbol><symbol id="3"><text x="1.002" y="1.67" class="g">1.</text><text x="4.008" y="1.67" class="i">Copy</text><path class="j" d="M9.018 0h84v2.171h-84z"/><text x="9.018" y="1.67" class="g"></text><text x="94.188" y="1.67" class="g">0%</text><text x="97.194" y="1.67" class="g">|</text><text x="99.198" y="1.67" class="g">0B/s</text><text x="104.208" y="1.67" class="g">|</text><text x="106.212" y="1.67" class="k">0B</text><text x="109.218" y="1.67" class="g">/</text><text x="111.222" y="1.67" class="g">0B</text><text x="114.228" y="1.67" class="g">|</text><text x="116.232" y="1.67" class="k">0</text><text x="118.236" y="1.67" class="g">/</text><text x="120.24" y="1.67" class="g">0</text><text x="122.244" y="1.67" class="g">|</text><text x="124.248" y="1.67" class="g">ETA:</text><text x="129.258" y="1.67" class="l">0s</text></symbol><symbol id="4"><text x="1.002" y="1.67" class="g">1.</text><text x="4.008" y="1.67" class="i">Copy</text><path class="j" d="M9.018 0h81v2.171h-81z"/><text x="9.018" y="1.67" class="g">Syncing big...</text><text x="91.182" y="1.67" class="g">0%</text><text x="94.188" y="1.67" class="g">|</text><text x="96.192" y="1.67" class="g">0B/s</text><text x="101.202" y="1.67" class="g">|</text><text x="103.206" y="1.67" class="k">0B</text><text x="106.212" y="1.67" class="g">/</text><text x="108.216" y="1.67" class="g">2.9GB</text><text x="114.228" y="1.67" class="g">|</text><text x="116.232" y="1.67" class="k">1</text><text x="118.236" y="1.67" class="g">/</text><text x="120.24" y="1.67" class="g">4</text><text x="122.244" y="1.67" class="g">|</text><text x="124.248" y="1.67" class="g">ETA:</text><text x="129.258" y="1.67" class="l">0s</text></symbol><symbol id="5"><text x="1.002" y="1.67" class="g">1.</text><text x="4.008" y="1.67" class="i">Copy</text><path class="j" d="M9.018 0h77v2.171h-77z"/><text x="9.018" y="1.67" class="g">Syncing big...</text><text x="87.174" y="1.67" class="g">0%</text><text x="90.18" y="1.67" class="g">|</text><text x="92.184" y="1.67" class="g">0B/s</text><text x="97.194" y="1.67" class="g">|</text><text x="99.198" y="1.67" class="k">32.0KB</text><text x="106.212" y="1.67" class="g">/</text><text x="108.216" y="1.67" class="g">2.9GB</text><text x="114.228" y="1.67" class="g">|</text><text x="116.232" y="1.67" class="k">1</text><text x="118.236" y="1.67" class="g">/</text><text x="120.24" y="1.67" class="g">4</text><text x="122.244" y="1.67" class="g">|</text><text x="124.248" y="1.67" class="g">ETA:</text><text x="129.258" y="1.67" class="l">0s</text></symbol><symbol id="6"><text x="1.002" y="1.67" class="g">1.</text><text x="4.008" y="1.67" class="i">Copy</text><path class="m" d="M9.018 0h21v2.171h-21z"/><text x="9.018" y="1.67" class="n">Syncing big...</text><path class="j" d="M30.06 0h49v2.171h-49z"/><text x="30.06" y="1.67" class="g"></text><text x="80.16" y="1.67" class="g">30%</text><text x="84.168" y="1.67" class="g">|</text><text x="86.172" y="1.67" class="g">291.3MB/s</text><text x="96.192" y="1.67" class="g">|</text><text x="98.196" y="1.67" class="k">885.9MB</text><text x="106.212" y="1.67" class="g">/</text><text x="108.216" y="1.67" class="g">2.9GB</text><text x="114.228" y="1.67" class="g">|</text><text x="116.232" y="1.67" class="k">1</text><text x="118.236" y="1.67" class="g">/</text><text x="120.24" y="1.67" class="g">4</text><text x="122.244" y="1.67" class="g">|</text><text x="124.248" y="1.67" class="g">ETA:</text><text x="129.258" y="1.67" class="l">7s</text></symbol><symbol id="7"><text x="1.002" y="1.67" class="g">1.</text><text x="4.008" y="1.67" class="i">Copy</text><path class="m" d="M9.018 0h23v2.171h-23z"/><text x="9.018" y="1.67" class="n">Syncing big...</text><path class="j" d="M32.064 0h47v2.171h-47z"/><text x="32.064" y="1.67" class="g"></text><text x="80.16" y="1.67" class="g">33%</text><text x="84.168" y="1.67" class="g">|</text><text x="86.172" y="1.67" class="g">293.4MB/s</text><text x="96.192" y="1.67" class="g">|</text><text x="98.196" y="1.67" class="k">953.7MB</text><text x="106.212" y="1.67" class="g">/</text><text x="108.216" y="1.67" class="g">2.9GB</text><text x="114.228" y="1.67" class="g">|</text><text x="116.232" y="1.67" class="k">1</text><text x="118.236" y="1.67" class="g">/</text><text x="120.24" y="1.67" class="g">4</text><text x="122.244" y="1.67" class="g">|</text><text x="124.248" y="1.67" class="g">ETA:</text><text x="129.258" y="1.67" class="l">6s</text></symbol><symbol id="8"><text x="1.002" y="1.67" class="g">1.</text><text x="4.008" y="1.67" class="i">Copy</text><path class="m" d="M9.018 0h23v2.171h-23z"/><text x="9.018" y="1.67" class="n">Syncing huge...</text><path class="j" d="M32.064 0h47v2.171h-47z"/><text x="32.064" y="1.67" class="g"></text><text x="80.16" y="1.67" class="g">33%</text><text x="84.168" y="1.67" class="g">|</text><text x="86.172" y="1.67" class="g">293.4MB/s</text><text x="96.192" y="1.67" class="g">|</text><text x="98.196" y="1.67" class="k">953.7MB</text><text x="106.212" y="1.67" class="g">/</text><text x="108.216" y="1.67" class="g">2.9GB</text><text x="114.228" y="1.67" class="g">|</text><text x="116.232" y="1.67" class="k">2</text><text x="118.236" y="1.67" class="g">/</text><text x="120.24" y="1.67" class="g">4</text><text x="122.244" y="1.67" class="g">|</text><text x="124.248" y="1.67" class="g">ETA:</text><text x="129.258" y="1.67" class="l">6s</text></symbol><symbol id="9"><text y="1.67" class="g">^C</text></symbol><symbol id="10"><text y="1.67" class="f">barf</text><text x="4.008" y="1.67" class="g">:</text><text x="5.01" y="1.67" class="h">/home/barf</text><text x="15.03" y="1.67" class="g">$</text><text x="17.034" y="1.67" class="g">barf</text><text x="22.044" y="1.67" class="g">monitor</text></symbol><symbol id="11"><text x="1.002" y="1.67" class="g">1.</text><text x="4.008" y="1.67" class="i">Copy</text><path class="m" d="M9.018 0h35v2.171h-35z"/><text x="9.018" y="1.67" class="n">Syncing huge...</text><path class="j" d="M44.088 0h37v2.171h-37z"/><text x="44.088" y="1.67" class="g"></text><text x="82.164" y="1.67" class="g">49%</text><text x="86.172" y="1.67" class="g">|</text><text x="88.176" y="1.67" class="g">291.3MB/s</text><text x="98.196" y="1.67" class="g">|</text><text x="100.2" y="1.67" class="k">1.4GB</text><text x="106.212" y="1.67" class="g">/</text><text x="108.216" y="1.67" class="g">2.9GB</text><text x="114.228" y="1.67" class="g">|</text><text x="116.232" y="1.67" class="k">2</text><text x="118.236" y="1.67" class="g">/</text><text x="120.24" y="1.67" class="g">4</text><text x="122.244" y="1.67" class="g">|</text><text x="124.248" y="1.67" class="g">ETA:</text><text x="129.258" y="1.67" class="l">5s</text></symbol><symbol id="12"><text x="1.002" y="1.67" class="g">1.</text><text x="4.008" y="1.67" class="i">Copy</text><path class="m" d="M9.018 0h59v2.171h-59z"/><text x="9.018" y="1.67" class="n">Syncing medium...</text><path class="j" d="M68.136 0h13v2.171h-13z"/><text x="68.136" y="1.67" class="g"></text><text x="82.164" y="1.67" class="g">81%</text><text x="86.172" y="1.67" class="g">|</text><text x="88.176" y="1.67" class="g">291.3MB/s</text><text x="98.196" y="1.67" class="g">|</text><text x="100.2" y="1.67" class="k">2.3GB</text><text x="106.212" y="1.67" class="g">/</text><text x="108.216" y="1.67" class="g">2.9GB</text><text x="114.228" y="1.67" class="g">|</text><text x="116.232" y="1.67" class="k">3</text><text x="118.236" y="1.67" class="g">/</text><text x="120.24" y="1.67" class="g">4</text><text x="122.244" y="1.67" class="g">|</text><text x="124.248" y="1.67" class="g">ETA:</text><text x="129.258" y="1.67" class="l">1s</text></symbol><symbol id="13"><text x="1.002" y="1.67" class="g">1.</text><text x="4.008" y="1.67" class="i">Copy</text><path class="m" d="M9.018 0h70v2.171h-70z"/><text x="9.018" y="1.67" class="n">Syncing medium...</text><path class="j" d="M79.158 0h2v2.171h-2z"/><text x="79.158" y="1.67" class="g"></text><text x="82.164" y="1.67" class="g">97%</text><text x="86.172" y="1.67" class="g">|</text><text x="88.176" y="1.67" class="g">291.3MB/s</text><text x="98.196" y="1.67" class="g">|</text><text x="100.2" y="1.67" class="k">2.8GB</text><text x="106.212" y="1.67" class="g">/</text><text x="108.216" y="1.67" class="g">2.9GB</text><text x="114.228" y="1.67" class="g">|</text><text x="116.232" y="1.67" class="k">3</text><text x="118.236" y="1.67" class="g">/</text><text x="120.24" y="1.67" class="g">4</text><text x="122.244" y="1.67" class="g">|</text><text x="124.248" y="1.67" class="g">ETA:</text><text x="129.258" y="1.67" class="l">1s</text></symbol><symbol id="14"><text x="1.002" y="1.67" class="g">1.</text><text x="4.008" y="1.67" class="i">Copy</text><path class="m" d="M9.018 0h70v2.171h-70z"/><text x="9.018" y="1.67" class="n">Syncing small...</text><path class="j" d="M79.158 0h2v2.171h-2z"/><text x="79.158" y="1.67" class="g"></text><text x="82.164" y="1.67" class="g">97%</text><text x="86.172" y="1.67" class="g">|</text><text x="88.176" y="1.67" class="g">291.3MB/s</text><text x="98.196" y="1.67" class="g">|</text><text x="100.2" y="1.67" class="k">2.8GB</text><text x="106.212" y="1.67" class="g">/</text><text x="108.216" y="1.67" class="g">2.9GB</text><text x="114.228" y="1.67" class="g">|</text><text x="116.232" y="1.67" class="k">4</text><text x="118.236" y="1.67" class="g">/</text><text x="120.24" y="1.67" class="g">4</text><text x="122.244" y="1.67" class="g">|</text><text x="124.248" y="1.67" class="g">ETA:</text><text x="129.258" y="1.67" class="l">1s</text></symbol><symbol id="15"><text x="1.002" y="1.67" class="g">1.</text><text x="4.008" y="1.67" class="i">Copy</text><path class="m" d="M9.018 0h75v2.171h-75z"/><text x="9.018" y="1.67" class="n">Completed successfully!</text><text x="85.17" y="1.67" class="g">100%</text><text x="90.18" y="1.67" class="g">|</text><text x="92.184" y="1.67" class="g">291.3MB/s</text><text x="102.204" y="1.67" class="g">|</text><text x="104.208" y="1.67" class="k">2.9GB</text><text x="110.22" y="1.67" class="g">/</text><text x="112.224" y="1.67" class="k">2.9GB</text><text x="118.236" y="1.67" class="g">|</text><text x="120.24" y="1.67" class="k">4</text><text x="122.244" y="1.67" class="g">/</text><text x="124.248" y="1.67" class="k">4</text><text x="126.252" y="1.67" class="g">|</text><text x="128.256" y="1.67" class="l">10s</text></symbol><symbol id="a"><path fill="transparent" d="M0 0h132v11H0z"/></symbol></defs><path class="a" d="M0 0h132v21.71H0z"/><g style="animation-duration:16.876092s;animation-iteration-count:infinite;animation-name:p;animation-timing-function:steps(1,end)"><svg width="8580"><svg><use xlink:href="#a"/></svg><svg x="132"><use xlink:href="#a"/><use xlink:href="#1" y="2.171"/></svg><svg x="264"><use xlink:href="#a"/><use xlink:href="#2" y="2.171"/></svg><svg x="396"><use xlink:href="#a"/><use xlink:href="#2" y="2.171"/><use xlink:href="#3" y="4.342"/></svg><svg x="528"><use xlink:href="#a"/><use xlink:href="#2" y="2.171"/></svg><svg x="660"><use xlink:href="#a"/><use xlink:href="#2" y="2.171"/><text x="1.002" y="6.012" class="g">1.</text><text x="4.008" y="6.012" class="i">Copy</text><path class="j" d="M9.018 4.342h81v2.171h-81z"/><text x="9.018" y="6.012" class="g">Syncing...</text><text x="91.182" y="6.012" class="g">0%</text><text x="94.188" y="6.012" class="g">|</text><text x="96.192" y="6.012" class="g">0B/s</text><text x="101.202" y="6.012" class="g">|</text><text x="103.206" y="6.012" class="k">0B</text><text x="106.212" y="6.012" class="g">/</text><text x="108.216" y="6.012" class="g">2.9GB</text><text x="114.228" y="6.012" class="g">|</text><text x="116.232" y="6.012" class="k">0</text><text x="118.236" y="6.012" class="g">/</text><text x="120.24" y="6.012" class="g">4</text><text x="122.244" y="6.012" class="g">|</text><text x="124.248" y="6.012" class="g">ETA:</text><text x="129.258" y="6.012" class="l">0s</text></svg><svg x="792"><use xlink:href="#a"/><use xlink:href="#2" y="2.171"/></svg><svg x="924"><use xlink:href="#a"/><use xlink:href="#2" y="2.171"/><use xlink:href="#4" y="4.342"/></svg><svg x="1056"><use xlink:href="#a"/><use xlink:href="#2" y="2.171"/><use xlink:href="#4" y="4.342"/></svg><svg x="1188"><use xlink:href="#a"/><use xlink:href="#2" y="2.171"/></svg><svg x="1320"><use xlink:href="#a"/><use xlink:href="#2" y="2.171"/><use xlink:href="#4" y="4.342"/></svg><svg x="1452"><use xlink:href="#a"/><use xlink:href="#2" y="2.171"/></svg><svg x="1584"><use xlink:href="#a"/><use xlink:href="#2" y="2.171"/></svg><svg x="1716"><use xlink:href="#a"/><use xlink:href="#2" y="2.171"/><use xlink:href="#5" y="4.342"/></svg><svg x="1848"><use xlink:href="#a"/><use xlink:href="#2" y="2.171"/><use xlink:href="#5" y="4.342"/></svg><svg x="1980"><use xlink:href="#a"/><use xlink:href="#2" y="2.171"/><text x="1.002" y="6.012" class="g">1.</text><text x="4.008" y="6.012" class="i">Copy</text><path class="m" d="M9.018 4.342h7v2.171h-7z"/><text x="9.018" y="6.012" class="n">Syncing</text><path class="j" d="M16.032 4.342h63v2.171h-63z"/><text x="16.032" y="6.012" class="g">big...</text><text x="80.16" y="6.012" class="g">10%</text><text x="84.168" y="6.012" class="g">|</text><text x="86.172" y="6.012" class="g">289.1MB/s</text><text x="96.192" y="6.012" class="g">|</text><text x="98.196" y="6.012" class="k">289.1MB</text><text x="106.212" y="6.012" class="g">/</text><text x="108.216" y="6.012" class="g">2.9GB</text><text x="114.228" y="6.012" class="g">|</text><text x="116.232" y="6.012" class="k">1</text><text x="118.236" y="6.012" class="g">/</text><text x="120.24" y="6.012" class="g">4</text><text x="122.244" y="6.012" class="g">|</text><text x="124.248" y="6.012" class="g">ETA:</text><text x="129.258" y="6.012" class="l">9s</text></svg><svg x="2112"><use xlink:href="#a"/><use xlink:href="#2" y="2.171"/></svg><svg x="2244"><use xlink:href="#a"/><use xlink:href="#2" y="2.171"/><text x="1.002" y="6.012" class="g">1.</text><text x="4.008" y="6.012" class="i">Copy</text><path class="m" d="M9.018 4.342h14v2.171h-14z"/><text x="9.018" y="6.012" class="n">Syncing big...</text><path class="j" d="M23.046 4.342h56v2.171h-56z"/><text x="23.046" y="6.012" class="g"></text><text x="80.16" y="6.012" class="g">20%</text><text x="84.168" y="6.012" class="g">|</text><text x="86.172" y="6.012" class="g">290.2MB/s</text><text x="96.192" y="6.012" class="g">|</text><text x="98.196" y="6.012" class="k">582.3MB</text><text x="106.212" y="6.012" class="g">/</text><text x="108.216" y="6.012" class="g">2.9GB</text><text x="114.228" y="6.012" class="g">|</text><text x="116.232" y="6.012" class="k">1</text><text x="118.236" y="6.012" class="g">/</text><text x="120.24" y="6.012" class="g">4</text><text x="122.244" y="6.012" class="g">|</text><text x="124.248" y="6.012" class="g">ETA:</text><text x="129.258" y="6.012" class="l">8s</text></svg><svg x="2376"><use xlink:href="#a"/><use xlink:href="#2" y="2.171"/></svg><svg x="2508"><use xlink:href="#a"/><use xlink:href="#2" y="2.171"/><use xlink:href="#6" y="4.342"/></svg><svg x="2640"><use xlink:href="#a"/><use xlink:href="#2" y="2.171"/><use xlink:href="#6" y="4.342"/></svg><svg x="2772"><use xlink:href="#a"/><use xlink:href="#2" y="2.171"/></svg><svg x="2904"><use xlink:href="#a"/><use xlink:href="#2" y="2.171"/><use xlink:href="#7" y="4.342"/></svg><svg x="3036"><use xlink:href="#a"/><use xlink:href="#2" y="2.171"/><use xlink:href="#7" y="4.342"/></svg><svg x="3168"><use xlink:href="#a"/><use xlink:href="#2" y="2.171"/><use xlink:href="#7" y="4.342"/></svg><svg x="3300"><use xlink:href="#a"/><use xlink:href="#2" y="2.171"/><use xlink:href="#7" y="4.342"/></svg><svg x="3432"><use xlink:href="#a"/><use xlink:href="#2" y="2.171"/><use xlink:href="#7" y="4.342"/></svg><svg x="3564"><use xlink:href="#a"/><use xlink:href="#2" y="2.171"/><use xlink:href="#8" y="4.342"/></svg><svg x="3696"><use xlink:href="#a"/><use xlink:href="#2" y="2.171"/><use xlink:href="#8" y="4.342"/><use xlink:href="#9" y="6.513"/></svg><svg x="3828"><use xlink:href="#a"/><use xlink:href="#2" y="2.171"/><use xlink:href="#8" y="4.342"/><use xlink:href="#9" y="6.513"/></svg><svg x="3960"><use xlink:href="#a"/><use xlink:href="#2" y="2.171"/><use xlink:href="#8" y="4.342"/><use xlink:href="#9" y="6.513"/><use xlink:href="#1" y="10.855"/></svg><svg x="4092"><use xlink:href="#a"/><use xlink:href="#2" y="2.171"/><use xlink:href="#8" y="4.342"/><use xlink:href="#9" y="6.513"/><use xlink:href="#10" y="10.855"/></svg><svg x="4224"><use xlink:href="#a"/><use xlink:href="#2" y="2.171"/><use xlink:href="#8" y="4.342"/><use xlink:href="#9" y="6.513"/><use xlink:href="#10" y="10.855"/><use xlink:href="#3" y="13.026"/></svg><svg x="4356"><use xlink:href="#a"/><use xlink:href="#2" y="2.171"/><use xlink:href="#8" y="4.342"/><use xlink:href="#9" y="6.513"/><use xlink:href="#10" y="10.855"/></svg><svg x="4488"><use xlink:href="#a"/><use xlink:href="#2" y="2.171"/><use xlink:href="#8" y="4.342"/><use xlink:href="#9" y="6.513"/><use xlink:href="#10" y="10.855"/><use xlink:href="#11" y="13.026"/></svg><svg x="4620"><use xlink:href="#a"/><use xlink:href="#2" y="2.171"/><use xlink:href="#8" y="4.342"/><use xlink:href="#9" y="6.513"/><use xlink:href="#10" y="10.855"/><use xlink:href="#11" y="13.026"/></svg><svg x="4752"><use xlink:href="#a"/><use xlink:href="#2" y="2.171"/><use xlink:href="#8" y="4.342"/><use xlink:href="#9" y="6.513"/><use xlink:href="#10" y="10.855"/></svg><svg x="4884"><use xlink:href="#a"/><use xlink:href="#2" y="2.171"/><use xlink:href="#8" y="4.342"/><use xlink:href="#9" y="6.513"/><use xlink:href="#10" y="10.855"/></svg><svg x="5016"><use xlink:href="#a"/><use xlink:href="#2" y="2.171"/><use xlink:href="#8" y="4.342"/><use xlink:href="#9" y="6.513"/><use xlink:href="#10" y="10.855"/><text x="1.002" y="14.696" class="g">1.</text><text x="4.008" y="14.696" class="i">Copy</text><path class="m" d="M9.018 13.026h42v2.171h-42z"/><text x="9.018" y="14.696" class="n">Syncing huge...</text><path class="j" d="M51.102 13.026h30v2.171h-30z"/><text x="51.102" y="14.696" class="g"></text><text x="82.164" y="14.696" class="g">58%</text><text x="86.172" y="14.696" class="g">|</text><text x="88.176" y="14.696" class="g">291.3MB/s</text><text x="98.196" y="14.696" class="g">|</text><text x="100.2" y="14.696" class="k">1.7GB</text><text x="106.212" y="14.696" class="g">/</text><text x="108.216" y="14.696" class="g">2.9GB</text><text x="114.228" y="14.696" class="g">|</text><text x="116.232" y="14.696" class="k">2</text><text x="118.236" y="14.696" class="g">/</text><text x="120.24" y="14.696" class="g">4</text><text x="122.244" y="14.696" class="g">|</text><text x="124.248" y="14.696" class="g">ETA:</text><text x="129.258" y="14.696" class="l">4s</text></svg><svg x="5148"><use xlink:href="#a"/><use xlink:href="#2" y="2.171"/><use xlink:href="#8" y="4.342"/><use xlink:href="#9" y="6.513"/><use xlink:href="#10" y="10.855"/></svg><svg x="5280"><use xlink:href="#a"/><use xlink:href="#2" y="2.171"/><use xlink:href="#8" y="4.342"/><use xlink:href="#9" y="6.513"/><use xlink:href="#10" y="10.855"/><text x="1.002" y="14.696" class="g">1.</text><text x="4.008" y="14.696" class="i">Copy</text><path class="m" d="M9.018 13.026h49v2.171h-49z"/><text x="9.018" y="14.696" class="n">Syncing huge...</text><path class="j" d="M58.116 13.026h23v2.171h-23z"/><text x="58.116" y="14.696" class="g"></text><text x="82.164" y="14.696" class="g">67%</text><text x="86.172" y="14.696" class="g">|</text><text x="88.176" y="14.696" class="g">291.3MB/s</text><text x="98.196" y="14.696" class="g">|</text><text x="100.2" y="14.696" class="k">1.9GB</text><text x="106.212" y="14.696" class="g">/</text><text x="108.216" y="14.696" class="g">2.9GB</text><text x="114.228" y="14.696" class="g">|</text><text x="116.232" y="14.696" class="k">2</text><text x="118.236" y="14.696" class="g">/</text><text x="120.24" y="14.696" class="g">4</text><text x="122.244" y="14.696" class="g">|</text><text x="124.248" y="14.696" class="g">ETA:</text><text x="129.258" y="14.696" class="l">3s</text></svg><svg x="5412"><use xlink:href="#a"/><use xlink:href="#2" y="2.171"/><use xlink:href="#8" y="4.342"/><use xlink:href="#9" y="6.513"/><use xlink:href="#10" y="10.855"/></svg><svg x="5544"><use xlink:href="#a"/><use xlink:href="#2" y="2.171"/><use xlink:href="#8" y="4.342"/><use xlink:href="#9" y="6.513"/><use xlink:href="#10" y="10.855"/><text x="1.002" y="14.696" class="g">1.</text><text x="4.008" y="14.696" class="i">Copy</text><path class="m" d="M9.018 13.026h55v2.171h-55z"/><text x="9.018" y="14.696" class="n">Syncing huge...</text><path class="j" d="M64.128 13.026h17v2.171h-17z"/><text x="64.128" y="14.696" class="g"></text><text x="82.164" y="14.696" class="g">77%</text><text x="86.172" y="14.696" class="g">|</text><text x="88.176" y="14.696" class="g">291.3MB/s</text><text x="98.196" y="14.696" class="g">|</text><text x="100.2" y="14.696" class="k">2.2GB</text><text x="106.212" y="14.696" class="g">/</text><text x="108.216" y="14.696" class="g">2.9GB</text><text x="114.228" y="14.696" class="g">|</text><text x="116.232" y="14.696" class="k">2</text><text x="118.236" y="14.696" class="g">/</text><text x="120.24" y="14.696" class="g">4</text><text x="122.244" y="14.696" class="g">|</text><text x="124.248" y="14.696" class="g">ETA:</text><text x="129.258" y="14.696" class="l">2s</text></svg><svg x="5676"><use xlink:href="#a"/><use xlink:href="#2" y="2.171"/><use xlink:href="#8" y="4.342"/><use xlink:href="#9" y="6.513"/><use xlink:href="#10" y="10.855"/></svg><svg x="5808"><use xlink:href="#a"/><use xlink:href="#2" y="2.171"/><use xlink:href="#8" y="4.342"/><use xlink:href="#9" y="6.513"/><use xlink:href="#10" y="10.855"/><text x="1.002" y="14.696" class="g">1.</text><text x="4.008" y="14.696" class="i">Copy</text><path class="m" d="M9.018 13.026h59v2.171h-59z"/><text x="9.018" y="14.696" class="n">Syncing huge...</text><path class="j" d="M68.136 13.026h13v2.171h-13z"/><text x="68.136" y="14.696" class="g"></text><text x="82.164" y="14.696" class="g">81%</text><text x="86.172" y="14.696" class="g">|</text><text x="88.176" y="14.696" class="g">291.3MB/s</text><text x="98.196" y="14.696" class="g">|</text><text x="100.2" y="14.696" class="k">2.3GB</text><text x="106.212" y="14.696" class="g">/</text><text x="108.216" y="14.696" class="g">2.9GB</text><text x="114.228" y="14.696" class="g">|</text><text x="116.232" y="14.696" class="k">2</text><text x="118.236" y="14.696" class="g">/</text><text x="120.24" y="14.696" class="g">4</text><text x="122.244" y="14.696" class="g">|</text><text x="124.248" y="14.696" class="g">ETA:</text><text x="129.258" y="14.696" class="l">1s</text></svg><svg x="5940"><use xlink:href="#a"/><use xlink:href="#2" y="2.171"/><use xlink:href="#8" y="4.342"/><use xlink:href="#9" y="6.513"/><use xlink:href="#10" y="10.855"/></svg><svg x="6072"><use xlink:href="#a"/><use xlink:href="#2" y="2.171"/><use xlink:href="#8" y="4.342"/><use xlink:href="#9" y="6.513"/><use xlink:href="#10" y="10.855"/><use xlink:href="#12" y="13.026"/></svg><svg x="6204"><use xlink:href="#a"/><use xlink:href="#2" y="2.171"/><use xlink:href="#8" y="4.342"/><use xlink:href="#9" y="6.513"/><use xlink:href="#10" y="10.855"/></svg><svg x="6336"><use xlink:href="#a"/><use xlink:href="#2" y="2.171"/><use xlink:href="#8" y="4.342"/><use xlink:href="#9" y="6.513"/><use xlink:href="#10" y="10.855"/><use xlink:href="#12" y="13.026"/></svg><svg x="6468"><use xlink:href="#a"/><use xlink:href="#2" y="2.171"/><use xlink:href="#8" y="4.342"/><use xlink:href="#9" y="6.513"/><use xlink:href="#10" y="10.855"/></svg><svg x="6600"><use xlink:href="#a"/><use xlink:href="#2" y="2.171"/><use xlink:href="#8" y="4.342"/><use xlink:href="#9" y="6.513"/><use xlink:href="#10" y="10.855"/><text x="1.002" y="14.696" class="g">1.</text><text x="4.008" y="14.696" class="i">Copy</text><path class="m" d="M9.018 13.026h62v2.171h-62z"/><text x="9.018" y="14.696" class="n">Syncing medium...</text><path class="j" d="M71.142 13.026h10v2.171h-10z"/><text x="71.142" y="14.696" class="g"></text><text x="82.164" y="14.696" class="g">86%</text><text x="86.172" y="14.696" class="g">|</text><text x="88.176" y="14.696" class="g">291.3MB/s</text><text x="98.196" y="14.696" class="g">|</text><text x="100.2" y="14.696" class="k">2.5GB</text><text x="106.212" y="14.696" class="g">/</text><text x="108.216" y="14.696" class="g">2.9GB</text><text x="114.228" y="14.696" class="g">|</text><text x="116.232" y="14.696" class="k">3</text><text x="118.236" y="14.696" class="g">/</text><text x="120.24" y="14.696" class="g">4</text><text x="122.244" y="14.696" class="g">|</text><text x="124.248" y="14.696" class="g">ETA:</text><text x="129.258" y="14.696" class="l">1s</text></svg><svg x="6732"><use xlink:href="#a"/><use xlink:href="#2" y="2.171"/><use xlink:href="#8" y="4.342"/><use xlink:href="#9" y="6.513"/><use xlink:href="#10" y="10.855"/></svg><svg x="6864"><use xlink:href="#a"/><use xlink:href="#2" y="2.171"/><use xlink:href="#8" y="4.342"/><use xlink:href="#9" y="6.513"/><use xlink:href="#10" y="10.855"/><use xlink:href="#13" y="13.026"/></svg><svg x="6996"><use xlink:href="#a"/><use xlink:href="#2" y="2.171"/><use xlink:href="#8" y="4.342"/><use xlink:href="#9" y="6.513"/><use xlink:href="#10" y="10.855"/></svg><svg x="7128"><use xlink:href="#a"/><use xlink:href="#2" y="2.171"/><use xlink:href="#8" y="4.342"/><use xlink:href="#9" y="6.513"/><use xlink:href="#10" y="10.855"/><use xlink:href="#13" y="13.026"/></svg><svg x="7260"><use xlink:href="#a"/><use xlink:href="#2" y="2.171"/><use xlink:href="#8" y="4.342"/><use xlink:href="#9" y="6.513"/><use xlink:href="#10" y="10.855"/></svg><svg x="7392"><use xlink:href="#a"/><use xlink:href="#2" y="2.171"/><use xlink:href="#8" y="4.342"/><use xlink:href="#9" y="6.513"/><use xlink:href="#10" y="10.855"/><use xlink:href="#14" y="13.026"/></svg><svg x="7524"><use xlink:href="#a"/><use xlink:href="#2" y="2.171"/><use xlink:href="#8" y="4.342"/><use xlink:href="#9" y="6.513"/><use xlink:href="#10" y="10.855"/></svg><svg x="7656"><use xlink:href="#a"/><use xlink:href="#2" y="2.171"/><use xlink:href="#8" y="4.342"/><use xlink:href="#9" y="6.513"/><use xlink:href="#10" y="10.855"/></svg><svg x="7788"><use xlink:href="#a"/><use xlink:href="#2" y="2.171"/><use xlink:href="#8" y="4.342"/><use xlink:href="#9" y="6.513"/><use xlink:href="#10" y="10.855"/><use xlink:href="#14" y="13.026"/></svg><svg x="7920"><use xlink:href="#a"/><use xlink:href="#2" y="2.171"/><use xlink:href="#8" y="4.342"/><use xlink:href="#9" y="6.513"/><use xlink:href="#10" y="10.855"/></svg><svg x="8052"><use xlink:href="#a"/><use xlink:href="#2" y="2.171"/><use xlink:href="#8" y="4.342"/><use xlink:href="#9" y="6.513"/><use xlink:href="#10" y="10.855"/><use xlink:href="#15" y="13.026"/></svg><svg x="8184"><use xlink:href="#a"/><use xlink:href="#2" y="2.171"/><use xlink:href="#8" y="4.342"/><use xlink:href="#9" y="6.513"/><use xlink:href="#10" y="10.855"/><use xlink:href="#15" y="13.026"/><use xlink:href="#1" y="17.368"/></svg><svg x="8316"><use xlink:href="#a"/><use xlink:href="#2" y="2.171"/><use xlink:href="#8" y="4.342"/><use xlink:href="#9" y="6.513"/><use xlink:href="#10" y="10.855"/><use xlink:href="#15" y="13.026"/><use xlink:href="#1" y="17.368"/></svg><svg x="8448"><use xlink:href="#a"/><use xlink:href="#2" y="2.171"/><use xlink:href="#8" y="4.342"/><use xlink:href="#9" y="6.513"/><use xlink:href="#10" y="10.855"/><use xlink:href="#15" y="13.026"/><use xlink:href="#1" y="17.368"/></svg></svg></g></g></svg></svg>