<svg xmlns="http://www.w3.org/2000/svg" xmlns:xlink="http://www.w3.org/1999/xlink" width="1360" height="277.1"><rect width="1360" height="277.1" rx="5" ry="5" class="a"/><svg y="0%" x="0%"><circle cx="20" cy="20" r="6" fill="#ff5f58"/><circle cx="40" cy="20" r="6" fill="#ffbd2e"/><circle cx="60" cy="20" r="6" fill="#18c132"/></svg><svg height="217.1" viewBox="0 0 132 21.71" width="1320" x="15" xmlns="http://www.w3.org/2000/svg" xmlns:xlink="http://www.w3.org/1999/xlink" y="50"><style>@keyframes p{0%{transform:translateX(0)}.04%{transform:translateX(-132px)}1.1%{transform:translateX(-264px)}1.28%{transform:translateX(-396px)}1.36%{transform:translateX(-528px)}1.45%{transform:translateX(-792px)}6.75%{transform:translateX(-1056px)}11.98%{transform:translateX(-1320px)}17.24%{transform:translateX(-1584px)}22.17%{transform:translateX(-1716px)}23.23%{transform:translateX(-1848px)}24.29%{transform:translateX(-2112px)}29.42%{transform:translateX(-2244px)}29.71%{transform:translateX(-2376px)}33.01%{transform:translateX(-2508px)}33.02%{transform:translateX(-2640px)}38.27%{transform:translateX(-2904px)}43.53%{transform:translateX(-3168px)}48.79%{transform:translateX(-3564px)}54.05%{transform:translateX(-3828px)}56.61%{transform:translateX(-4092px)}56.62%{transform:translateX(-4752px)}59.31%{transform:translateX(-5148px)}64.57%{transform:translateX(-5412px)}65.71%{transform:translateX(-6204px)}65.72%{transform:translateX(-6336px)}67.32%{transform:translateX(-7128px)}67.33%{transform:translateX(-7392px)}67.35%{transform:translateX(-7524px)}68.41%{transform:translateX(-7656px)}to{transform:translateX(-7788px)}}.a{fill:#282d35}.f,.g,.h,.i{white-space:pre}.f{fill:#a8cc8c;font-weight:700}.g,.h,.i{fill:#b9c0cb}.h,.i{fill:#71bef2;font-weight:700}.i{fill:#d290e3}.j{fill:#303030}.k,.l{fill:#a8cc8c;white-space:pre}.l{fill:#b9c0cb;font-weight:700}.m{fill:#a8cc8c}.n{white-space:pre}</style><g font-family="Monaco,Consolas,Menlo,'Bitstream Vera Sans Mono','Powerline Symbols',monospace" font-size="1.67"><defs><symbol id="1"><text y="1.67" class="f">barf</text><text x="4.008" y="1.67" class="g">:</text><text x="5.01" y="1.67" class="h">/home/barf</text><text x="15.03" y="1.67" class="g">$</text></symbol><symbol id="2"><text y="1.67" class="f">barf</text><text x="4.008" y="1.67" class="g">:</text><text x="5.01" y="1.67" class="h">/home/barf</text><text x="15.03" y="1.67" class="g">$</text><text x="17.034" y="1.67" class="g">barf</text><text x="22.044" y="1.67" class="g">copy</text><text x="27.054" y="1.67" class="g">~/local/*</text><text x="37.074" y="1.67" class="g">~/remote/</text></symbol><symbol id="3"><text x="1.002" y="1.67" class="g">1.</text><text x="4.008" y="1.67" class="i">Copy</text><path class="j" d="M9.018 0h84v2.171h-84z"/><text x="9.018" y="1.67" class="g"></text><text x="94.188" y="1.67" class="g">0%</text><text x="97.194" y="1.67" class="g">|</text><text x="99.198" y="1.67" class="g">0B/s</text><text x="104.208" y="1.67" class="g">|</text><text x="106.212" y="1.67" class="k">0B</text><text x="109.218" y="1.67" class="g">/</text><text x="111.222" y="1.67" class="g">0B</text><text x="114.228" y="1.67" class="g">|</text><text x="116.232" y="1.67" class="k">0</text><text x="118.236" y="1.67" class="g">/</text><text x="120.24" y="1.67" class="g">0</text><text x="122.244" y="1.67" class="g">|</text><text x="124.248" y="1.67" class="g">ETA:</text><text x="129.258" y="1.67" class="l">0s</text></symbol><symbol id="4"><text x="1.002" y="1.67" class="g">1.</text><text x="4.008" y="1.67" class="i">Copy</text><path class="m" d="M9.018 0h9v2.171h-9z"/><text x="9.018" y="1.67" class="n">big...</text><path class="j" d="M18.036 0h60v2.171h-60z"/><text x="18.036" y="1.67" class="g"></text><text x="79.158" y="1.67" class="g">13%</text><text x="83.166" y="1.67" class="g">|</text><text x="85.17" y="1.67" class="g">198.5MB/s</text><text x="95.19" y="1.67" class="g">|</text><text x="97.194" y="1.67" class="k">370.6MB</text><text x="105.21" y="1.67" class="g">/</text><text x="107.214" y="1.67" class="g">2.9GB</text><text x="113.226" y="1.67" class="g">|</text><text x="115.23" y="1.67" class="k">1</text><text x="117.234" y="1.67" class="g">/</text><text x="119.238" y="1.67" class="g">4</text><text x="121.242" y="1.67" class="g">|</text><text x="123.246" y="1.67" class="g">ETA:</text><text x="128.256" y="1.67" class="l">13s</text></symbol><symbol id="5"><text y="1.67" class="g">^C</text></symbol><symbol id="6"><text y="1.67" class="f">barf</text><text x="4.008" y="1.67" class="g">:</text><text x="5.01" y="1.67" class="h">/home/barf</text><text x="15.03" y="1.67" class="g">$</text><text x="17.034" y="1.67" class="g">barf</text><text x="22.044" y="1.67" class="g">monitor</text></symbol><symbol id="7"><text x="1.002" y="1.67" class="g">1.</text><text x="4.008" y="1.67" class="i">Copy</text><path class="m" d="M9.018 0h27v2.171h-27z"/><text x="9.018" y="1.67" class="n">Processing huge...</text><path class="j" d="M36.072 0h44v2.171h-44z"/><text x="36.072" y="1.67" class="g"></text><text x="81.162" y="1.67" class="g">38%</text><text x="85.17" y="1.67" class="g">|</text><text x="87.174" y="1.67" class="g">168.2MB/s</text><text x="97.194" y="1.67" class="g">|</text><text x="99.198" y="1.67" class="k">1.1GB</text><text x="105.21" y="1.67" class="g">/</text><text x="107.214" y="1.67" class="g">2.9GB</text><text x="113.226" y="1.67" class="g">|</text><text x="115.23" y="1.67" class="k">2</text><text x="117.234" y="1.67" class="g">/</text><text x="119.238" y="1.67" class="g">4</text><text x="121.242" y="1.67" class="g">|</text><text x="123.246" y="1.67" class="g">ETA:</text><text x="128.256" y="1.67" class="l">10s</text></symbol><symbol id="8"><text x="1.002" y="1.67" class="g">1.</text><text x="4.008" y="1.67" class="i">Copy</text><path class="m" d="M9.018 0h59v2.171h-59z"/><text x="9.018" y="1.67" class="n">Processing medium...</text><path class="j" d="M68.136 0h13v2.171h-13z"/><text x="68.136" y="1.67" class="g"></text><text x="82.164" y="1.67" class="g">81%</text><text x="86.172" y="1.67" class="g">|</text><text x="88.176" y="1.67" class="g">256.9MB/s</text><text x="98.196" y="1.67" class="g">|</text><text x="100.2" y="1.67" class="k">2.3GB</text><text x="106.212" y="1.67" class="g">/</text><text x="108.216" y="1.67" class="g">2.9GB</text><text x="114.228" y="1.67" class="g">|</text><text x="116.232" y="1.67" class="k">3</text><text x="118.236" y="1.67" class="g">/</text><text x="120.24" y="1.67" class="g">4</text><text x="122.244" y="1.67" class="g">|</text><text x="124.248" y="1.67" class="g">ETA:</text><text x="129.258" y="1.67" class="l">2s</text></symbol><symbol id="9"><text x="1.002" y="1.67" class="g">1.</text><text x="4.008" y="1.67" class="i">Copy</text><path class="m" d="M9.018 0h62v2.171h-62z"/><text x="9.018" y="1.67" class="n">Processing medium...</text><path class="j" d="M71.142 0h10v2.171h-10z"/><text x="71.142" y="1.67" class="g"></text><text x="82.164" y="1.67" class="g">86%</text><text x="86.172" y="1.67" class="g">|</text><text x="88.176" y="1.67" class="g">205.9MB/s</text><text x="98.196" y="1.67" class="g">|</text><text x="100.2" y="1.67" class="k">2.5GB</text><text x="106.212" y="1.67" class="g">/</text><text x="108.216" y="1.67" class="g">2.9GB</text><text x="114.228" y="1.67" class="g">|</text><text x="116.232" y="1.67" class="k">3</text><text x="118.236" y="1.67" class="g">/</text><text x="120.24" y="1.67" class="g">4</text><text x="122.244" y="1.67" class="g">|</text><text x="124.248" y="1.67" class="g">ETA:</text><text x="129.258" y="1.67" class="l">2s</text></symbol><symbol id="10"><text x="1.002" y="1.67" class="g">1.</text><text x="4.008" y="1.67" class="i">Copy</text><path class="m" d="M9.018 0h70v2.171h-70z"/><text x="9.018" y="1.67" class="n">Processing small...</text><path class="j" d="M79.158 0h2v2.171h-2z"/><text x="79.158" y="1.67" class="g"></text><text x="82.164" y="1.67" class="g">97%</text><text x="86.172" y="1.67" class="g">|</text><text x="88.176" y="1.67" class="g">177.5MB/s</text><text x="98.196" y="1.67" class="g">|</text><text x="100.2" y="1.67" class="k">2.8GB</text><text x="106.212" y="1.67" class="g">/</text><text x="108.216" y="1.67" class="g">2.9GB</text><text x="114.228" y="1.67" class="g">|</text><text x="116.232" y="1.67" class="k">4</text><text x="118.236" y="1.67" class="g">/</text><text x="120.24" y="1.67" class="g">4</text><text x="122.244" y="1.67" class="g">|</text><text x="124.248" y="1.67" class="g">ETA:</text><text x="129.258" y="1.67" class="l">2s</text></symbol><symbol id="11"><text x="1.002" y="1.67" class="g">1.</text><text x="4.008" y="1.67" class="i">Copy</text><path class="m" d="M9.018 0h71v2.171h-71z"/><text x="9.018" y="1.67" class="n">Processing small...</text><text x="81.162" y="1.67" class="g">100%</text><text x="86.172" y="1.67" class="g">|</text><text x="88.176" y="1.67" class="g">193.2MB/s</text><text x="98.196" y="1.67" class="g">|</text><text x="100.2" y="1.67" class="k">2.9GB</text><text x="106.212" y="1.67" class="g">/</text><text x="108.216" y="1.67" class="g">2.9GB</text><text x="114.228" y="1.67" class="g">|</text><text x="116.232" y="1.67" class="k">4</text><text x="118.236" y="1.67" class="g">/</text><text x="120.24" y="1.67" class="g">4</text><text x="122.244" y="1.67" class="g">|</text><text x="124.248" y="1.67" class="g">ETA:</text><text x="129.258" y="1.67" class="l">2s</text></symbol><symbol id="12"><text x="1.002" y="1.67" class="g">1.</text><text x="4.008" y="1.67" class="i">Copy</text><path class="m" d="M9.018 0h75v2.171h-75z"/><text x="9.018" y="1.67" class="n">Finished successfully!</text><text x="85.17" y="1.67" class="g">100%</text><text x="90.18" y="1.67" class="g">|</text><text x="92.184" y="1.67" class="g">193.2MB/s</text><text x="102.204" y="1.67" class="g">|</text><text x="104.208" y="1.67" class="k">2.9GB</text><text x="110.22" y="1.67" class="g">/</text><text x="112.224" y="1.67" class="k">2.9GB</text><text x="118.236" y="1.67" class="g">|</text><text x="120.24" y="1.67" class="k">4</text><text x="122.244" y="1.67" class="g">/</text><text x="124.248" y="1.67" class="k">4</text><text x="126.252" y="1.67" class="g">|</text><text x="128.256" y="1.67" class="l">13s</text></symbol><symbol id="a"><path fill="transparent" d="M0 0h132v11H0z"/></symbol></defs><path class="a" d="M0 0h132v21.71H0z"/><g style="animation-duration:18.997118s;animation-iteration-count:infinite;animation-name:p;animation-timing-function:steps(1,end)"><svg width="7920"><svg><use xlink:href="#a"/></svg><svg x="132"><use xlink:href="#a"/><use xlink:href="#1" y="2.171"/></svg><svg x="264"><use xlink:href="#a"/><use xlink:href="#2" y="2.171"/></svg><svg x="396"><use xlink:href="#a"/><use xlink:href="#2" y="2.171"/><use xlink:href="#3" y="4.342"/></svg><svg x="528"><use xlink:href="#a"/><use xlink:href="#2" y="2.171"/><text x="1.002" y="6.012" class="g">1.</text><text x="4.008" y="6.012" class="i">Copy</text><path class="j" d="M9.018 4.342h81v2.171h-81z"/><text x="9.018" y="6.012" class="g"></text><text x="91.182" y="6.012" class="g">0%</text><text x="94.188" y="6.012" class="g">|</text><text x="96.192" y="6.012" class="g">0B/s</text><text x="101.202" y="6.012" class="g">|</text><text x="103.206" y="6.012" class="k">0B</text><text x="106.212" y="6.012" class="g">/</text><text x="108.216" y="6.012" class="g">2.9GB</text><text x="114.228" y="6.012" class="g">|</text><text x="116.232" y="6.012" class="k">0</text><text x="118.236" y="6.012" class="g">/</text><text x="120.24" y="6.012" class="g">4</text><text x="122.244" y="6.012" class="g">|</text><text x="124.248" y="6.012" class="g">ETA:</text><text x="129.258" y="6.012" class="l">0s</text></svg><svg x="660"><use xlink:href="#a"/><use xlink:href="#2" y="2.171"/></svg><svg x="792"><use xlink:href="#a"/><use xlink:href="#2" y="2.171"/><text x="1.002" y="6.012" class="g">1.</text><text x="4.008" y="6.012" class="i">Copy</text><path class="j" d="M9.018 4.342h81v2.171h-81z"/><text x="9.018" y="6.012" class="g">big...</text><text x="91.182" y="6.012" class="g">0%</text><text x="94.188" y="6.012" class="g">|</text><text x="96.192" y="6.012" class="g">0B/s</text><text x="101.202" y="6.012" class="g">|</text><text x="103.206" y="6.012" class="k">0B</text><text x="106.212" y="6.012" class="g">/</text><text x="108.216" y="6.012" class="g">2.9GB</text><text x="114.228" y="6.012" class="g">|</text><text x="116.232" y="6.012" class="k">1</text><text x="118.236" y="6.012" class="g">/</text><text x="120.24" y="6.012" class="g">4</text><text x="122.244" y="6.012" class="g">|</text><text x="124.248" y="6.012" class="g">ETA:</text><text x="129.258" y="6.012" class="l">0s</text></svg><svg x="924"><use xlink:href="#a"/><use xlink:href="#2" y="2.171"/></svg><svg x="1056"><use xlink:href="#a"/><use xlink:href="#2" y="2.171"/><text x="1.002" y="6.012" class="g">1.</text><text x="4.008" y="6.012" class="i">Copy</text><path class="j" d="M9.018 4.342h77v2.171h-77z"/><text x="9.018" y="6.012" class="g">big...</text><text x="87.174" y="6.012" class="g">0%</text><text x="90.18" y="6.012" class="g">|</text><text x="92.184" y="6.012" class="g">0B/s</text><text x="97.194" y="6.012" class="g">|</text><text x="99.198" y="6.012" class="k">32.0KB</text><text x="106.212" y="6.012" class="g">/</text><text x="108.216" y="6.012" class="g">2.9GB</text><text x="114.228" y="6.012" class="g">|</text><text x="116.232" y="6.012" class="k">1</text><text x="118.236" y="6.012" class="g">/</text><text x="120.24" y="6.012" class="g">4</text><text x="122.244" y="6.012" class="g">|</text><text x="124.248" y="6.012" class="g">ETA:</text><text x="129.258" y="6.012" class="l">0s</text></svg><svg x="1188"><use xlink:href="#a"/><use xlink:href="#2" y="2.171"/></svg><svg x="1320"><use xlink:href="#a"/><use xlink:href="#2" y="2.171"/><text x="1.002" y="6.012" class="g">1.</text><text x="4.008" y="6.012" class="i">Copy</text><path class="m" d="M9.018 4.342h6v2.171h-6z"/><text x="9.018" y="6.012" class="n">big..</text><path class="j" d="M15.03 4.342h64v2.171h-64z"/><text x="15.03" y="6.012" class="g">.</text><text x="80.16" y="6.012" class="g">8%</text><text x="83.166" y="6.012" class="g">|</text><text x="85.17" y="6.012" class="g">211.7MB/s</text><text x="95.19" y="6.012" class="g">|</text><text x="97.194" y="6.012" class="k">211.7MB</text><text x="105.21" y="6.012" class="g">/</text><text x="107.214" y="6.012" class="g">2.9GB</text><text x="113.226" y="6.012" class="g">|</text><text x="115.23" y="6.012" class="k">1</text><text x="117.234" y="6.012" class="g">/</text><text x="119.238" y="6.012" class="g">4</text><text x="121.242" y="6.012" class="g">|</text><text x="123.246" y="6.012" class="g">ETA:</text><text x="128.256" y="6.012" class="l">12s</text></svg><svg x="1452"><use xlink:href="#a"/><use xlink:href="#2" y="2.171"/></svg><svg x="1584"><use xlink:href="#a"/><use xlink:href="#2" y="2.171"/><use xlink:href="#4" y="4.342"/></svg><svg x="1716"><use xlink:href="#a"/><use xlink:href="#2" y="2.171"/><use xlink:href="#4" y="4.342"/><use xlink:href="#5" y="6.513"/></svg><svg x="1848"><use xlink:href="#a"/><use xlink:href="#2" y="2.171"/><use xlink:href="#4" y="4.342"/><use xlink:href="#5" y="6.513"/><use xlink:href="#1" y="10.855"/></svg><svg x="1980"><use xlink:href="#a"/><use xlink:href="#2" y="2.171"/><use xlink:href="#4" y="4.342"/><use xlink:href="#5" y="6.513"/><use xlink:href="#6" y="10.855"/></svg><svg x="2112"><use xlink:href="#a"/><use xlink:href="#2" y="2.171"/><use xlink:href="#4" y="4.342"/><use xlink:href="#5" y="6.513"/><use xlink:href="#6" y="10.855"/></svg><svg x="2244"><use xlink:href="#a"/><use xlink:href="#2" y="2.171"/><use xlink:href="#4" y="4.342"/><use xlink:href="#5" y="6.513"/><use xlink:href="#6" y="10.855"/><use xlink:href="#3" y="13.026"/></svg><svg x="2376"><use xlink:href="#a"/><use xlink:href="#2" y="2.171"/><use xlink:href="#4" y="4.342"/><use xlink:href="#5" y="6.513"/><use xlink:href="#6" y="10.855"/><text x="1.002" y="14.696" class="g">1.</text><text x="4.008" y="14.696" class="i">Copy</text><path class="m" d="M9.018 13.026h23v2.171h-23z"/><text x="9.018" y="14.696" class="n">Processing huge...</text><path class="j" d="M32.064 13.026h46v2.171h-46z"/><text x="32.064" y="14.696" class="g"></text><text x="79.158" y="14.696" class="g">33%</text><text x="83.166" y="14.696" class="g">|</text><text x="85.17" y="14.696" class="g">183.1MB/s</text><text x="95.19" y="14.696" class="g">|</text><text x="97.194" y="14.696" class="k">953.7MB</text><text x="105.21" y="14.696" class="g">/</text><text x="107.214" y="14.696" class="g">2.9GB</text><text x="113.226" y="14.696" class="g">|</text><text x="115.23" y="14.696" class="k">2</text><text x="117.234" y="14.696" class="g">/</text><text x="119.238" y="14.696" class="g">4</text><text x="121.242" y="14.696" class="g">|</text><text x="123.246" y="14.696" class="g">ETA:</text><text x="128.256" y="14.696" class="l">10s</text></svg><svg x="2508"><use xlink:href="#a"/><use xlink:href="#2" y="2.171"/><use xlink:href="#4" y="4.342"/><use xlink:href="#5" y="6.513"/><use xlink:href="#6" y="10.855"/></svg><svg x="2640"><use xlink:href="#a"/><use xlink:href="#2" y="2.171"/><use xlink:href="#4" y="4.342"/><use xlink:href="#5" y="6.513"/><use xlink:href="#6" y="10.855"/><text x="1.002" y="14.696" class="g">1.</text><text x="4.008" y="14.696" class="i">Copy</text><path class="m" d="M9.018 13.026h23v2.171h-23z"/><text x="9.018" y="14.696" class="n">Processing huge...</text><path class="j" d="M32.064 13.026h46v2.171h-46z"/><text x="32.064" y="14.696" class="g"></text><text x="79.158" y="14.696" class="g">33%</text><text x="83.166" y="14.696" class="g">|</text><text x="85.17" y="14.696" class="g">175.8MB/s</text><text x="95.19" y="14.696" class="g">|</text><text x="97.194" y="14.696" class="k">953.7MB</text><text x="105.21" y="14.696" class="g">/</text><text x="107.214" y="14.696" class="g">2.9GB</text><text x="113.226" y="14.696" class="g">|</text><text x="115.23" y="14.696" class="k">2</text><text x="117.234" y="14.696" class="g">/</text><text x="119.238" y="14.696" class="g">4</text><text x="121.242" y="14.696" class="g">|</text><text x="123.246" y="14.696" class="g">ETA:</text><text x="128.256" y="14.696" class="l">11s</text></svg><svg x="2772"><use xlink:href="#a"/><use xlink:href="#2" y="2.171"/><use xlink:href="#4" y="4.342"/><use xlink:href="#5" y="6.513"/><use xlink:href="#6" y="10.855"/><use xlink:href="#7" y="13.026"/></svg><svg x="2904"><use xlink:href="#a"/><use xlink:href="#2" y="2.171"/><use xlink:href="#4" y="4.342"/><use xlink:href="#5" y="6.513"/><use xlink:href="#6" y="10.855"/><use xlink:href="#7" y="13.026"/></svg><svg x="3036"><use xlink:href="#a"/><use xlink:href="#2" y="2.171"/><use xlink:href="#4" y="4.342"/><use xlink:href="#5" y="6.513"/><use xlink:href="#6" y="10.855"/></svg><svg x="3168"><use xlink:href="#a"/><use xlink:href="#2" y="2.171"/><use xlink:href="#4" y="4.342"/><use xlink:href="#5" y="6.513"/><use xlink:href="#6" y="10.855"/><text x="1.002" y="14.696" class="g">1.</text><text x="4.008" y="14.696" class="i">Copy</text><path class="m" d="M9.018 13.026h34v2.171h-34z"/><text x="9.018" y="14.696" class="n">Processing huge...</text><path class="j" d="M43.086 13.026h38v2.171h-38z"/><text x="43.086" y="14.696" class="g"></text><text x="82.164" y="14.696" class="g">47%</text><text x="86.172" y="14.696" class="g">|</text><text x="88.176" y="14.696" class="g">172.5MB/s</text><text x="98.196" y="14.696" class="g">|</text><text x="100.2" y="14.696" class="k">1.3GB</text><text x="106.212" y="14.696" class="g">/</text><text x="108.216" y="14.696" class="g">2.9GB</text><text x="114.228" y="14.696" class="g">|</text><text x="116.232" y="14.696" class="k">2</text><text x="118.236" y="14.696" class="g">/</text><text x="120.24" y="14.696" class="g">4</text><text x="122.244" y="14.696" class="g">|</text><text x="124.248" y="14.696" class="g">ETA:</text><text x="129.258" y="14.696" class="l">9s</text></svg><svg x="3300"><use xlink:href="#a"/><use xlink:href="#2" y="2.171"/><use xlink:href="#4" y="4.342"/><use xlink:href="#5" y="6.513"/><use xlink:href="#6" y="10.855"/></svg><svg x="3432"><use xlink:href="#a"/><use xlink:href="#2" y="2.171"/><use xlink:href="#4" y="4.342"/><use xlink:href="#5" y="6.513"/><use xlink:href="#6" y="10.855"/></svg><svg x="3564"><use xlink:href="#a"/><use xlink:href="#2" y="2.171"/><use xlink:href="#4" y="4.342"/><use xlink:href="#5" y="6.513"/><use xlink:href="#6" y="10.855"/><text x="1.002" y="14.696" class="g">1.</text><text x="4.008" y="14.696" class="i">Copy</text><path class="m" d="M9.018 13.026h41v2.171h-41z"/><text x="9.018" y="14.696" class="n">Processing huge...</text><path class="j" d="M50.1 13.026h31v2.171h-31z"/><text x="50.1" y="14.696" class="g"></text><text x="82.164" y="14.696" class="g">57%</text><text x="86.172" y="14.696" class="g">|</text><text x="88.176" y="14.696" class="g">188.7MB/s</text><text x="98.196" y="14.696" class="g">|</text><text x="100.2" y="14.696" class="k">1.6GB</text><text x="106.212" y="14.696" class="g">/</text><text x="108.216" y="14.696" class="g">2.9GB</text><text x="114.228" y="14.696" class="g">|</text><text x="116.232" y="14.696" class="k">2</text><text x="118.236" y="14.696" class="g">/</text><text x="120.24" y="14.696" class="g">4</text><text x="122.244" y="14.696" class="g">|</text><text x="124.248" y="14.696" class="g">ETA:</text><text x="129.258" y="14.696" class="l">6s</text></svg><svg x="3696"><use xlink:href="#a"/><use xlink:href="#2" y="2.171"/><use xlink:href="#4" y="4.342"/><use xlink:href="#5" y="6.513"/><use xlink:href="#6" y="10.855"/></svg><svg x="3828"><use xlink:href="#a"/><use xlink:href="#2" y="2.171"/><use xlink:href="#4" y="4.342"/><use xlink:href="#5" y="6.513"/><use xlink:href="#6" y="10.855"/><text x="1.002" y="14.696" class="g">1.</text><text x="4.008" y="14.696" class="i">Copy</text><path class="m" d="M9.018 13.026h48v2.171h-48z"/><text x="9.018" y="14.696" class="n">Processing huge...</text><path class="j" d="M57.114 13.026h24v2.171h-24z"/><text x="57.114" y="14.696" class="g"></text><text x="82.164" y="14.696" class="g">67%</text><text x="86.172" y="14.696" class="g">|</text><text x="88.176" y="14.696" class="g">227.2MB/s</text><text x="98.196" y="14.696" class="g">|</text><text x="100.2" y="14.696" class="k">1.9GB</text><text x="106.212" y="14.696" class="g">/</text><text x="108.216" y="14.696" class="g">2.9GB</text><text x="114.228" y="14.696" class="g">|</text><text x="116.232" y="14.696" class="k">2</text><text x="118.236" y="14.696" class="g">/</text><text x="120.24" y="14.696" class="g">4</text><text x="122.244" y="14.696" class="g">|</text><text x="124.248" y="14.696" class="g">ETA:</text><text x="129.258" y="14.696" class="l">4s</text></svg><svg x="3960"><use xlink:href="#a"/><use xlink:href="#2" y="2.171"/><use xlink:href="#4" y="4.342"/><use xlink:href="#5" y="6.513"/><use xlink:href="#6" y="10.855"/></svg><svg x="4092"><use xlink:href="#a"/><use xlink:href="#2" y="2.171"/><use xlink:href="#4" y="4.342"/><use xlink:href="#5" y="6.513"/><use xlink:href="#6" y="10.855"/><text x="1.002" y="14.696" class="g">1.</text><text x="4.008" y="14.696" class="i">Copy</text><path class="m" d="M9.018 13.026h55v2.171h-55z"/><text x="9.018" y="14.696" class="n">Processing huge...</text><path class="j" d="M64.128 13.026h17v2.171h-17z"/><text x="64.128" y="14.696" class="g"></text><text x="82.164" y="14.696" class="g">77%</text><text x="86.172" y="14.696" class="g">|</text><text x="88.176" y="14.696" class="g">247.3MB/s</text><text x="98.196" y="14.696" class="g">|</text><text x="100.2" y="14.696" class="k">2.2GB</text><text x="106.212" y="14.696" class="g">/</text><text x="108.216" y="14.696" class="g">2.9GB</text><text x="114.228" y="14.696" class="g">|</text><text x="116.232" y="14.696" class="k">2</text><text x="118.236" y="14.696" class="g">/</text><text x="120.24" y="14.696" class="g">4</text><text x="122.244" y="14.696" class="g">|</text><text x="124.248" y="14.696" class="g">ETA:</text><text x="129.258" y="14.696" class="l">2s</text></svg><svg x="4224"><use xlink:href="#a"/><use xlink:href="#2" y="2.171"/><use xlink:href="#4" y="4.342"/><use xlink:href="#5" y="6.513"/><use xlink:href="#6" y="10.855"/></svg><svg x="4356"><use xlink:href="#a"/><use xlink:href="#2" y="2.171"/><use xlink:href="#4" y="4.342"/><use xlink:href="#5" y="6.513"/><use xlink:href="#6" y="10.855"/><text x="1.002" y="14.696" class="g">1.</text><text x="4.008" y="14.696" class="i">Copy</text><path class="m" d="M9.018 13.026h59v2.171h-59z"/><text x="9.018" y="14.696" class="n">Processing huge...</text><path class="j" d="M68.136 13.026h13v2.171h-13z"/><text x="68.136" y="14.696" class="g"></text><text x="82.164" y="14.696" class="g">81%</text><text x="86.172" y="14.696" class="g">|</text><text x="88.176" y="14.696" class="g">256.9MB/s</text><text x="98.196" y="14.696" class="g">|</text><text x="100.2" y="14.696" class="k">2.3GB</text><text x="106.212" y="14.696" class="g">/</text><text x="108.216" y="14.696" class="g">2.9GB</text><text x="114.228" y="14.696" class="g">|</text><text x="116.232" y="14.696" class="k">2</text><text x="118.236" y="14.696" class="g">/</text><text x="120.24" y="14.696" class="g">4</text><text x="122.244" y="14.696" class="g">|</text><text x="124.248" y="14.696" class="g">ETA:</text><text x="129.258" y="14.696" class="l">2s</text></svg><svg x="4488"><use xlink:href="#a"/><use xlink:href="#2" y="2.171"/><use xlink:href="#4" y="4.342"/><use xlink:href="#5" y="6.513"/><use xlink:href="#6" y="10.855"/></svg><svg x="4620"><use xlink:href="#a"/><use xlink:href="#2" y="2.171"/><use xlink:href="#4" y="4.342"/><use xlink:href="#5" y="6.513"/><use xlink:href="#6" y="10.855"/></svg><svg x="4752"><use xlink:href="#a"/><use xlink:href="#2" y="2.171"/><use xlink:href="#4" y="4.342"/><use xlink:href="#5" y="6.513"/><use xlink:href="#6" y="10.855"/><use xlink:href="#8" y="13.026"/></svg><svg x="4884"><use xlink:href="#a"/><use xlink:href="#2" y="2.171"/><use xlink:href="#4" y="4.342"/><use xlink:href="#5" y="6.513"/><use xlink:href="#6" y="10.855"/></svg><svg x="5016"><use xlink:href="#a"/><use xlink:href="#2" y="2.171"/><use xlink:href="#4" y="4.342"/><use xlink:href="#5" y="6.513"/><use xlink:href="#6" y="10.855"/><use xlink:href="#8" y="13.026"/></svg><svg x="5148"><use xlink:href="#a"/><use xlink:href="#2" y="2.171"/><use xlink:href="#4" y="4.342"/><use xlink:href="#5" y="6.513"/><use xlink:href="#6" y="10.855"/><use xlink:href="#8" y="13.026"/></svg><svg x="5280"><use xlink:href="#a"/><use xlink:href="#2" y="2.171"/><use xlink:href="#4" y="4.342"/><use xlink:href="#5" y="6.513"/><use xlink:href="#6" y="10.855"/></svg><svg x="5412"><use xlink:href="#a"/><use xlink:href="#2" y="2.171"/><use xlink:href="#4" y="4.342"/><use xlink:href="#5" y="6.513"/><use xlink:href="#6" y="10.855"/><use xlink:href="#9" y="13.026"/></svg><svg x="5544"><use xlink:href="#a"/><use xlink:href="#2" y="2.171"/><use xlink:href="#4" y="4.342"/><use xlink:href="#5" y="6.513"/><use xlink:href="#6" y="10.855"/><use xlink:href="#9" y="13.026"/></svg><svg x="5676"><use xlink:href="#a"/><use xlink:href="#2" y="2.171"/><use xlink:href="#4" y="4.342"/><use xlink:href="#5" y="6.513"/><use xlink:href="#6" y="10.855"/></svg><svg x="5808"><use xlink:href="#a"/><use xlink:href="#2" y="2.171"/><use xlink:href="#4" y="4.342"/><use xlink:href="#5" y="6.513"/><use xlink:href="#6" y="10.855"/><text x="1.002" y="14.696" class="g">1.</text><text x="4.008" y="14.696" class="i">Copy</text><path class="m" d="M9.018 13.026h69v2.171h-69z"/><text x="9.018" y="14.696" class="n">Processing medium...</text><path class="j" d="M78.156 13.026h3v2.171h-3z"/><text x="78.156" y="14.696" class="g"></text><text x="82.164" y="14.696" class="g">95%</text><text x="86.172" y="14.696" class="g">|</text><text x="88.176" y="14.696" class="g">177.5MB/s</text><text x="98.196" y="14.696" class="g">|</text><text x="100.2" y="14.696" class="k">2.7GB</text><text x="106.212" y="14.696" class="g">/</text><text x="108.216" y="14.696" class="g">2.9GB</text><text x="114.228" y="14.696" class="g">|</text><text x="116.232" y="14.696" class="k">3</text><text x="118.236" y="14.696" class="g">/</text><text x="120.24" y="14.696" class="g">4</text><text x="122.244" y="14.696" class="g">|</text><text x="124.248" y="14.696" class="g">ETA:</text><text x="129.258" y="14.696" class="l">2s</text></svg><svg x="5940"><use xlink:href="#a"/><use xlink:href="#2" y="2.171"/><use xlink:href="#4" y="4.342"/><use xlink:href="#5" y="6.513"/><use xlink:href="#6" y="10.855"/></svg><svg x="6072"><use xlink:href="#a"/><use xlink:href="#2" y="2.171"/><use xlink:href="#4" y="4.342"/><use xlink:href="#5" y="6.513"/><use xlink:href="#6" y="10.855"/></svg><svg x="6204"><use xlink:href="#a"/><use xlink:href="#2" y="2.171"/><use xlink:href="#4" y="4.342"/><use xlink:href="#5" y="6.513"/><use xlink:href="#6" y="10.855"/><use xlink:href="#10" y="13.026"/></svg><svg x="6336"><use xlink:href="#a"/><use xlink:href="#2" y="2.171"/><use xlink:href="#4" y="4.342"/><use xlink:href="#5" y="6.513"/><use xlink:href="#6" y="10.855"/><use xlink:href="#10" y="13.026"/></svg><svg x="6468"><use xlink:href="#a"/><use xlink:href="#2" y="2.171"/><use xlink:href="#4" y="4.342"/><use xlink:href="#5" y="6.513"/><use xlink:href="#6" y="10.855"/></svg><svg x="6600"><use xlink:href="#a"/><use xlink:href="#2" y="2.171"/><use xlink:href="#4" y="4.342"/><use xlink:href="#5" y="6.513"/><use xlink:href="#6" y="10.855"/><use xlink:href="#10" y="13.026"/></svg><svg x="6732"><use xlink:href="#a"/><use xlink:href="#2" y="2.171"/><use xlink:href="#4" y="4.342"/><use xlink:href="#5" y="6.513"/><use xlink:href="#6" y="10.855"/></svg><svg x="6864"><use xlink:href="#a"/><use xlink:href="#2" y="2.171"/><use xlink:href="#4" y="4.342"/><use xlink:href="#5" y="6.513"/><use xlink:href="#6" y="10.855"/><use xlink:href="#11" y="13.026"/></svg><svg x="6996"><use xlink:href="#a"/><use xlink:href="#2" y="2.171"/><use xlink:href="#4" y="4.342"/><use xlink:href="#5" y="6.513"/><use xlink:href="#6" y="10.855"/></svg><svg x="7128"><use xlink:href="#a"/><use xlink:href="#2" y="2.171"/><use xlink:href="#4" y="4.342"/><use xlink:href="#5" y="6.513"/><use xlink:href="#6" y="10.855"/><use xlink:href="#11" y="13.026"/></svg><svg x="7260"><use xlink:href="#a"/><use xlink:href="#2" y="2.171"/><use xlink:href="#4" y="4.342"/><use xlink:href="#5" y="6.513"/><use xlink:href="#6" y="10.855"/></svg><svg x="7392"><use xlink:href="#a"/><use xlink:href="#2" y="2.171"/><use xlink:href="#4" y="4.342"/><use xlink:href="#5" y="6.513"/><use xlink:href="#6" y="10.855"/><use xlink:href="#12" y="13.026"/></svg><svg x="7524"><use xlink:href="#a"/><use xlink:href="#2" y="2.171"/><use xlink:href="#4" y="4.342"/><use xlink:href="#5" y="6.513"/><use xlink:href="#6" y="10.855"/><use xlink:href="#12" y="13.026"/><use xlink:href="#1" y="17.368"/></svg><svg x="7656"><use xlink:href="#a"/><use xlink:href="#2" y="2.171"/><use xlink:href="#4" y="4.342"/><use xlink:href="#5" y="6.513"/><use xlink:href="#6" y="10.855"/><use xlink:href="#12" y="13.026"/><use xlink:href="#1" y="17.368"/></svg><svg x="7788"><use xlink:href="#a"/><use xlink:href="#2" y="2.171"/><use xlink:href="#4" y="4.342"/><use xlink:href="#5" y="6.513"/><use xlink:href="#6" y="10.855"/><use xlink:href="#12" y="13.026"/><use xlink:href="#1" y="17.368"/></svg></svg></g></g></svg></svg>