<svg xmlns="http://www.w3.org/2000/svg" xmlns:xlink="http://www.w3.org/1999/xlink" width="1360" height="494.2"><rect width="1360" height="494.2" rx="5" ry="5" class="a"/><svg y="0%" x="0%"><circle cx="20" cy="20" r="6" fill="#ff5f58"/><circle cx="40" cy="20" r="6" fill="#ffbd2e"/><circle cx="60" cy="20" r="6" fill="#18c132"/></svg><svg height="434.2" viewBox="0 0 132 43.42" width="1320" x="15" xmlns="http://www.w3.org/2000/svg" xmlns:xlink="http://www.w3.org/1999/xlink" y="50"><style>@keyframes p{0%{transform:translateX(0)}.03%{transform:translateX(-132px)}1.11%{transform:translateX(-264px)}3.8%{transform:translateX(-396px)}3.81%{transform:translateX(-528px)}3.82%{transform:translateX(-660px)}3.83%{transform:translateX(-1056px)}9.16%{transform:translateX(-1320px)}14.49%{transform:translateX(-1848px)}19.81%{transform:translateX(-2376px)}24.53%{transform:translateX(-2640px)}24.54%{transform:translateX(-2904px)}25.14%{transform:translateX(-3168px)}30.46%{transform:translateX(-3432px)}35.79%{transform:translateX(-3828px)}41.11%{transform:translateX(-4092px)}46.43%{transform:translateX(-4224px)}46.44%{transform:translateX(-4488px)}51.76%{transform:translateX(-5148px)}53.83%{transform:translateX(-5412px)}53.84%{transform:translateX(-6732px)}53.85%{transform:translateX(-6864px)}57.08%{transform:translateX(-6996px)}57.09%{transform:translateX(-7128px)}62.41%{transform:translateX(-7656px)}62.62%{transform:translateX(-7788px)}62.63%{transform:translateX(-8448px)}64.4%{transform:translateX(-8580px)}64.41%{transform:translateX(-8712px)}64.73%{transform:translateX(-9108px)}64.76%{transform:translateX(-9240px)}65.84%{transform:translateX(-9372px)}65.85%{transform:translateX(-9504px)}65.86%{transform:translateX(-9768px)}66.93%{transform:translateX(-10032px)}66.94%{transform:translateX(-10296px)}68.01%{transform:translateX(-10428px)}to{transform:translateX(-10560px)}}.a{fill:#282d35}.f,.g,.h,.i{white-space:pre}.f{fill:#a8cc8c;font-weight:700}.g,.h,.i{fill:#b9c0cb}.h,.i{fill:#71bef2;font-weight:700}.i{fill:#d290e3}.j{fill:#303030}.k,.l{fill:#a8cc8c;white-space:pre}.l{fill:#b9c0cb;font-weight:700}.m{fill:#a8cc8c}.n{white-space:pre}</style><g font-family="Monaco,Consolas,Menlo,'Bitstream Vera Sans Mono','Powerline Symbols',monospace" font-size="1.67"><defs><symbol id="1"><text y="1.67" class="f">barf</text><text x="4.008" y="1.67" class="g">:</text><text x="5.01" y="1.67" class="h">/home/barf</text><text x="15.03" y="1.67" class="g">$</text></symbol><symbol id="2"><text y="1.67" class="f">barf</text><text x="4.008" y="1.67" class="g">:</text><text x="5.01" y="1.67" class="h">/home/barf</text><text x="15.03" y="1.67" class="g">$</text><text x="17.034" y="1.67" class="g">barf</text><text x="22.044" y="1.67" class="g">copy</text><text x="27.054" y="1.67" class="g">~/local/*</text><text x="37.074" y="1.67" class="g">~/remote/</text></symbol><symbol id="3"><text x="1.002" y="1.67" class="g">1.</text><text x="4.008" y="1.67" class="i">Copy</text><path class="j" d="M9.018 0h81v2.171h-81z"/><text x="9.018" y="1.67" class="g">Syncing big...</text><text x="91.182" y="1.67" class="g">0%</text><text x="94.188" y="1.67" class="g">|</text><text x="96.192" y="1.67" class="g">0B/s</text><text x="101.202" y="1.67" class="g">|</text><text x="103.206" y="1.67" class="k">0B</text><text x="106.212" y="1.67" class="g">/</text><text x="108.216" y="1.67" class="g">2.9GB</text><text x="114.228" y="1.67" class="g">|</text><text x="116.232" y="1.67" class="k">1</text><text x="118.236" y="1.67" class="g">/</text><text x="120.24" y="1.67" class="g">4</text><text x="122.244" y="1.67" class="g">|</text><text x="124.248" y="1.67" class="g">ETA:</text><text x="129.258" y="1.67" class="l">0s</text></symbol><symbol id="4"><text x="1.002" y="1.67" class="g">1.</text><text x="4.008" y="1.67" class="i">Copy</text><path class="m" d="M9.018 0h7v2.171h-7z"/><text x="9.018" y="1.67" class="n">Syncing</text><path class="j" d="M16.032 0h63v2.171h-63z"/><text x="16.032" y="1.67" class="g">big...</text><text x="80.16" y="1.67" class="g">10%</text><text x="84.168" y="1.67" class="g">|</text><text x="86.172" y="1.67" class="g">284.1MB/s</text><text x="96.192" y="1.67" class="g">|</text><text x="98.196" y="1.67" class="k">284.1MB</text><text x="106.212" y="1.67" class="g">/</text><text x="108.216" y="1.67" class="g">2.9GB</text><text x="114.228" y="1.67" class="g">|</text><text x="116.232" y="1.67" class="k">1</text><text x="118.236" y="1.67" class="g">/</text><text x="120.24" y="1.67" class="g">4</text><text x="122.244" y="1.67" class="g">|</text><text x="124.248" y="1.67" class="g">ETA:</text><text x="129.258" y="1.67" class="l">9s</text></symbol><symbol id="5"><text x="1.002" y="1.67" class="g">1.</text><text x="4.008" y="1.67" class="i">Copy</text><path class="m" d="M9.018 0h14v2.171h-14z"/><text x="9.018" y="1.67" class="n">Syncing big...</text><path class="j" d="M23.046 0h56v2.171h-56z"/><text x="23.046" y="1.67" class="g"></text><text x="80.16" y="1.67" class="g">19%</text><text x="84.168" y="1.67" class="g">|</text><text x="86.172" y="1.67" class="g">282.0MB/s</text><text x="96.192" y="1.67" class="g">|</text><text x="98.196" y="1.67" class="k">559.6MB</text><text x="106.212" y="1.67" class="g">/</text><text x="108.216" y="1.67" class="g">2.9GB</text><text x="114.228" y="1.67" class="g">|</text><text x="116.232" y="1.67" class="k">1</text><text x="118.236" y="1.67" class="g">/</text><text x="120.24" y="1.67" class="g">4</text><text x="122.244" y="1.67" class="g">|</text><text x="124.248" y="1.67" class="g">ETA:</text><text x="129.258" y="1.67" class="l">8s</text></symbol><symbol id="6"><text x="1.002" y="1.67" class="g">1.</text><text x="4.008" y="1.67" class="i">Copy</text><path class="m" d="M9.018 0h23v2.171h-23z"/><text x="9.018" y="1.67" class="n">Syncing huge...</text><path class="j" d="M32.064 0h47v2.171h-47z"/><text x="32.064" y="1.67" class="g"></text><text x="80.16" y="1.67" class="g">33%</text><text x="84.168" y="1.67" class="g">|</text><text x="86.172" y="1.67" class="g">266.8MB/s</text><text x="96.192" y="1.67" class="g">|</text><text x="98.196" y="1.67" class="k">953.7MB</text><text x="106.212" y="1.67" class="g">/</text><text x="108.216" y="1.67" class="g">2.9GB</text><text x="114.228" y="1.67" class="g">|</text><text x="116.232" y="1.67" class="k">2</text><text x="118.236" y="1.67" class="g">/</text><text x="120.24" y="1.67" class="g">4</text><text x="122.244" y="1.67" class="g">|</text><text x="124.248" y="1.67" class="g">ETA:</text><text x="129.258" y="1.67" class="l">7s</text></symbol><symbol id="7"><text x="1.002" y="1.67" class="g">1.</text><text x="4.008" y="1.67" class="i">Copy</text><path class="m" d="M9.018 0h31v2.171h-31z"/><text x="9.018" y="1.67" class="n">Syncing huge...</text><path class="j" d="M40.08 0h41v2.171h-41z"/><text x="40.08" y="1.67" class="g"></text><text x="82.164" y="1.67" class="g">43%</text><text x="86.172" y="1.67" class="g">|</text><text x="88.176" y="1.67" class="g">253.8MB/s</text><text x="98.196" y="1.67" class="g">|</text><text x="100.2" y="1.67" class="k">1.2GB</text><text x="106.212" y="1.67" class="g">/</text><text x="108.216" y="1.67" class="g">2.9GB</text><text x="114.228" y="1.67" class="g">|</text><text x="116.232" y="1.67" class="k">2</text><text x="118.236" y="1.67" class="g">/</text><text x="120.24" y="1.67" class="g">4</text><text x="122.244" y="1.67" class="g">|</text><text x="124.248" y="1.67" class="g">ETA:</text><text x="129.258" y="1.67" class="l">6s</text></symbol><symbol id="8"><text x="1.002" y="1.67" class="g">1.</text><text x="4.008" y="1.67" class="i">Copy</text><path class="m" d="M9.018 0h42v2.171h-42z"/><text x="9.018" y="1.67" class="n">Syncing huge...</text><path class="j" d="M51.102 0h30v2.171h-30z"/><text x="51.102" y="1.67" class="g"></text><text x="82.164" y="1.67" class="g">58%</text><text x="86.172" y="1.67" class="g">|</text><text x="88.176" y="1.67" class="g">253.8MB/s</text><text x="98.196" y="1.67" class="g">|</text><text x="100.2" y="1.67" class="k">1.7GB</text><text x="106.212" y="1.67" class="g">/</text><text x="108.216" y="1.67" class="g">2.9GB</text><text x="114.228" y="1.67" class="g">|</text><text x="116.232" y="1.67" class="k">2</text><text x="118.236" y="1.67" class="g">/</text><text x="120.24" y="1.67" class="g">4</text><text x="122.244" y="1.67" class="g">|</text><text x="124.248" y="1.67" class="g">ETA:</text><text x="129.258" y="1.67" class="l">4s</text></symbol><symbol id="9"><text x="1.002" y="1.67" class="g">1.</text><text x="4.008" y="1.67" class="i">Copy</text><path class="m" d="M9.018 0h49v2.171h-49z"/><text x="9.018" y="1.67" class="n">Syncing huge...</text><path class="j" d="M58.116 0h23v2.171h-23z"/><text x="58.116" y="1.67" class="g"></text><text x="82.164" y="1.67" class="g">68%</text><text x="86.172" y="1.67" class="g">|</text><text x="88.176" y="1.67" class="g">253.8MB/s</text><text x="98.196" y="1.67" class="g">|</text><text x="100.2" y="1.67" class="k">1.9GB</text><text x="106.212" y="1.67" class="g">/</text><text x="108.216" y="1.67" class="g">2.9GB</text><text x="114.228" y="1.67" class="g">|</text><text x="116.232" y="1.67" class="k">2</text><text x="118.236" y="1.67" class="g">/</text><text x="120.24" y="1.67" class="g">4</text><text x="122.244" y="1.67" class="g">|</text><text x="124.248" y="1.67" class="g">ETA:</text><text x="129.258" y="1.67" class="l">3s</text></symbol><symbol id="10"><text x="1.002" y="1.67" class="g">1.</text><text x="4.008" y="1.67" class="i">Copy</text><path class="m" d="M9.018 0h56v2.171h-56z"/><text x="9.018" y="1.67" class="n">Syncing huge...</text><path class="j" d="M65.13 0h16v2.171h-16z"/><text x="65.13" y="1.67" class="g"></text><text x="82.164" y="1.67" class="g">77%</text><text x="86.172" y="1.67" class="g">|</text><text x="88.176" y="1.67" class="g">256.3MB/s</text><text x="98.196" y="1.67" class="g">|</text><text x="100.2" y="1.67" class="k">2.2GB</text><text x="106.212" y="1.67" class="g">/</text><text x="108.216" y="1.67" class="g">2.9GB</text><text x="114.228" y="1.67" class="g">|</text><text x="116.232" y="1.67" class="k">2</text><text x="118.236" y="1.67" class="g">/</text><text x="120.24" y="1.67" class="g">4</text><text x="122.244" y="1.67" class="g">|</text><text x="124.248" y="1.67" class="g">ETA:</text><text x="129.258" y="1.67" class="l">2s</text></symbol><symbol id="11"><text x="1.002" y="1.67" class="g">1.</text><text x="4.008" y="1.67" class="i">Copy</text><path class="m" d="M9.018 0h59v2.171h-59z"/><text x="9.018" y="1.67" class="n">Syncing huge...</text><path class="j" d="M68.136 0h13v2.171h-13z"/><text x="68.136" y="1.67" class="g"></text><text x="82.164" y="1.67" class="g">81%</text><text x="86.172" y="1.67" class="g">|</text><text x="88.176" y="1.67" class="g">256.3MB/s</text><text x="98.196" y="1.67" class="g">|</text><text x="100.2" y="1.67" class="k">2.3GB</text><text x="106.212" y="1.67" class="g">/</text><text x="108.216" y="1.67" class="g">2.9GB</text><text x="114.228" y="1.67" class="g">|</text><text x="116.232" y="1.67" class="k">2</text><text x="118.236" y="1.67" class="g">/</text><text x="120.24" y="1.67" class="g">4</text><text x="122.244" y="1.67" class="g">|</text><text x="124.248" y="1.67" class="g">ETA:</text><text x="129.258" y="1.67" class="l">2s</text></symbol><symbol id="12"><text x="1.002" y="1.67" class="g">1.</text><text x="4.008" y="1.67" class="i">Copy</text><path class="m" d="M9.018 0h59v2.171h-59z"/><text x="9.018" y="1.67" class="n">Syncing medium...</text><path class="j" d="M68.136 0h13v2.171h-13z"/><text x="68.136" y="1.67" class="g"></text><text x="82.164" y="1.67" class="g">81%</text><text x="86.172" y="1.67" class="g">|</text><text x="88.176" y="1.67" class="g">256.3MB/s</text><text x="98.196" y="1.67" class="g">|</text><text x="100.2" y="1.67" class="k">2.3GB</text><text x="106.212" y="1.67" class="g">/</text><text x="108.216" y="1.67" class="g">2.9GB</text><text x="114.228" y="1.67" class="g">|</text><text x="116.232" y="1.67" class="k">3</text><text x="118.236" y="1.67" class="g">/</text><text x="120.24" y="1.67" class="g">4</text><text x="122.244" y="1.67" class="g">|</text><text x="124.248" y="1.67" class="g">ETA:</text><text x="129.258" y="1.67" class="l">2s</text></symbol><symbol id="13"><text x="1.002" y="1.67" class="g">1.</text><text x="4.008" y="1.67" class="i">Copy</text><path class="m" d="M9.018 0h63v2.171h-63z"/><text x="9.018" y="1.67" class="n">Syncing medium...</text><path class="j" d="M72.144 0h9v2.171h-9z"/><text x="72.144" y="1.67" class="g"></text><text x="82.164" y="1.67" class="g">87%</text><text x="86.172" y="1.67" class="g">|</text><text x="88.176" y="1.67" class="g">256.3MB/s</text><text x="98.196" y="1.67" class="g">|</text><text x="100.2" y="1.67" class="k">2.5GB</text><text x="106.212" y="1.67" class="g">/</text><text x="108.216" y="1.67" class="g">2.9GB</text><text x="114.228" y="1.67" class="g">|</text><text x="116.232" y="1.67" class="k">3</text><text x="118.236" y="1.67" class="g">/</text><text x="120.24" y="1.67" class="g">4</text><text x="122.244" y="1.67" class="g">|</text><text x="124.248" y="1.67" class="g">ETA:</text><text x="129.258" y="1.67" class="l">1s</text></symbol><symbol id="14"><text x="1.002" y="1.67" class="g">1.</text><text x="4.008" y="1.67" class="i">Copy</text><path class="m" d="M9.018 0h70v2.171h-70z"/><text x="9.018" y="1.67" class="n">Syncing medium...</text><path class="j" d="M79.158 0h2v2.171h-2z"/><text x="79.158" y="1.67" class="g"></text><text x="82.164" y="1.67" class="g">97%</text><text x="86.172" y="1.67" class="g">|</text><text x="88.176" y="1.67" class="g">256.3MB/s</text><text x="98.196" y="1.67" class="g">|</text><text x="100.2" y="1.67" class="k">2.8GB</text><text x="106.212" y="1.67" class="g">/</text><text x="108.216" y="1.67" class="g">2.9GB</text><text x="114.228" y="1.67" class="g">|</text><text x="116.232" y="1.67" class="k">3</text><text x="118.236" y="1.67" class="g">/</text><text x="120.24" y="1.67" class="g">4</text><text x="122.244" y="1.67" class="g">|</text><text x="124.248" y="1.67" class="g">ETA:</text><text x="129.258" y="1.67" class="l">1s</text></symbol><symbol id="15"><text x="1.002" y="1.67" class="g">1.</text><text x="4.008" y="1.67" class="i">Copy</text><path class="m" d="M9.018 0h70v2.171h-70z"/><text x="9.018" y="1.67" class="n">Syncing small...</text><path class="j" d="M79.158 0h2v2.171h-2z"/><text x="79.158" y="1.67" class="g"></text><text x="82.164" y="1.67" class="g">97%</text><text x="86.172" y="1.67" class="g">|</text><text x="88.176" y="1.67" class="g">256.3MB/s</text><text x="98.196" y="1.67" class="g">|</text><text x="100.2" y="1.67" class="k">2.8GB</text><text x="106.212" y="1.67" class="g">/</text><text x="108.216" y="1.67" class="g">2.9GB</text><text x="114.228" y="1.67" class="g">|</text><text x="116.232" y="1.67" class="k">4</text><text x="118.236" y="1.67" class="g">/</text><text x="120.24" y="1.67" class="g">4</text><text x="122.244" y="1.67" class="g">|</text><text x="124.248" y="1.67" class="g">ETA:</text><text x="129.258" y="1.67" class="l">1s</text></symbol><symbol id="16"><text x="1.002" y="1.67" class="g">1.</text><text x="4.008" y="1.67" class="i">Copy</text><path class="m" d="M9.018 0h75v2.171h-75z"/><text x="9.018" y="1.67" class="n">Completed successfully!</text><text x="85.17" y="1.67" class="g">100%</text><text x="90.18" y="1.67" class="g">|</text><text x="92.184" y="1.67" class="g">256.3MB/s</text><text x="102.204" y="1.67" class="g">|</text><text x="104.208" y="1.67" class="k">2.9GB</text><text x="110.22" y="1.67" class="g">/</text><text x="112.224" y="1.67" class="k">2.9GB</text><text x="118.236" y="1.67" class="g">|</text><text x="120.24" y="1.67" class="k">4</text><text x="122.244" y="1.67" class="g">/</text><text x="124.248" y="1.67" class="k">4</text><text x="126.252" y="1.67" class="g">|</text><text x="128.256" y="1.67" class="l">11s</text></symbol><symbol id="17"><text y="1.67" class="f">barf</text><text x="4.008" y="1.67" class="g">:</text><text x="5.01" y="1.67" class="h">/home/barf</text><text x="15.03" y="1.67" class="g">$</text><text x="17.034" y="1.67" class="g">du</text><text x="20.04" y="1.67" class="g">-ach</text><text x="25.05" y="1.67" class="g">*</text><text x="27.054" y="1.67" class="g">~/local</text></symbol><symbol id="18"><text y="1.67" class="g">954M</text><text x="8.016" y="1.67" class="g">big</text></symbol><symbol id="19"><text y="1.67" class="g">1,4G</text><text x="8.016" y="1.67" class="g">huge</text></symbol><symbol id="20"><text y="1.67" class="g">477M</text><text x="8.016" y="1.67" class="g">medium</text></symbol><symbol id="21"><text y="1.67" class="g">96M</text><text x="8.016" y="1.67" class="g">small</text></symbol><symbol id="22"><text y="1.67" class="g">2,9G</text><text x="8.016" y="1.67" class="g">total</text></symbol><symbol id="23"><text y="1.67" class="f">barf</text><text x="4.008" y="1.67" class="g">:</text><text x="5.01" y="1.67" class="h">/home/barf</text><text x="15.03" y="1.67" class="g">$</text><text x="17.034" y="1.67" class="g">du</text><text x="20.04" y="1.67" class="g">-ach</text><text x="25.05" y="1.67" class="g">*</text><text x="27.054" y="1.67" class="g">~/remote</text></symbol><symbol id="a"><path fill="transparent" d="M0 0h132v21H0z"/></symbol></defs><path class="a" d="M0 0h132v43.42H0z"/><g style="animation-duration:18.764426s;animation-iteration-count:infinite;animation-name:p;animation-timing-function:steps(1,end)"><svg width="10692"><svg><use xlink:href="#a"/></svg><svg x="132"><use xlink:href="#a"/><use xlink:href="#1" y="2.171"/></svg><svg x="264"><use xlink:href="#a"/><use xlink:href="#2" y="2.171"/></svg><svg x="396"><use xlink:href="#a"/><use xlink:href="#2" y="2.171"/><text x="1.002" y="6.012" class="g">1.</text><text x="4.008" y="6.012" class="i">Copy</text><path class="j" d="M9.018 4.342h84v2.171h-84z"/><text x="9.018" y="6.012" class="g"></text><text x="94.188" y="6.012" class="g">0%</text><text x="97.194" y="6.012" class="g">|</text><text x="99.198" y="6.012" class="g">0B/s</text><text x="104.208" y="6.012" class="g">|</text><text x="106.212" y="6.012" class="k">0B</text><text x="109.218" y="6.012" class="g">/</text><text x="111.222" y="6.012" class="g">0B</text><text x="114.228" y="6.012" class="g">|</text><text x="116.232" y="6.012" class="k">0</text><text x="118.236" y="6.012" class="g">/</text><text x="120.24" y="6.012" class="g">0</text><text x="122.244" y="6.012" class="g">|</text><text x="124.248" y="6.012" class="g">ETA:</text><text x="129.258" y="6.012" class="l">0s</text></svg><svg x="528"><use xlink:href="#a"/><use xlink:href="#2" y="2.171"/></svg><svg x="660"><use xlink:href="#a"/><use xlink:href="#2" y="2.171"/><text x="1.002" y="6.012" class="g">1.</text><text x="4.008" y="6.012" class="i">Copy</text><path class="j" d="M9.018 4.342h81v2.171h-81z"/><text x="9.018" y="6.012" class="g">Syncing...</text><text x="91.182" y="6.012" class="g">0%</text><text x="94.188" y="6.012" class="g">|</text><text x="96.192" y="6.012" class="g">0B/s</text><text x="101.202" y="6.012" class="g">|</text><text x="103.206" y="6.012" class="k">0B</text><text x="106.212" y="6.012" class="g">/</text><text x="108.216" y="6.012" class="g">2.9GB</text><text x="114.228" y="6.012" class="g">|</text><text x="116.232" y="6.012" class="k">0</text><text x="118.236" y="6.012" class="g">/</text><text x="120.24" y="6.012" class="g">4</text><text x="122.244" y="6.012" class="g">|</text><text x="124.248" y="6.012" class="g">ETA:</text><text x="129.258" y="6.012" class="l">0s</text></svg><svg x="792"><use xlink:href="#a"/><use xlink:href="#2" y="2.171"/></svg><svg x="924"><use xlink:href="#a"/><use xlink:href="#2" y="2.171"/><use xlink:href="#3" y="4.342"/></svg><svg x="1056"><use xlink:href="#a"/><use xlink:href="#2" y="2.171"/><use xlink:href="#3" y="4.342"/></svg><svg x="1188"><use xlink:href="#a"/><use xlink:href="#2" y="2.171"/></svg><svg x="1320"><use xlink:href="#a"/><use xlink:href="#2" y="2.171"/><text x="1.002" y="6.012" class="g">1.</text><text x="4.008" y="6.012" class="i">Copy</text><path class="j" d="M9.018 4.342h77v2.171h-77z"/><text x="9.018" y="6.012" class="g">Syncing big...</text><text x="87.174" y="6.012" class="g">0%</text><text x="90.18" y="6.012" class="g">|</text><text x="92.184" y="6.012" class="g">0B/s</text><text x="97.194" y="6.012" class="g">|</text><text x="99.198" y="6.012" class="k">32.0KB</text><text x="106.212" y="6.012" class="g">/</text><text x="108.216" y="6.012" class="g">2.9GB</text><text x="114.228" y="6.012" class="g">|</text><text x="116.232" y="6.012" class="k">1</text><text x="118.236" y="6.012" class="g">/</text><text x="120.24" y="6.012" class="g">4</text><text x="122.244" y="6.012" class="g">|</text><text x="124.248" y="6.012" class="g">ETA:</text><text x="129.258" y="6.012" class="l">0s</text></svg><svg x="1452"><use xlink:href="#a"/><use xlink:href="#2" y="2.171"/></svg><svg x="1584"><use xlink:href="#a"/><use xlink:href="#2" y="2.171"/><use xlink:href="#4" y="4.342"/></svg><svg x="1716"><use xlink:href="#a"/><use xlink:href="#2" y="2.171"/></svg><svg x="1848"><use xlink:href="#a"/><use xlink:href="#2" y="2.171"/><use xlink:href="#4" y="4.342"/></svg><svg x="1980"><use xlink:href="#a"/><use xlink:href="#2" y="2.171"/></svg><svg x="2112"><use xlink:href="#a"/><use xlink:href="#2" y="2.171"/><use xlink:href="#5" y="4.342"/></svg><svg x="2244"><use xlink:href="#a"/><use xlink:href="#2" y="2.171"/></svg><svg x="2376"><use xlink:href="#a"/><use xlink:href="#2" y="2.171"/><use xlink:href="#5" y="4.342"/></svg><svg x="2508"><use xlink:href="#a"/><use xlink:href="#2" y="2.171"/><use xlink:href="#5" y="4.342"/></svg><svg x="2640"><use xlink:href="#a"/><use xlink:href="#2" y="2.171"/></svg><svg x="2772"><use xlink:href="#a"/><use xlink:href="#2" y="2.171"/><use xlink:href="#6" y="4.342"/></svg><svg x="2904"><use xlink:href="#a"/><use xlink:href="#2" y="2.171"/><use xlink:href="#6" y="4.342"/></svg><svg x="3036"><use xlink:href="#a"/><use xlink:href="#2" y="2.171"/></svg><svg x="3168"><use xlink:href="#a"/><use xlink:href="#2" y="2.171"/><text x="1.002" y="6.012" class="g">1.</text><text x="4.008" y="6.012" class="i">Copy</text><path class="m" d="M9.018 4.342h23v2.171h-23z"/><text x="9.018" y="6.012" class="n">Syncing huge...</text><path class="j" d="M32.064 4.342h47v2.171h-47z"/><text x="32.064" y="6.012" class="g"></text><text x="80.16" y="6.012" class="g">33%</text><text x="84.168" y="6.012" class="g">|</text><text x="86.172" y="6.012" class="g">253.8MB/s</text><text x="96.192" y="6.012" class="g">|</text><text x="98.196" y="6.012" class="k">953.7MB</text><text x="106.212" y="6.012" class="g">/</text><text x="108.216" y="6.012" class="g">2.9GB</text><text x="114.228" y="6.012" class="g">|</text><text x="116.232" y="6.012" class="k">2</text><text x="118.236" y="6.012" class="g">/</text><text x="120.24" y="6.012" class="g">4</text><text x="122.244" y="6.012" class="g">|</text><text x="124.248" y="6.012" class="g">ETA:</text><text x="129.258" y="6.012" class="l">7s</text></svg><svg x="3300"><use xlink:href="#a"/><use xlink:href="#2" y="2.171"/></svg><svg x="3432"><use xlink:href="#a"/><use xlink:href="#2" y="2.171"/><text x="1.002" y="6.012" class="g">1.</text><text x="4.008" y="6.012" class="i">Copy</text><path class="m" d="M9.018 4.342h24v2.171h-24z"/><text x="9.018" y="6.012" class="n">Syncing huge...</text><path class="j" d="M33.066 4.342h46v2.171h-46z"/><text x="33.066" y="6.012" class="g"></text><text x="80.16" y="6.012" class="g">34%</text><text x="84.168" y="6.012" class="g">|</text><text x="86.172" y="6.012" class="g">253.8MB/s</text><text x="96.192" y="6.012" class="g">|</text><text x="98.196" y="6.012" class="k">983.3MB</text><text x="106.212" y="6.012" class="g">/</text><text x="108.216" y="6.012" class="g">2.9GB</text><text x="114.228" y="6.012" class="g">|</text><text x="116.232" y="6.012" class="k">2</text><text x="118.236" y="6.012" class="g">/</text><text x="120.24" y="6.012" class="g">4</text><text x="122.244" y="6.012" class="g">|</text><text x="124.248" y="6.012" class="g">ETA:</text><text x="129.258" y="6.012" class="l">7s</text></svg><svg x="3564"><use xlink:href="#a"/><use xlink:href="#2" y="2.171"/></svg><svg x="3696"><use xlink:href="#a"/><use xlink:href="#2" y="2.171"/></svg><svg x="3828"><use xlink:href="#a"/><use xlink:href="#2" y="2.171"/><use xlink:href="#7" y="4.342"/></svg><svg x="3960"><use xlink:href="#a"/><use xlink:href="#2" y="2.171"/><use xlink:href="#7" y="4.342"/></svg><svg x="4092"><use xlink:href="#a"/><use xlink:href="#2" y="2.171"/><text x="1.002" y="6.012" class="g">1.</text><text x="4.008" y="6.012" class="i">Copy</text><path class="m" d="M9.018 4.342h36v2.171h-36z"/><text x="9.018" y="6.012" class="n">Syncing huge...</text><path class="j" d="M45.09 4.342h36v2.171h-36z"/><text x="45.09" y="6.012" class="g"></text><text x="82.164" y="6.012" class="g">50%</text><text x="86.172" y="6.012" class="g">|</text><text x="88.176" y="6.012" class="g">253.8MB/s</text><text x="98.196" y="6.012" class="g">|</text><text x="100.2" y="6.012" class="k">1.4GB</text><text x="106.212" y="6.012" class="g">/</text><text x="108.216" y="6.012" class="g">2.9GB</text><text x="114.228" y="6.012" class="g">|</text><text x="116.232" y="6.012" class="k">2</text><text x="118.236" y="6.012" class="g">/</text><text x="120.24" y="6.012" class="g">4</text><text x="122.244" y="6.012" class="g">|</text><text x="124.248" y="6.012" class="g">ETA:</text><text x="129.258" y="6.012" class="l">5s</text></svg><svg x="4224"><use xlink:href="#a"/><use xlink:href="#2" y="2.171"/></svg><svg x="4356"><use xlink:href="#a"/><use xlink:href="#2" y="2.171"/></svg><svg x="4488"><use xlink:href="#a"/><use xlink:href="#2" y="2.171"/><use xlink:href="#8" y="4.342"/></svg><svg x="4620"><use xlink:href="#a"/><use xlink:href="#2" y="2.171"/><use xlink:href="#8" y="4.342"/></svg><svg x="4752"><use xlink:href="#a"/><use xlink:href="#2" y="2.171"/><use xlink:href="#9" y="4.342"/></svg><svg x="4884"><use xlink:href="#a"/><use xlink:href="#2" y="2.171"/><use xlink:href="#9" y="4.342"/></svg><svg x="5016"><use xlink:href="#a"/><use xlink:href="#2" y="2.171"/></svg><svg x="5148"><use xlink:href="#a"/><use xlink:href="#2" y="2.171"/><use xlink:href="#9" y="4.342"/></svg><svg x="5280"><use xlink:href="#a"/><use xlink:href="#2" y="2.171"/></svg><svg x="5412"><use xlink:href="#a"/><use xlink:href="#2" y="2.171"/><use xlink:href="#10" y="4.342"/></svg><svg x="5544"><use xlink:href="#a"/><use xlink:href="#2" y="2.171"/><use xlink:href="#10" y="4.342"/></svg><svg x="5676"><use xlink:href="#a"/><use xlink:href="#2" y="2.171"/></svg><svg x="5808"><use xlink:href="#a"/><use xlink:href="#2" y="2.171"/><use xlink:href="#10" y="4.342"/></svg><svg x="5940"><use xlink:href="#a"/><use xlink:href="#2" y="2.171"/><use xlink:href="#10" y="4.342"/></svg><svg x="6072"><use xlink:href="#a"/><use xlink:href="#2" y="2.171"/><use xlink:href="#11" y="4.342"/></svg><svg x="6204"><use xlink:href="#a"/><use xlink:href="#2" y="2.171"/><use xlink:href="#11" y="4.342"/></svg><svg x="6336"><use xlink:href="#a"/><use xlink:href="#2" y="2.171"/></svg><svg x="6468"><use xlink:href="#a"/><use xlink:href="#2" y="2.171"/><use xlink:href="#12" y="4.342"/></svg><svg x="6600"><use xlink:href="#a"/><use xlink:href="#2" y="2.171"/><use xlink:href="#12" y="4.342"/></svg><svg x="6732"><use xlink:href="#a"/><use xlink:href="#2" y="2.171"/></svg><svg x="6864"><use xlink:href="#a"/><use xlink:href="#2" y="2.171"/><use xlink:href="#12" y="4.342"/></svg><svg x="6996"><use xlink:href="#a"/><use xlink:href="#2" y="2.171"/><use xlink:href="#12" y="4.342"/></svg><svg x="7128"><use xlink:href="#a"/><use xlink:href="#2" y="2.171"/><use xlink:href="#12" y="4.342"/></svg><svg x="7260"><use xlink:href="#a"/><use xlink:href="#2" y="2.171"/></svg><svg x="7392"><use xlink:href="#a"/><use xlink:href="#2" y="2.171"/><use xlink:href="#13" y="4.342"/></svg><svg x="7524"><use xlink:href="#a"/><use xlink:href="#2" y="2.171"/></svg><svg x="7656"><use xlink:href="#a"/><use xlink:href="#2" y="2.171"/><use xlink:href="#13" y="4.342"/></svg><svg x="7788"><use xlink:href="#a"/><use xlink:href="#2" y="2.171"/><use xlink:href="#13" y="4.342"/></svg><svg x="7920"><use xlink:href="#a"/><use xlink:href="#2" y="2.171"/><use xlink:href="#14" y="4.342"/></svg><svg x="8052"><use xlink:href="#a"/><use xlink:href="#2" y="2.171"/></svg><svg x="8184"><use xlink:href="#a"/><use xlink:href="#2" y="2.171"/><use xlink:href="#14" y="4.342"/></svg><svg x="8316"><use xlink:href="#a"/><use xlink:href="#2" y="2.171"/></svg><svg x="8448"><use xlink:href="#a"/><use xlink:href="#2" y="2.171"/><use xlink:href="#15" y="4.342"/></svg><svg x="8580"><use xlink:href="#a"/><use xlink:href="#2" y="2.171"/></svg><svg x="8712"><use xlink:href="#a"/><use xlink:href="#2" y="2.171"/><use xlink:href="#15" y="4.342"/></svg><svg x="8844"><use xlink:href="#a"/><use xlink:href="#2" y="2.171"/></svg><svg x="8976"><use xlink:href="#a"/><use xlink:href="#2" y="2.171"/><use xlink:href="#16" y="4.342"/></svg><svg x="9108"><use xlink:href="#a"/><use xlink:href="#2" y="2.171"/><use xlink:href="#16" y="4.342"/></svg><svg x="9240"><use xlink:href="#a"/><use xlink:href="#2" y="2.171"/><use xlink:href="#16" y="4.342"/><use xlink:href="#1" y="8.684"/></svg><svg x="9372"><use xlink:href="#a"/><use xlink:href="#2" y="2.171"/><use xlink:href="#16" y="4.342"/><use xlink:href="#17" y="8.684"/></svg><svg x="9504"><use xlink:href="#a"/><use xlink:href="#2" y="2.171"/><use xlink:href="#16" y="4.342"/><use xlink:href="#17" y="8.684"/><use xlink:href="#18" y="10.855"/><use xlink:href="#19" y="13.026"/><use xlink:href="#20" y="15.197"/><use xlink:href="#21" y="17.368"/></svg><svg x="9636"><use xlink:href="#a"/><use xlink:href="#2" y="2.171"/><use xlink:href="#16" y="4.342"/><use xlink:href="#17" y="8.684"/><use xlink:href="#18" y="10.855"/><use xlink:href="#19" y="13.026"/><use xlink:href="#20" y="15.197"/><use xlink:href="#21" y="17.368"/><use xlink:href="#22" y="19.539"/></svg><svg x="9768"><use xlink:href="#a"/><use xlink:href="#2" y="2.171"/><use xlink:href="#16" y="4.342"/><use xlink:href="#17" y="8.684"/><use xlink:href="#18" y="10.855"/><use xlink:href="#19" y="13.026"/><use xlink:href="#20" y="15.197"/><use xlink:href="#21" y="17.368"/><use xlink:href="#22" y="19.539"/><use xlink:href="#1" y="23.881"/></svg><svg x="9900"><use xlink:href="#a"/><use xlink:href="#2" y="2.171"/><use xlink:href="#16" y="4.342"/><use xlink:href="#17" y="8.684"/><use xlink:href="#18" y="10.855"/><use xlink:href="#19" y="13.026"/><use xlink:href="#20" y="15.197"/><use xlink:href="#21" y="17.368"/><use xlink:href="#22" y="19.539"/><use xlink:href="#23" y="23.881"/></svg><svg x="10032"><use xlink:href="#a"/><use xlink:href="#2" y="2.171"/><use xlink:href="#16" y="4.342"/><use xlink:href="#17" y="8.684"/><use xlink:href="#18" y="10.855"/><use xlink:href="#19" y="13.026"/><use xlink:href="#20" y="15.197"/><use xlink:href="#21" y="17.368"/><use xlink:href="#22" y="19.539"/><use xlink:href="#23" y="23.881"/><use xlink:href="#18" y="26.052"/><use xlink:href="#19" y="28.223"/><use xlink:href="#20" y="30.394"/><use xlink:href="#21" y="32.565"/></svg><svg x="10164"><use xlink:href="#a"/><use xlink:href="#2" y="2.171"/><use xlink:href="#16" y="4.342"/><use xlink:href="#17" y="8.684"/><use xlink:href="#18" y="10.855"/><use xlink:href="#19" y="13.026"/><use xlink:href="#20" y="15.197"/><use xlink:href="#21" y="17.368"/><use xlink:href="#22" y="19.539"/><use xlink:href="#23" y="23.881"/><use xlink:href="#18" y="26.052"/><use xlink:href="#19" y="28.223"/><use xlink:href="#20" y="30.394"/><use xlink:href="#21" y="32.565"/><use xlink:href="#22" y="34.736"/></svg><svg x="10296"><use xlink:href="#a"/><use xlink:href="#2" y="2.171"/><use xlink:href="#16" y="4.342"/><use xlink:href="#17" y="8.684"/><use xlink:href="#18" y="10.855"/><use xlink:href="#19" y="13.026"/><use xlink:href="#20" y="15.197"/><use xlink:href="#21" y="17.368"/><use xlink:href="#22" y="19.539"/><use xlink:href="#23" y="23.881"/><use xlink:href="#18" y="26.052"/><use xlink:href="#19" y="28.223"/><use xlink:href="#20" y="30.394"/><use xlink:href="#21" y="32.565"/><use xlink:href="#22" y="34.736"/><use xlink:href="#1" y="39.078"/></svg><svg x="10428"><use xlink:href="#a"/><use xlink:href="#2" y="2.171"/><use xlink:href="#16" y="4.342"/><use xlink:href="#17" y="8.684"/><use xlink:href="#18" y="10.855"/><use xlink:href="#19" y="13.026"/><use xlink:href="#20" y="15.197"/><use xlink:href="#21" y="17.368"/><use xlink:href="#22" y="19.539"/><use xlink:href="#23" y="23.881"/><use xlink:href="#18" y="26.052"/><use xlink:href="#19" y="28.223"/><use xlink:href="#20" y="30.394"/><use xlink:href="#21" y="32.565"/><use xlink:href="#22" y="34.736"/><use xlink:href="#1" y="39.078"/></svg><svg x="10560"><use xlink:href="#a"/><use xlink:href="#2" y="2.171"/><use xlink:href="#16" y="4.342"/><use xlink:href="#17" y="8.684"/><use xlink:href="#18" y="10.855"/><use xlink:href="#19" y="13.026"/><use xlink:href="#20" y="15.197"/><use xlink:href="#21" y="17.368"/><use xlink:href="#22" y="19.539"/><use xlink:href="#23" y="23.881"/><use xlink:href="#18" y="26.052"/><use xlink:href="#19" y="28.223"/><use xlink:href="#20" y="30.394"/><use xlink:href="#21" y="32.565"/><use xlink:href="#22" y="34.736"/><use xlink:href="#1" y="39.078"/></svg></svg></g></g></svg></svg>