<svg xmlns="http://www.w3.org/2000/svg" xmlns:xlink="http://www.w3.org/1999/xlink" width="1360" height="407.36"><rect width="1360" height="407.36" rx="5" ry="5" class="a"/><svg y="0%" x="0%"><circle cx="20" cy="20" r="6" fill="#ff5f58"/><circle cx="40" cy="20" r="6" fill="#ffbd2e"/><circle cx="60" cy="20" r="6" fill="#18c132"/></svg><svg height="347.36" viewBox="0 0 132 34.736" width="1320" x="15" xmlns="http://www.w3.org/2000/svg" xmlns:xlink="http://www.w3.org/1999/xlink" y="50"><style>@keyframes p{0%{transform:translateX(0)}.1%{transform:translateX(-132px)}1.6%{transform:translateX(-264px)}6.4%{transform:translateX(-792px)}8.5%{transform:translateX(-1056px)}10.5%{transform:translateX(-1320px)}18%{transform:translateX(-1584px)}25.6%{transform:translateX(-1848px)}33.2%{transform:translateX(-2376px)}40.8%{transform:translateX(-2640px)}43.9%{transform:translateX(-3168px)}44.3%{transform:translateX(-3564px)}44.7%{transform:translateX(-3828px)}48.3%{transform:translateX(-4224px)}49.8%{transform:translateX(-5412px)}49.9%{transform:translateX(-5676px)}50%{transform:translateX(-5808px)}51.5%{transform:translateX(-6336px)}53%{transform:translateX(-6864px)}54.6%{transform:translateX(-6996px)}to{transform:translateX(-7128px)}}.a{fill:#282d35}.f,.g,.h,.i{white-space:pre}.f{fill:#a8cc8c;font-weight:700}.g,.h,.i{fill:#b9c0cb}.h,.i{fill:#71bef2;font-weight:700}.i{fill:#d290e3}.j{fill:#303030}.k,.l{fill:#a8cc8c;white-space:pre}.l{fill:#b9c0cb;font-weight:700}.m{fill:#a8cc8c}.n{white-space:pre}</style><g font-family="Monaco,Consolas,Menlo,'Bitstream Vera Sans Mono','Powerline Symbols',monospace" font-size="1.67"><defs><symbol id="1"><text y="1.67" class="f">barf</text><text x="4.008" y="1.67" class="g">:</text><text x="5.01" y="1.67" class="h">/home/barf</text><text x="15.03" y="1.67" class="g">$</text></symbol><symbol id="2"><text y="1.67" class="f">barf</text><text x="4.008" y="1.67" class="g">:</text><text x="5.01" y="1.67" class="h">/home/barf</text><text x="15.03" y="1.67" class="g">$</text><text x="17.034" y="1.67" class="g">barf</text><text x="22.044" y="1.67" class="g">copy</text><text x="27.054" y="1.67" class="g">~/local/*</text><text x="37.074" y="1.67" class="g">barf@barf:~/remote</text></symbol><symbol id="3"><text x="1.002" y="1.67" class="g">1.</text><text x="4.008" y="1.67" class="i">Copy</text><path class="j" d="M9.018 0h84v2.171h-84z"/><text x="9.018" y="1.67" class="g">Preparing...</text><text x="94.188" y="1.67" class="g">0%</text><text x="97.194" y="1.67" class="g">|</text><text x="99.198" y="1.67" class="g">0B/s</text><text x="104.208" y="1.67" class="g">|</text><text x="106.212" y="1.67" class="k">0B</text><text x="109.218" y="1.67" class="g">/</text><text x="111.222" y="1.67" class="g">0B</text><text x="114.228" y="1.67" class="g">|</text><text x="116.232" y="1.67" class="k">0</text><text x="118.236" y="1.67" class="g">/</text><text x="120.24" y="1.67" class="g">0</text><text x="122.244" y="1.67" class="g">|</text><text x="124.248" y="1.67" class="g">ETA:</text><text x="129.258" y="1.67" class="l">0s</text></symbol><symbol id="4"><text x="1.002" y="1.67" class="g">1.</text><text x="4.008" y="1.67" class="i">Copy</text><path class="m" d="M9.018 0h26v2.171h-26z"/><text x="9.018" y="1.67" class="n">Syncing medium...</text><path class="j" d="M35.07 0h42v2.171h-42z"/><text x="35.07" y="1.67" class="g"></text><text x="78.156" y="1.67" class="g">37%</text><text x="82.164" y="1.67" class="g">|</text><text x="84.168" y="1.67" class="g">111.0MB/s</text><text x="94.188" y="1.67" class="g">|</text><text x="96.192" y="1.67" class="k">211.5MB</text><text x="104.208" y="1.67" class="g">/</text><text x="106.212" y="1.67" class="g">572.2MB</text><text x="114.228" y="1.67" class="g">|</text><text x="116.232" y="1.67" class="k">1</text><text x="118.236" y="1.67" class="g">/</text><text x="120.24" y="1.67" class="g">2</text><text x="122.244" y="1.67" class="g">|</text><text x="124.248" y="1.67" class="g">ETA:</text><text x="129.258" y="1.67" class="l">3s</text></symbol><symbol id="5"><text x="1.002" y="1.67" class="g">1.</text><text x="4.008" y="1.67" class="i">Copy</text><path class="m" d="M9.018 0h51v2.171h-51z"/><text x="9.018" y="1.67" class="n">Syncing medium...</text><path class="j" d="M60.12 0h17v2.171h-17z"/><text x="60.12" y="1.67" class="g"></text><text x="78.156" y="1.67" class="g">74%</text><text x="82.164" y="1.67" class="g">|</text><text x="84.168" y="1.67" class="g">106.4MB/s</text><text x="94.188" y="1.67" class="g">|</text><text x="96.192" y="1.67" class="k">422.4MB</text><text x="104.208" y="1.67" class="g">/</text><text x="106.212" y="1.67" class="g">572.2MB</text><text x="114.228" y="1.67" class="g">|</text><text x="116.232" y="1.67" class="k">1</text><text x="118.236" y="1.67" class="g">/</text><text x="120.24" y="1.67" class="g">2</text><text x="122.244" y="1.67" class="g">|</text><text x="124.248" y="1.67" class="g">ETA:</text><text x="129.258" y="1.67" class="l">1s</text></symbol><symbol id="6"><text x="1.002" y="1.67" class="g">1.</text><text x="4.008" y="1.67" class="i">Copy</text><path class="m" d="M9.018 0h57v2.171h-57z"/><text x="9.018" y="1.67" class="n">Syncing medium...</text><path class="j" d="M66.132 0h11v2.171h-11z"/><text x="66.132" y="1.67" class="g"></text><text x="78.156" y="1.67" class="g">84%</text><text x="82.164" y="1.67" class="g">|</text><text x="84.168" y="1.67" class="g">107.2MB/s</text><text x="94.188" y="1.67" class="g">|</text><text x="96.192" y="1.67" class="k">476.8MB</text><text x="104.208" y="1.67" class="g">/</text><text x="106.212" y="1.67" class="g">572.2MB</text><text x="114.228" y="1.67" class="g">|</text><text x="116.232" y="1.67" class="k">1</text><text x="118.236" y="1.67" class="g">/</text><text x="120.24" y="1.67" class="g">2</text><text x="122.244" y="1.67" class="g">|</text><text x="124.248" y="1.67" class="g">ETA:</text><text x="129.258" y="1.67" class="l">1s</text></symbol><symbol id="7"><text x="1.002" y="1.67" class="g">1.</text><text x="4.008" y="1.67" class="i">Copy</text><path class="m" d="M9.018 0h65v2.171h-65z"/><text x="9.018" y="1.67" class="n">Syncing small...</text><path class="j" d="M74.148 0h3v2.171h-3z"/><text x="74.148" y="1.67" class="g"></text><text x="78.156" y="1.67" class="g">96%</text><text x="82.164" y="1.67" class="g">|</text><text x="84.168" y="1.67" class="g">107.2MB/s</text><text x="94.188" y="1.67" class="g">|</text><text x="96.192" y="1.67" class="k">546.5MB</text><text x="104.208" y="1.67" class="g">/</text><text x="106.212" y="1.67" class="g">572.2MB</text><text x="114.228" y="1.67" class="g">|</text><text x="116.232" y="1.67" class="k">2</text><text x="118.236" y="1.67" class="g">/</text><text x="120.24" y="1.67" class="g">2</text><text x="122.244" y="1.67" class="g">|</text><text x="124.248" y="1.67" class="g">ETA:</text><text x="129.258" y="1.67" class="l">1s</text></symbol><symbol id="8"><text x="1.002" y="1.67" class="g">1.</text><text x="4.008" y="1.67" class="i">Copy</text><path class="m" d="M9.018 0h67v2.171h-67z"/><text x="9.018" y="1.67" class="n">Syncing small...</text><text x="77.154" y="1.67" class="g">100%</text><text x="82.164" y="1.67" class="g">|</text><text x="84.168" y="1.67" class="g">107.2MB/s</text><text x="94.188" y="1.67" class="g">|</text><text x="96.192" y="1.67" class="k">572.2MB</text><text x="104.208" y="1.67" class="g">/</text><text x="106.212" y="1.67" class="g">572.2MB</text><text x="114.228" y="1.67" class="g">|</text><text x="116.232" y="1.67" class="k">2</text><text x="118.236" y="1.67" class="g">/</text><text x="120.24" y="1.67" class="g">2</text><text x="122.244" y="1.67" class="g">|</text><text x="124.248" y="1.67" class="g">ETA:</text><text x="129.258" y="1.67" class="l">1s</text></symbol><symbol id="9"><text x="1.002" y="1.67" class="g">1.</text><text x="4.008" y="1.67" class="i">Copy</text><path class="m" d="M9.018 0h72v2.171h-72z"/><text x="9.018" y="1.67" class="n">Completed successfully!</text><text x="82.164" y="1.67" class="g">100%</text><text x="87.174" y="1.67" class="g">|</text><text x="89.178" y="1.67" class="g">107.2MB/s</text><text x="99.198" y="1.67" class="g">|</text><text x="101.202" y="1.67" class="k">572.2MB</text><text x="109.218" y="1.67" class="g">/</text><text x="111.222" y="1.67" class="k">572.2MB</text><text x="119.238" y="1.67" class="g">|</text><text x="121.242" y="1.67" class="k">2</text><text x="123.246" y="1.67" class="g">/</text><text x="125.25" y="1.67" class="k">2</text><text x="127.254" y="1.67" class="g">|</text><text x="129.258" y="1.67" class="l">5s</text></symbol><symbol id="10"><text y="1.67" class="f">barf</text><text x="4.008" y="1.67" class="g">:</text><text x="5.01" y="1.67" class="h">/home/barf</text><text x="15.03" y="1.67" class="g">$</text><text x="17.034" y="1.67" class="g">du</text><text x="20.04" y="1.67" class="g">-ach</text><text x="25.05" y="1.67" class="g">*</text><text x="27.054" y="1.67" class="g">~/local</text></symbol><symbol id="11"><text y="1.67" class="g">477M</text><text x="8.016" y="1.67" class="g">medium</text></symbol><symbol id="12"><text y="1.67" class="g">96M</text><text x="8.016" y="1.67" class="g">small</text></symbol><symbol id="13"><text y="1.67" class="g">573M</text><text x="8.016" y="1.67" class="g">total</text></symbol><symbol id="14"><text y="1.67" class="f">barf</text><text x="4.008" y="1.67" class="g">:</text><text x="5.01" y="1.67" class="h">/home/barf</text><text x="15.03" y="1.67" class="g">$</text><text x="17.034" y="1.67" class="g">du</text><text x="20.04" y="1.67" class="g">-ach</text><text x="25.05" y="1.67" class="g">*</text><text x="27.054" y="1.67" class="g">~/remote</text></symbol><symbol id="a"><path fill="transparent" d="M0 0h132v17H0z"/></symbol></defs><path class="a" d="M0 0h132v34.736H0z"/><g style="animation-duration:13.209268s;animation-iteration-count:infinite;animation-name:p;animation-timing-function:steps(1,end)"><svg width="7260"><svg><use xlink:href="#a"/></svg><svg x="132"><use xlink:href="#a"/><use xlink:href="#1" y="2.171"/></svg><svg x="264"><use xlink:href="#a"/><use xlink:href="#2" y="2.171"/></svg><svg x="396"><use xlink:href="#a"/><use xlink:href="#2" y="2.171"/><text x="1.002" y="6.012" class="g">1.</text><text x="4.008" y="6.012" class="i">Copy</text><path class="j" d="M9.018 4.342h84v2.171h-84z"/><text x="9.018" y="6.012" class="g"></text><text x="94.188" y="6.012" class="g">0%</text><text x="97.194" y="6.012" class="g">|</text><text x="99.198" y="6.012" class="g">0B/s</text><text x="104.208" y="6.012" class="g">|</text><text x="106.212" y="6.012" class="k">0B</text><text x="109.218" y="6.012" class="g">/</text><text x="111.222" y="6.012" class="g">0B</text><text x="114.228" y="6.012" class="g">|</text><text x="116.232" y="6.012" class="k">0</text><text x="118.236" y="6.012" class="g">/</text><text x="120.24" y="6.012" class="g">0</text><text x="122.244" y="6.012" class="g">|</text><text x="124.248" y="6.012" class="g">ETA:</text><text x="129.258" y="6.012" class="l">0s</text></svg><svg x="528"><use xlink:href="#a"/><use xlink:href="#2" y="2.171"/></svg><svg x="660"><use xlink:href="#a"/><use xlink:href="#2" y="2.171"/><use xlink:href="#3" y="4.342"/></svg><svg x="792"><use xlink:href="#a"/><use xlink:href="#2" y="2.171"/><use xlink:href="#3" y="4.342"/></svg><svg x="924"><use xlink:href="#a"/><use xlink:href="#2" y="2.171"/></svg><svg x="1056"><use xlink:href="#a"/><use xlink:href="#2" y="2.171"/><text x="1.002" y="6.012" class="g">1.</text><text x="4.008" y="6.012" class="i">Copy</text><path class="j" d="M9.018 4.342h79v2.171h-79z"/><text x="9.018" y="6.012" class="g">Syncing...</text><text x="89.178" y="6.012" class="g">0%</text><text x="92.184" y="6.012" class="g">|</text><text x="94.188" y="6.012" class="g">0B/s</text><text x="99.198" y="6.012" class="g">|</text><text x="101.202" y="6.012" class="k">0B</text><text x="104.208" y="6.012" class="g">/</text><text x="106.212" y="6.012" class="g">572.2MB</text><text x="114.228" y="6.012" class="g">|</text><text x="116.232" y="6.012" class="k">0</text><text x="118.236" y="6.012" class="g">/</text><text x="120.24" y="6.012" class="g">2</text><text x="122.244" y="6.012" class="g">|</text><text x="124.248" y="6.012" class="g">ETA:</text><text x="129.258" y="6.012" class="l">0s</text></svg><svg x="1188"><use xlink:href="#a"/><use xlink:href="#2" y="2.171"/></svg><svg x="1320"><use xlink:href="#a"/><use xlink:href="#2" y="2.171"/><text x="1.002" y="6.012" class="g">1.</text><text x="4.008" y="6.012" class="i">Copy</text><path class="j" d="M9.018 4.342h79v2.171h-79z"/><text x="9.018" y="6.012" class="g">Syncing medium...</text><text x="89.178" y="6.012" class="g">0%</text><text x="92.184" y="6.012" class="g">|</text><text x="94.188" y="6.012" class="g">0B/s</text><text x="99.198" y="6.012" class="g">|</text><text x="101.202" y="6.012" class="k">0B</text><text x="104.208" y="6.012" class="g">/</text><text x="106.212" y="6.012" class="g">572.2MB</text><text x="114.228" y="6.012" class="g">|</text><text x="116.232" y="6.012" class="k">1</text><text x="118.236" y="6.012" class="g">/</text><text x="120.24" y="6.012" class="g">2</text><text x="122.244" y="6.012" class="g">|</text><text x="124.248" y="6.012" class="g">ETA:</text><text x="129.258" y="6.012" class="l">0s</text></svg><svg x="1452"><use xlink:href="#a"/><use xlink:href="#2" y="2.171"/></svg><svg x="1584"><use xlink:href="#a"/><use xlink:href="#2" y="2.171"/><text x="1.002" y="6.012" class="g">1.</text><text x="4.008" y="6.012" class="i">Copy</text><path class="m" d="M9.018 4.342h1v2.171h-1z"/><text x="9.018" y="6.012" class="n">S</text><path class="j" d="M10.02 4.342h74v2.171h-74z"/><text x="10.02" y="6.012" class="g">yncing medium...</text><text x="85.17" y="6.012" class="g">1%</text><text x="88.176" y="6.012" class="g">|</text><text x="90.18" y="6.012" class="g">0B/s</text><text x="95.19" y="6.012" class="g">|</text><text x="97.194" y="6.012" class="k">32.0KB</text><text x="104.208" y="6.012" class="g">/</text><text x="106.212" y="6.012" class="g">572.2MB</text><text x="114.228" y="6.012" class="g">|</text><text x="116.232" y="6.012" class="k">1</text><text x="118.236" y="6.012" class="g">/</text><text x="120.24" y="6.012" class="g">2</text><text x="122.244" y="6.012" class="g">|</text><text x="124.248" y="6.012" class="g">ETA:</text><text x="129.258" y="6.012" class="l">0s</text></svg><svg x="1716"><use xlink:href="#a"/><use xlink:href="#2" y="2.171"/></svg><svg x="1848"><use xlink:href="#a"/><use xlink:href="#2" y="2.171"/><text x="1.002" y="6.012" class="g">1.</text><text x="4.008" y="6.012" class="i">Copy</text><path class="m" d="M9.018 4.342h14v2.171h-14z"/><text x="9.018" y="6.012" class="n">Syncing medium</text><path class="j" d="M23.046 4.342h54v2.171h-54z"/><text x="23.046" y="6.012" class="g">...</text><text x="78.156" y="6.012" class="g">21%</text><text x="82.164" y="6.012" class="g">|</text><text x="84.168" y="6.012" class="g">116.4MB/s</text><text x="94.188" y="6.012" class="g">|</text><text x="96.192" y="6.012" class="k">116.4MB</text><text x="104.208" y="6.012" class="g">/</text><text x="106.212" y="6.012" class="g">572.2MB</text><text x="114.228" y="6.012" class="g">|</text><text x="116.232" y="6.012" class="k">1</text><text x="118.236" y="6.012" class="g">/</text><text x="120.24" y="6.012" class="g">2</text><text x="122.244" y="6.012" class="g">|</text><text x="124.248" y="6.012" class="g">ETA:</text><text x="129.258" y="6.012" class="l">3s</text></svg><svg x="1980"><use xlink:href="#a"/><use xlink:href="#2" y="2.171"/></svg><svg x="2112"><use xlink:href="#a"/><use xlink:href="#2" y="2.171"/><use xlink:href="#4" y="4.342"/></svg><svg x="2244"><use xlink:href="#a"/><use xlink:href="#2" y="2.171"/></svg><svg x="2376"><use xlink:href="#a"/><use xlink:href="#2" y="2.171"/><use xlink:href="#4" y="4.342"/></svg><svg x="2508"><use xlink:href="#a"/><use xlink:href="#2" y="2.171"/></svg><svg x="2640"><use xlink:href="#a"/><use xlink:href="#2" y="2.171"/><text x="1.002" y="6.012" class="g">1.</text><text x="4.008" y="6.012" class="i">Copy</text><path class="m" d="M9.018 4.342h39v2.171h-39z"/><text x="9.018" y="6.012" class="n">Syncing medium...</text><path class="j" d="M48.096 4.342h29v2.171h-29z"/><text x="48.096" y="6.012" class="g"></text><text x="78.156" y="6.012" class="g">57%</text><text x="82.164" y="6.012" class="g">|</text><text x="84.168" y="6.012" class="g">107.2MB/s</text><text x="94.188" y="6.012" class="g">|</text><text x="96.192" y="6.012" class="k">321.8MB</text><text x="104.208" y="6.012" class="g">/</text><text x="106.212" y="6.012" class="g">572.2MB</text><text x="114.228" y="6.012" class="g">|</text><text x="116.232" y="6.012" class="k">1</text><text x="118.236" y="6.012" class="g">/</text><text x="120.24" y="6.012" class="g">2</text><text x="122.244" y="6.012" class="g">|</text><text x="124.248" y="6.012" class="g">ETA:</text><text x="129.258" y="6.012" class="l">2s</text></svg><svg x="2772"><use xlink:href="#a"/><use xlink:href="#2" y="2.171"/></svg><svg x="2904"><use xlink:href="#a"/><use xlink:href="#2" y="2.171"/><use xlink:href="#5" y="4.342"/></svg><svg x="3036"><use xlink:href="#a"/><use xlink:href="#2" y="2.171"/></svg><svg x="3168"><use xlink:href="#a"/><use xlink:href="#2" y="2.171"/><use xlink:href="#5" y="4.342"/></svg><svg x="3300"><use xlink:href="#a"/><use xlink:href="#2" y="2.171"/></svg><svg x="3432"><use xlink:href="#a"/><use xlink:href="#2" y="2.171"/><use xlink:href="#6" y="4.342"/></svg><svg x="3564"><use xlink:href="#a"/><use xlink:href="#2" y="2.171"/><use xlink:href="#6" y="4.342"/></svg><svg x="3696"><use xlink:href="#a"/><use xlink:href="#2" y="2.171"/></svg><svg x="3828"><use xlink:href="#a"/><use xlink:href="#2" y="2.171"/><text x="1.002" y="6.012" class="g">1.</text><text x="4.008" y="6.012" class="i">Copy</text><path class="m" d="M9.018 4.342h57v2.171h-57z"/><text x="9.018" y="6.012" class="n">Syncing small...</text><path class="j" d="M66.132 4.342h11v2.171h-11z"/><text x="66.132" y="6.012" class="g"></text><text x="78.156" y="6.012" class="g">84%</text><text x="82.164" y="6.012" class="g">|</text><text x="84.168" y="6.012" class="g">107.2MB/s</text><text x="94.188" y="6.012" class="g">|</text><text x="96.192" y="6.012" class="k">476.8MB</text><text x="104.208" y="6.012" class="g">/</text><text x="106.212" y="6.012" class="g">572.2MB</text><text x="114.228" y="6.012" class="g">|</text><text x="116.232" y="6.012" class="k">2</text><text x="118.236" y="6.012" class="g">/</text><text x="120.24" y="6.012" class="g">2</text><text x="122.244" y="6.012" class="g">|</text><text x="124.248" y="6.012" class="g">ETA:</text><text x="129.258" y="6.012" class="l">1s</text></svg><svg x="3960"><use xlink:href="#a"/><use xlink:href="#2" y="2.171"/></svg><svg x="4092"><use xlink:href="#a"/><use xlink:href="#2" y="2.171"/></svg><svg x="4224"><use xlink:href="#a"/><use xlink:href="#2" y="2.171"/><text x="1.002" y="6.012" class="g">1.</text><text x="4.008" y="6.012" class="i">Copy</text><path class="m" d="M9.018 4.342h57v2.171h-57z"/><text x="9.018" y="6.012" class="n">Syncing small...</text><path class="j" d="M66.132 4.342h11v2.171h-11z"/><text x="66.132" y="6.012" class="g"></text><text x="78.156" y="6.012" class="g">84%</text><text x="82.164" y="6.012" class="g">|</text><text x="84.168" y="6.012" class="g">107.2MB/s</text><text x="94.188" y="6.012" class="g">|</text><text x="96.192" y="6.012" class="k">476.9MB</text><text x="104.208" y="6.012" class="g">/</text><text x="106.212" y="6.012" class="g">572.2MB</text><text x="114.228" y="6.012" class="g">|</text><text x="116.232" y="6.012" class="k">2</text><text x="118.236" y="6.012" class="g">/</text><text x="120.24" y="6.012" class="g">2</text><text x="122.244" y="6.012" class="g">|</text><text x="124.248" y="6.012" class="g">ETA:</text><text x="129.258" y="6.012" class="l">1s</text></svg><svg x="4356"><use xlink:href="#a"/><use xlink:href="#2" y="2.171"/></svg><svg x="4488"><use xlink:href="#a"/><use xlink:href="#2" y="2.171"/><use xlink:href="#7" y="4.342"/></svg><svg x="4620"><use xlink:href="#a"/><use xlink:href="#2" y="2.171"/><use xlink:href="#7" y="4.342"/></svg><svg x="4752"><use xlink:href="#a"/><use xlink:href="#2" y="2.171"/></svg><svg x="4884"><use xlink:href="#a"/><use xlink:href="#2" y="2.171"/><use xlink:href="#7" y="4.342"/></svg><svg x="5016"><use xlink:href="#a"/><use xlink:href="#2" y="2.171"/></svg><svg x="5148"><use xlink:href="#a"/><use xlink:href="#2" y="2.171"/><use xlink:href="#8" y="4.342"/></svg><svg x="5280"><use xlink:href="#a"/><use xlink:href="#2" y="2.171"/><use xlink:href="#8" y="4.342"/></svg><svg x="5412"><use xlink:href="#a"/><use xlink:href="#2" y="2.171"/><use xlink:href="#8" y="4.342"/></svg><svg x="5544"><use xlink:href="#a"/><use xlink:href="#2" y="2.171"/></svg><svg x="5676"><use xlink:href="#a"/><use xlink:href="#2" y="2.171"/><use xlink:href="#9" y="4.342"/></svg><svg x="5808"><use xlink:href="#a"/><use xlink:href="#2" y="2.171"/><use xlink:href="#9" y="4.342"/><use xlink:href="#1" y="8.684"/></svg><svg x="5940"><use xlink:href="#a"/><use xlink:href="#2" y="2.171"/><use xlink:href="#9" y="4.342"/><use xlink:href="#10" y="8.684"/></svg><svg x="6072"><use xlink:href="#a"/><use xlink:href="#2" y="2.171"/><use xlink:href="#9" y="4.342"/><use xlink:href="#10" y="8.684"/><use xlink:href="#11" y="10.855"/><use xlink:href="#12" y="13.026"/></svg><svg x="6204"><use xlink:href="#a"/><use xlink:href="#2" y="2.171"/><use xlink:href="#9" y="4.342"/><use xlink:href="#10" y="8.684"/><use xlink:href="#11" y="10.855"/><use xlink:href="#12" y="13.026"/><use xlink:href="#13" y="15.197"/></svg><svg x="6336"><use xlink:href="#a"/><use xlink:href="#2" y="2.171"/><use xlink:href="#9" y="4.342"/><use xlink:href="#10" y="8.684"/><use xlink:href="#11" y="10.855"/><use xlink:href="#12" y="13.026"/><use xlink:href="#13" y="15.197"/><use xlink:href="#1" y="19.539"/></svg><svg x="6468"><use xlink:href="#a"/><use xlink:href="#2" y="2.171"/><use xlink:href="#9" y="4.342"/><use xlink:href="#10" y="8.684"/><use xlink:href="#11" y="10.855"/><use xlink:href="#12" y="13.026"/><use xlink:href="#13" y="15.197"/><use xlink:href="#14" y="19.539"/></svg><svg x="6600"><use xlink:href="#a"/><use xlink:href="#2" y="2.171"/><use xlink:href="#9" y="4.342"/><use xlink:href="#10" y="8.684"/><use xlink:href="#11" y="10.855"/><use xlink:href="#12" y="13.026"/><use xlink:href="#13" y="15.197"/><use xlink:href="#14" y="19.539"/><use xlink:href="#11" y="21.71"/><use xlink:href="#12" y="23.881"/></svg><svg x="6732"><use xlink:href="#a"/><use xlink:href="#2" y="2.171"/><use xlink:href="#9" y="4.342"/><use xlink:href="#10" y="8.684"/><use xlink:href="#11" y="10.855"/><use xlink:href="#12" y="13.026"/><use xlink:href="#13" y="15.197"/><use xlink:href="#14" y="19.539"/><use xlink:href="#11" y="21.71"/><use xlink:href="#12" y="23.881"/><use xlink:href="#13" y="26.052"/></svg><svg x="6864"><use xlink:href="#a"/><use xlink:href="#2" y="2.171"/><use xlink:href="#9" y="4.342"/><use xlink:href="#10" y="8.684"/><use xlink:href="#11" y="10.855"/><use xlink:href="#12" y="13.026"/><use xlink:href="#13" y="15.197"/><use xlink:href="#14" y="19.539"/><use xlink:href="#11" y="21.71"/><use xlink:href="#12" y="23.881"/><use xlink:href="#13" y="26.052"/><use xlink:href="#1" y="30.394"/></svg><svg x="6996"><use xlink:href="#a"/><use xlink:href="#2" y="2.171"/><use xlink:href="#9" y="4.342"/><use xlink:href="#10" y="8.684"/><use xlink:href="#11" y="10.855"/><use xlink:href="#12" y="13.026"/><use xlink:href="#13" y="15.197"/><use xlink:href="#14" y="19.539"/><use xlink:href="#11" y="21.71"/><use xlink:href="#12" y="23.881"/><use xlink:href="#13" y="26.052"/><use xlink:href="#1" y="30.394"/></svg><svg x="7128"><use xlink:href="#a"/><use xlink:href="#2" y="2.171"/><use xlink:href="#9" y="4.342"/><use xlink:href="#10" y="8.684"/><use xlink:href="#11" y="10.855"/><use xlink:href="#12" y="13.026"/><use xlink:href="#13" y="15.197"/><use xlink:href="#14" y="19.539"/><use xlink:href="#11" y="21.71"/><use xlink:href="#12" y="23.881"/><use xlink:href="#13" y="26.052"/><use xlink:href="#1" y="30.394"/></svg></svg></g></g></svg></svg>