<svg xmlns="http://www.w3.org/2000/svg" xmlns:xlink="http://www.w3.org/1999/xlink" width="1360" height="559.33"><rect width="1360" height="559.33" rx="5" ry="5" class="a"/><svg y="0%" x="0%"><circle cx="20" cy="20" r="6" fill="#ff5f58"/><circle cx="40" cy="20" r="6" fill="#ffbd2e"/><circle cx="60" cy="20" r="6" fill="#18c132"/></svg><svg height="499.33" viewBox="0 0 132 49.933" width="1320" x="15" xmlns="http://www.w3.org/2000/svg" xmlns:xlink="http://www.w3.org/1999/xlink" y="50"><style>@keyframes p{0%{transform:translateX(0)}.03%{transform:translateX(-132px)}1.07%{transform:translateX(-264px)}3.67%{transform:translateX(-396px)}3.69%{transform:translateX(-924px)}3.72%{transform:translateX(-1056px)}8.86%{transform:translateX(-1452px)}14.01%{transform:translateX(-1584px)}14.02%{transform:translateX(-2244px)}19.16%{transform:translateX(-2640px)}19.17%{transform:translateX(-2772px)}19.87%{transform:translateX(-3168px)}20.17%{transform:translateX(-3564px)}20.18%{transform:translateX(-3960px)}24.46%{transform:translateX(-4488px)}29.61%{transform:translateX(-4752px)}34.76%{transform:translateX(-4884px)}34.77%{transform:translateX(-5280px)}39.92%{transform:translateX(-6072px)}45.07%{transform:translateX(-6468px)}47.47%{transform:translateX(-6600px)}47.48%{transform:translateX(-6732px)}47.76%{transform:translateX(-6864px)}47.77%{transform:translateX(-7788px)}50.22%{transform:translateX(-8184px)}55.38%{transform:translateX(-8448px)}55.78%{transform:translateX(-9768px)}57.71%{transform:translateX(-10164px)}57.79%{transform:translateX(-10428px)}57.8%{transform:translateX(-10560px)}58.01%{transform:translateX(-10692px)}59.05%{transform:translateX(-10824px)}59.75%{transform:translateX(-11220px)}60.79%{transform:translateX(-11484px)}60.8%{transform:translateX(-11748px)}61.83%{transform:translateX(-11880px)}67.95%{transform:translateX(-12144px)}67.98%{transform:translateX(-12408px)}68%{transform:translateX(-12540px)}69.04%{transform:translateX(-12672px)}to{transform:translateX(-12804px)}}.a{fill:#282d35}.f,.g,.h,.i{white-space:pre}.f{fill:#a8cc8c;font-weight:700}.g,.h,.i{fill:#b9c0cb}.h,.i{fill:#71bef2;font-weight:700}.i{fill:#d290e3}.j{fill:#303030}.k,.l{fill:#a8cc8c;white-space:pre}.l{fill:#b9c0cb;font-weight:700}.m{fill:#a8cc8c}.n{white-space:pre}</style><g font-family="Monaco,Consolas,Menlo,'Bitstream Vera Sans Mono','Powerline Symbols',monospace" font-size="1.67"><defs><symbol id="1"><text y="1.67" class="f">barf</text><text x="4.008" y="1.67" class="g">:</text><text x="5.01" y="1.67" class="h">/home/barf</text><text x="15.03" y="1.67" class="g">$</text></symbol><symbol id="2"><text y="1.67" class="f">barf</text><text x="4.008" y="1.67" class="g">:</text><text x="5.01" y="1.67" class="h">/home/barf</text><text x="15.03" y="1.67" class="g">$</text><text x="17.034" y="1.67" class="g">barf</text><text x="22.044" y="1.67" class="g">copy</text><text x="27.054" y="1.67" class="g">~/local/*</text><text x="37.074" y="1.67" class="g">~/remote/</text></symbol><symbol id="3"><text x="1.002" y="1.67" class="g">1.</text><text x="4.008" y="1.67" class="i">Copy</text><path class="j" d="M9.018 0h81v2.171h-81z"/><text x="9.018" y="1.67" class="g">Processing...</text><text x="91.182" y="1.67" class="g">0%</text><text x="94.188" y="1.67" class="g">|</text><text x="96.192" y="1.67" class="g">0B/s</text><text x="101.202" y="1.67" class="g">|</text><text x="103.206" y="1.67" class="k">0B</text><text x="106.212" y="1.67" class="g">/</text><text x="108.216" y="1.67" class="g">2.9GB</text><text x="114.228" y="1.67" class="g">|</text><text x="116.232" y="1.67" class="k">0</text><text x="118.236" y="1.67" class="g">/</text><text x="120.24" y="1.67" class="g">4</text><text x="122.244" y="1.67" class="g">|</text><text x="124.248" y="1.67" class="g">ETA:</text><text x="129.258" y="1.67" class="l">0s</text></symbol><symbol id="4"><text x="1.002" y="1.67" class="g">1.</text><text x="4.008" y="1.67" class="i">Copy</text><path class="m" d="M9.018 0h8v2.171h-8z"/><text x="9.018" y="1.67" class="n">Processi</text><path class="j" d="M17.034 0h62v2.171h-62z"/><text x="17.034" y="1.67" class="g">ng big...</text><text x="80.16" y="1.67" class="g">11%</text><text x="84.168" y="1.67" class="g">|</text><text x="86.172" y="1.67" class="g">304.0MB/s</text><text x="96.192" y="1.67" class="g">|</text><text x="98.196" y="1.67" class="k">304.0MB</text><text x="106.212" y="1.67" class="g">/</text><text x="108.216" y="1.67" class="g">2.9GB</text><text x="114.228" y="1.67" class="g">|</text><text x="116.232" y="1.67" class="k">1</text><text x="118.236" y="1.67" class="g">/</text><text x="120.24" y="1.67" class="g">4</text><text x="122.244" y="1.67" class="g">|</text><text x="124.248" y="1.67" class="g">ETA:</text><text x="129.258" y="1.67" class="l">8s</text></symbol><symbol id="5"><text x="1.002" y="1.67" class="g">1.</text><text x="4.008" y="1.67" class="i">Copy</text><path class="m" d="M9.018 0h15v2.171h-15z"/><text x="9.018" y="1.67" class="n">Processing big.</text><path class="j" d="M24.048 0h55v2.171h-55z"/><text x="24.048" y="1.67" class="g">..</text><text x="80.16" y="1.67" class="g">21%</text><text x="84.168" y="1.67" class="g">|</text><text x="86.172" y="1.67" class="g">306.0MB/s</text><text x="96.192" y="1.67" class="g">|</text><text x="98.196" y="1.67" class="k">615.8MB</text><text x="106.212" y="1.67" class="g">/</text><text x="108.216" y="1.67" class="g">2.9GB</text><text x="114.228" y="1.67" class="g">|</text><text x="116.232" y="1.67" class="k">1</text><text x="118.236" y="1.67" class="g">/</text><text x="120.24" y="1.67" class="g">4</text><text x="122.244" y="1.67" class="g">|</text><text x="124.248" y="1.67" class="g">ETA:</text><text x="129.258" y="1.67" class="l">7s</text></symbol><symbol id="6"><text x="1.002" y="1.67" class="g">1.</text><text x="4.008" y="1.67" class="i">Copy</text><path class="m" d="M9.018 0h22v2.171h-22z"/><text x="9.018" y="1.67" class="n">Processing big...</text><path class="j" d="M31.062 0h48v2.171h-48z"/><text x="31.062" y="1.67" class="g"></text><text x="80.16" y="1.67" class="g">31%</text><text x="84.168" y="1.67" class="g">|</text><text x="86.172" y="1.67" class="g">304.4MB/s</text><text x="96.192" y="1.67" class="g">|</text><text x="98.196" y="1.67" class="k">912.7MB</text><text x="106.212" y="1.67" class="g">/</text><text x="108.216" y="1.67" class="g">2.9GB</text><text x="114.228" y="1.67" class="g">|</text><text x="116.232" y="1.67" class="k">1</text><text x="118.236" y="1.67" class="g">/</text><text x="120.24" y="1.67" class="g">4</text><text x="122.244" y="1.67" class="g">|</text><text x="124.248" y="1.67" class="g">ETA:</text><text x="129.258" y="1.67" class="l">6s</text></symbol><symbol id="7"><text x="1.002" y="1.67" class="g">1.</text><text x="4.008" y="1.67" class="i">Copy</text><path class="m" d="M9.018 0h23v2.171h-23z"/><text x="9.018" y="1.67" class="n">Processing huge...</text><path class="j" d="M32.064 0h47v2.171h-47z"/><text x="32.064" y="1.67" class="g"></text><text x="80.16" y="1.67" class="g">33%</text><text x="84.168" y="1.67" class="g">|</text><text x="86.172" y="1.67" class="g">304.4MB/s</text><text x="96.192" y="1.67" class="g">|</text><text x="98.196" y="1.67" class="k">953.7MB</text><text x="106.212" y="1.67" class="g">/</text><text x="108.216" y="1.67" class="g">2.9GB</text><text x="114.228" y="1.67" class="g">|</text><text x="116.232" y="1.67" class="k">2</text><text x="118.236" y="1.67" class="g">/</text><text x="120.24" y="1.67" class="g">4</text><text x="122.244" y="1.67" class="g">|</text><text x="124.248" y="1.67" class="g">ETA:</text><text x="129.258" y="1.67" class="l">6s</text></symbol><symbol id="8"><text x="1.002" y="1.67" class="g">1.</text><text x="4.008" y="1.67" class="i">Copy</text><path class="m" d="M9.018 0h36v2.171h-36z"/><text x="9.018" y="1.67" class="n">Processing huge...</text><path class="j" d="M45.09 0h36v2.171h-36z"/><text x="45.09" y="1.67" class="g"></text><text x="82.164" y="1.67" class="g">50%</text><text x="86.172" y="1.67" class="g">|</text><text x="88.176" y="1.67" class="g">240.5MB/s</text><text x="98.196" y="1.67" class="g">|</text><text x="100.2" y="1.67" class="k">1.4GB</text><text x="106.212" y="1.67" class="g">/</text><text x="108.216" y="1.67" class="g">2.9GB</text><text x="114.228" y="1.67" class="g">|</text><text x="116.232" y="1.67" class="k">2</text><text x="118.236" y="1.67" class="g">/</text><text x="120.24" y="1.67" class="g">4</text><text x="122.244" y="1.67" class="g">|</text><text x="124.248" y="1.67" class="g">ETA:</text><text x="129.258" y="1.67" class="l">6s</text></symbol><symbol id="9"><text x="1.002" y="1.67" class="g">1.</text><text x="4.008" y="1.67" class="i">Copy</text><path class="m" d="M9.018 0h41v2.171h-41z"/><text x="9.018" y="1.67" class="n">Processing huge...</text><path class="j" d="M50.1 0h31v2.171h-31z"/><text x="50.1" y="1.67" class="g"></text><text x="82.164" y="1.67" class="g">57%</text><text x="86.172" y="1.67" class="g">|</text><text x="88.176" y="1.67" class="g">234.2MB/s</text><text x="98.196" y="1.67" class="g">|</text><text x="100.2" y="1.67" class="k">1.6GB</text><text x="106.212" y="1.67" class="g">/</text><text x="108.216" y="1.67" class="g">2.9GB</text><text x="114.228" y="1.67" class="g">|</text><text x="116.232" y="1.67" class="k">2</text><text x="118.236" y="1.67" class="g">/</text><text x="120.24" y="1.67" class="g">4</text><text x="122.244" y="1.67" class="g">|</text><text x="124.248" y="1.67" class="g">ETA:</text><text x="129.258" y="1.67" class="l">5s</text></symbol><symbol id="10"><text x="1.002" y="1.67" class="g">1.</text><text x="4.008" y="1.67" class="i">Copy</text><path class="m" d="M9.018 0h55v2.171h-55z"/><text x="9.018" y="1.67" class="n">Processing huge...</text><path class="j" d="M64.128 0h17v2.171h-17z"/><text x="64.128" y="1.67" class="g"></text><text x="82.164" y="1.67" class="g">77%</text><text x="86.172" y="1.67" class="g">|</text><text x="88.176" y="1.67" class="g">248.3MB/s</text><text x="98.196" y="1.67" class="g">|</text><text x="100.2" y="1.67" class="k">2.2GB</text><text x="106.212" y="1.67" class="g">/</text><text x="108.216" y="1.67" class="g">2.9GB</text><text x="114.228" y="1.67" class="g">|</text><text x="116.232" y="1.67" class="k">2</text><text x="118.236" y="1.67" class="g">/</text><text x="120.24" y="1.67" class="g">4</text><text x="122.244" y="1.67" class="g">|</text><text x="124.248" y="1.67" class="g">ETA:</text><text x="129.258" y="1.67" class="l">2s</text></symbol><symbol id="11"><text x="1.002" y="1.67" class="g">1.</text><text x="4.008" y="1.67" class="i">Copy</text><path class="m" d="M9.018 0h59v2.171h-59z"/><text x="9.018" y="1.67" class="n">Processing huge...</text><path class="j" d="M68.136 0h13v2.171h-13z"/><text x="68.136" y="1.67" class="g"></text><text x="82.164" y="1.67" class="g">81%</text><text x="86.172" y="1.67" class="g">|</text><text x="88.176" y="1.67" class="g">254.5MB/s</text><text x="98.196" y="1.67" class="g">|</text><text x="100.2" y="1.67" class="k">2.3GB</text><text x="106.212" y="1.67" class="g">/</text><text x="108.216" y="1.67" class="g">2.9GB</text><text x="114.228" y="1.67" class="g">|</text><text x="116.232" y="1.67" class="k">2</text><text x="118.236" y="1.67" class="g">/</text><text x="120.24" y="1.67" class="g">4</text><text x="122.244" y="1.67" class="g">|</text><text x="124.248" y="1.67" class="g">ETA:</text><text x="129.258" y="1.67" class="l">2s</text></symbol><symbol id="12"><text x="1.002" y="1.67" class="g">1.</text><text x="4.008" y="1.67" class="i">Copy</text><path class="m" d="M9.018 0h59v2.171h-59z"/><text x="9.018" y="1.67" class="n">Processing medium...</text><path class="j" d="M68.136 0h13v2.171h-13z"/><text x="68.136" y="1.67" class="g"></text><text x="82.164" y="1.67" class="g">81%</text><text x="86.172" y="1.67" class="g">|</text><text x="88.176" y="1.67" class="g">254.5MB/s</text><text x="98.196" y="1.67" class="g">|</text><text x="100.2" y="1.67" class="k">2.3GB</text><text x="106.212" y="1.67" class="g">/</text><text x="108.216" y="1.67" class="g">2.9GB</text><text x="114.228" y="1.67" class="g">|</text><text x="116.232" y="1.67" class="k">3</text><text x="118.236" y="1.67" class="g">/</text><text x="120.24" y="1.67" class="g">4</text><text x="122.244" y="1.67" class="g">|</text><text x="124.248" y="1.67" class="g">ETA:</text><text x="129.258" y="1.67" class="l">2s</text></symbol><symbol id="13"><text x="1.002" y="1.67" class="g">1.</text><text x="4.008" y="1.67" class="i">Copy</text><path class="m" d="M9.018 0h70v2.171h-70z"/><text x="9.018" y="1.67" class="n">Processing medium...</text><path class="j" d="M79.158 0h2v2.171h-2z"/><text x="79.158" y="1.67" class="g"></text><text x="82.164" y="1.67" class="g">97%</text><text x="86.172" y="1.67" class="g">|</text><text x="88.176" y="1.67" class="g">195.8MB/s</text><text x="98.196" y="1.67" class="g">|</text><text x="100.2" y="1.67" class="k">2.8GB</text><text x="106.212" y="1.67" class="g">/</text><text x="108.216" y="1.67" class="g">2.9GB</text><text x="114.228" y="1.67" class="g">|</text><text x="116.232" y="1.67" class="k">3</text><text x="118.236" y="1.67" class="g">/</text><text x="120.24" y="1.67" class="g">4</text><text x="122.244" y="1.67" class="g">|</text><text x="124.248" y="1.67" class="g">ETA:</text><text x="129.258" y="1.67" class="l">1s</text></symbol><symbol id="14"><text x="1.002" y="1.67" class="g">1.</text><text x="4.008" y="1.67" class="i">Copy</text><path class="m" d="M9.018 0h70v2.171h-70z"/><text x="9.018" y="1.67" class="n">Processing small...</text><path class="j" d="M79.158 0h2v2.171h-2z"/><text x="79.158" y="1.67" class="g"></text><text x="82.164" y="1.67" class="g">97%</text><text x="86.172" y="1.67" class="g">|</text><text x="88.176" y="1.67" class="g">195.8MB/s</text><text x="98.196" y="1.67" class="g">|</text><text x="100.2" y="1.67" class="k">2.8GB</text><text x="106.212" y="1.67" class="g">/</text><text x="108.216" y="1.67" class="g">2.9GB</text><text x="114.228" y="1.67" class="g">|</text><text x="116.232" y="1.67" class="k">4</text><text x="118.236" y="1.67" class="g">/</text><text x="120.24" y="1.67" class="g">4</text><text x="122.244" y="1.67" class="g">|</text><text x="124.248" y="1.67" class="g">ETA:</text><text x="129.258" y="1.67" class="l">1s</text></symbol><symbol id="15"><text x="1.002" y="1.67" class="g">1.</text><text x="4.008" y="1.67" class="i">Copy</text><path class="m" d="M9.018 0h87v2.171h-87z"/><text x="9.018" y="1.67" class="n">Finished successfully!</text><text x="97.194" y="1.67" class="g">100%</text><text x="102.204" y="1.67" class="g">|</text><text x="104.208" y="1.67" class="g">295.6MB/s</text><text x="114.228" y="1.67" class="g">|</text><text x="116.232" y="1.67" class="k">2.9GB</text><text x="122.244" y="1.67" class="g">|</text><text x="124.248" y="1.67" class="k">4</text><text x="126.252" y="1.67" class="g">|</text><text x="128.256" y="1.67" class="l">10s</text></symbol><symbol id="16"><text y="1.67" class="f">barf</text><text x="4.008" y="1.67" class="g">:</text><text x="5.01" y="1.67" class="h">/home/barf</text><text x="15.03" y="1.67" class="g">$</text><text x="17.034" y="1.67" class="g">du</text><text x="20.04" y="1.67" class="g">-ach</text><text x="25.05" y="1.67" class="g">*</text><text x="27.054" y="1.67" class="g">~/local</text></symbol><symbol id="17"><text y="1.67" class="g">954M</text><text x="8.016" y="1.67" class="g">big</text></symbol><symbol id="18"><text y="1.67" class="g">1,4G</text><text x="8.016" y="1.67" class="g">huge</text></symbol><symbol id="19"><text y="1.67" class="g">477M</text><text x="8.016" y="1.67" class="g">medium</text></symbol><symbol id="20"><text y="1.67" class="g">96M</text><text x="8.016" y="1.67" class="g">small</text></symbol><symbol id="21"><text y="1.67" class="g">2,9G</text><text x="8.016" y="1.67" class="g">total</text></symbol><symbol id="22"><text y="1.67" class="f">barf</text><text x="4.008" y="1.67" class="g">:</text><text x="5.01" y="1.67" class="h">/home/barf</text><text x="15.03" y="1.67" class="g">$</text><text x="17.034" y="1.67" class="g">du</text><text x="20.04" y="1.67" class="g">-ach</text><text x="25.05" y="1.67" class="g">*</text><text x="27.054" y="1.67" class="g">~/remote</text></symbol><symbol id="23"><text x="1.002" y="1.67" class="g">1.</text><text x="4.008" y="1.67" class="i">Copy</text><path class="m" d="M9.018 0h86v2.171h-86z"/><text x="9.018" y="1.67" class="n">No work needed!</text><text x="96.192" y="1.67" class="g">100%</text><text x="101.202" y="1.67" class="g">|</text><text x="103.206" y="1.67" class="g">0B/s</text><text x="108.216" y="1.67" class="g">|</text><text x="110.22" y="1.67" class="k">0B</text><text x="112.224" y="1.67" class="g">(</text><text x="113.226" y="1.67" class="k">2.9GB</text><text x="118.236" y="1.67" class="g">)</text><text x="120.24" y="1.67" class="g">|</text><text x="122.244" y="1.67" class="k">0</text><text x="123.246" y="1.67" class="g">(</text><text x="124.248" y="1.67" class="k">4</text><text x="125.25" y="1.67" class="g">)</text><text x="127.254" y="1.67" class="g">|</text><text x="129.258" y="1.67" class="l">0s</text></symbol><symbol id="a"><path fill="transparent" d="M0 0h132v24H0z"/></symbol></defs><path class="a" d="M0 0h132v49.933H0z"/><g style="animation-duration:19.38707s;animation-iteration-count:infinite;animation-name:p;animation-timing-function:steps(1,end)"><svg width="12936"><svg><use xlink:href="#a"/></svg><svg x="132"><use xlink:href="#a"/><use xlink:href="#1" y="2.171"/></svg><svg x="264"><use xlink:href="#a"/><use xlink:href="#2" y="2.171"/></svg><svg x="396"><use xlink:href="#a"/><use xlink:href="#2" y="2.171"/><text x="1.002" y="6.012" class="g">1.</text><text x="4.008" y="6.012" class="i">Copy</text><path class="j" d="M9.018 4.342h84v2.171h-84z"/><text x="9.018" y="6.012" class="g"></text><text x="94.188" y="6.012" class="g">0%</text><text x="97.194" y="6.012" class="g">|</text><text x="99.198" y="6.012" class="g">0B/s</text><text x="104.208" y="6.012" class="g">|</text><text x="106.212" y="6.012" class="k">0B</text><text x="109.218" y="6.012" class="g">/</text><text x="111.222" y="6.012" class="g">0B</text><text x="114.228" y="6.012" class="g">|</text><text x="116.232" y="6.012" class="k">0</text><text x="118.236" y="6.012" class="g">/</text><text x="120.24" y="6.012" class="g">0</text><text x="122.244" y="6.012" class="g">|</text><text x="124.248" y="6.012" class="g">ETA:</text><text x="129.258" y="6.012" class="l">0s</text></svg><svg x="528"><use xlink:href="#a"/><use xlink:href="#2" y="2.171"/></svg><svg x="660"><use xlink:href="#a"/><use xlink:href="#2" y="2.171"/><use xlink:href="#3" y="4.342"/></svg><svg x="792"><use xlink:href="#a"/><use xlink:href="#2" y="2.171"/></svg><svg x="924"><use xlink:href="#a"/><use xlink:href="#2" y="2.171"/><use xlink:href="#3" y="4.342"/></svg><svg x="1056"><use xlink:href="#a"/><use xlink:href="#2" y="2.171"/><text x="1.002" y="6.012" class="g">1.</text><text x="4.008" y="6.012" class="i">Copy</text><path class="j" d="M9.018 4.342h81v2.171h-81z"/><text x="9.018" y="6.012" class="g">Processing big...</text><text x="91.182" y="6.012" class="g">0%</text><text x="94.188" y="6.012" class="g">|</text><text x="96.192" y="6.012" class="g">0B/s</text><text x="101.202" y="6.012" class="g">|</text><text x="103.206" y="6.012" class="k">0B</text><text x="106.212" y="6.012" class="g">/</text><text x="108.216" y="6.012" class="g">2.9GB</text><text x="114.228" y="6.012" class="g">|</text><text x="116.232" y="6.012" class="k">1</text><text x="118.236" y="6.012" class="g">/</text><text x="120.24" y="6.012" class="g">4</text><text x="122.244" y="6.012" class="g">|</text><text x="124.248" y="6.012" class="g">ETA:</text><text x="129.258" y="6.012" class="l">0s</text></svg><svg x="1188"><use xlink:href="#a"/><use xlink:href="#2" y="2.171"/></svg><svg x="1320"><use xlink:href="#a"/><use xlink:href="#2" y="2.171"/></svg><svg x="1452"><use xlink:href="#a"/><use xlink:href="#2" y="2.171"/><text x="1.002" y="6.012" class="g">1.</text><text x="4.008" y="6.012" class="i">Copy</text><path class="m" d="M9.018 4.342h1v2.171h-1z"/><text x="9.018" y="6.012" class="n">P</text><path class="j" d="M10.02 4.342h76v2.171h-76z"/><text x="10.02" y="6.012" class="g">rocessing big...</text><text x="87.174" y="6.012" class="g">1%</text><text x="90.18" y="6.012" class="g">|</text><text x="92.184" y="6.012" class="g">0B/s</text><text x="97.194" y="6.012" class="g">|</text><text x="99.198" y="6.012" class="k">32.0KB</text><text x="106.212" y="6.012" class="g">/</text><text x="108.216" y="6.012" class="g">2.9GB</text><text x="114.228" y="6.012" class="g">|</text><text x="116.232" y="6.012" class="k">1</text><text x="118.236" y="6.012" class="g">/</text><text x="120.24" y="6.012" class="g">4</text><text x="122.244" y="6.012" class="g">|</text><text x="124.248" y="6.012" class="g">ETA:</text><text x="129.258" y="6.012" class="l">0s</text></svg><svg x="1584"><use xlink:href="#a"/><use xlink:href="#2" y="2.171"/></svg><svg x="1716"><use xlink:href="#a"/><use xlink:href="#2" y="2.171"/><use xlink:href="#4" y="4.342"/></svg><svg x="1848"><use xlink:href="#a"/><use xlink:href="#2" y="2.171"/><use xlink:href="#4" y="4.342"/></svg><svg x="1980"><use xlink:href="#a"/><use xlink:href="#2" y="2.171"/></svg><svg x="2112"><use xlink:href="#a"/><use xlink:href="#2" y="2.171"/><use xlink:href="#4" y="4.342"/></svg><svg x="2244"><use xlink:href="#a"/><use xlink:href="#2" y="2.171"/><use xlink:href="#4" y="4.342"/></svg><svg x="2376"><use xlink:href="#a"/><use xlink:href="#2" y="2.171"/></svg><svg x="2508"><use xlink:href="#a"/><use xlink:href="#2" y="2.171"/><use xlink:href="#5" y="4.342"/></svg><svg x="2640"><use xlink:href="#a"/><use xlink:href="#2" y="2.171"/><use xlink:href="#5" y="4.342"/></svg><svg x="2772"><use xlink:href="#a"/><use xlink:href="#2" y="2.171"/><use xlink:href="#5" y="4.342"/></svg><svg x="2904"><use xlink:href="#a"/><use xlink:href="#2" y="2.171"/><use xlink:href="#5" y="4.342"/></svg><svg x="3036"><use xlink:href="#a"/><use xlink:href="#2" y="2.171"/></svg><svg x="3168"><use xlink:href="#a"/><use xlink:href="#2" y="2.171"/><use xlink:href="#6" y="4.342"/></svg><svg x="3300"><use xlink:href="#a"/><use xlink:href="#2" y="2.171"/><use xlink:href="#6" y="4.342"/></svg><svg x="3432"><use xlink:href="#a"/><use xlink:href="#2" y="2.171"/></svg><svg x="3564"><use xlink:href="#a"/><use xlink:href="#2" y="2.171"/><text x="1.002" y="6.012" class="g">1.</text><text x="4.008" y="6.012" class="i">Copy</text><path class="m" d="M9.018 4.342h23v2.171h-23z"/><text x="9.018" y="6.012" class="n">Processing big...</text><path class="j" d="M32.064 4.342h47v2.171h-47z"/><text x="32.064" y="6.012" class="g"></text><text x="80.16" y="6.012" class="g">33%</text><text x="84.168" y="6.012" class="g">|</text><text x="86.172" y="6.012" class="g">304.4MB/s</text><text x="96.192" y="6.012" class="g">|</text><text x="98.196" y="6.012" class="k">953.7MB</text><text x="106.212" y="6.012" class="g">/</text><text x="108.216" y="6.012" class="g">2.9GB</text><text x="114.228" y="6.012" class="g">|</text><text x="116.232" y="6.012" class="k">1</text><text x="118.236" y="6.012" class="g">/</text><text x="120.24" y="6.012" class="g">4</text><text x="122.244" y="6.012" class="g">|</text><text x="124.248" y="6.012" class="g">ETA:</text><text x="129.258" y="6.012" class="l">6s</text></svg><svg x="3696"><use xlink:href="#a"/><use xlink:href="#2" y="2.171"/><use xlink:href="#7" y="4.342"/></svg><svg x="3828"><use xlink:href="#a"/><use xlink:href="#2" y="2.171"/></svg><svg x="3960"><use xlink:href="#a"/><use xlink:href="#2" y="2.171"/><use xlink:href="#7" y="4.342"/></svg><svg x="4092"><use xlink:href="#a"/><use xlink:href="#2" y="2.171"/></svg><svg x="4224"><use xlink:href="#a"/><use xlink:href="#2" y="2.171"/><use xlink:href="#7" y="4.342"/></svg><svg x="4356"><use xlink:href="#a"/><use xlink:href="#2" y="2.171"/></svg><svg x="4488"><use xlink:href="#a"/><use xlink:href="#2" y="2.171"/><use xlink:href="#7" y="4.342"/></svg><svg x="4620"><use xlink:href="#a"/><use xlink:href="#2" y="2.171"/></svg><svg x="4752"><use xlink:href="#a"/><use xlink:href="#2" y="2.171"/><text x="1.002" y="6.012" class="g">1.</text><text x="4.008" y="6.012" class="i">Copy</text><path class="m" d="M9.018 4.342h30v2.171h-30z"/><text x="9.018" y="6.012" class="n">Processing huge...</text><path class="j" d="M39.078 4.342h42v2.171h-42z"/><text x="39.078" y="6.012" class="g"></text><text x="82.164" y="6.012" class="g">41%</text><text x="86.172" y="6.012" class="g">|</text><text x="88.176" y="6.012" class="g">268.6MB/s</text><text x="98.196" y="6.012" class="g">|</text><text x="100.2" y="6.012" class="k">1.2GB</text><text x="106.212" y="6.012" class="g">/</text><text x="108.216" y="6.012" class="g">2.9GB</text><text x="114.228" y="6.012" class="g">|</text><text x="116.232" y="6.012" class="k">2</text><text x="118.236" y="6.012" class="g">/</text><text x="120.24" y="6.012" class="g">4</text><text x="122.244" y="6.012" class="g">|</text><text x="124.248" y="6.012" class="g">ETA:</text><text x="129.258" y="6.012" class="l">6s</text></svg><svg x="4884"><use xlink:href="#a"/><use xlink:href="#2" y="2.171"/></svg><svg x="5016"><use xlink:href="#a"/><use xlink:href="#2" y="2.171"/><use xlink:href="#8" y="4.342"/></svg><svg x="5148"><use xlink:href="#a"/><use xlink:href="#2" y="2.171"/></svg><svg x="5280"><use xlink:href="#a"/><use xlink:href="#2" y="2.171"/><use xlink:href="#8" y="4.342"/></svg><svg x="5412"><use xlink:href="#a"/><use xlink:href="#2" y="2.171"/></svg><svg x="5544"><use xlink:href="#a"/><use xlink:href="#2" y="2.171"/><use xlink:href="#9" y="4.342"/></svg><svg x="5676"><use xlink:href="#a"/><use xlink:href="#2" y="2.171"/><use xlink:href="#9" y="4.342"/></svg><svg x="5808"><use xlink:href="#a"/><use xlink:href="#2" y="2.171"/><use xlink:href="#9" y="4.342"/></svg><svg x="5940"><use xlink:href="#a"/><use xlink:href="#2" y="2.171"/></svg><svg x="6072"><use xlink:href="#a"/><use xlink:href="#2" y="2.171"/><use xlink:href="#9" y="4.342"/></svg><svg x="6204"><use xlink:href="#a"/><use xlink:href="#2" y="2.171"/></svg><svg x="6336"><use xlink:href="#a"/><use xlink:href="#2" y="2.171"/></svg><svg x="6468"><use xlink:href="#a"/><use xlink:href="#2" y="2.171"/><text x="1.002" y="6.012" class="g">1.</text><text x="4.008" y="6.012" class="i">Copy</text><path class="m" d="M9.018 4.342h48v2.171h-48z"/><text x="9.018" y="6.012" class="n">Processing huge...</text><path class="j" d="M57.114 4.342h24v2.171h-24z"/><text x="57.114" y="6.012" class="g"></text><text x="82.164" y="6.012" class="g">67%</text><text x="86.172" y="6.012" class="g">|</text><text x="88.176" y="6.012" class="g">241.8MB/s</text><text x="98.196" y="6.012" class="g">|</text><text x="100.2" y="6.012" class="k">1.9GB</text><text x="106.212" y="6.012" class="g">/</text><text x="108.216" y="6.012" class="g">2.9GB</text><text x="114.228" y="6.012" class="g">|</text><text x="116.232" y="6.012" class="k">2</text><text x="118.236" y="6.012" class="g">/</text><text x="120.24" y="6.012" class="g">4</text><text x="122.244" y="6.012" class="g">|</text><text x="124.248" y="6.012" class="g">ETA:</text><text x="129.258" y="6.012" class="l">4s</text></svg><svg x="6600"><use xlink:href="#a"/><use xlink:href="#2" y="2.171"/></svg><svg x="6732"><use xlink:href="#a"/><use xlink:href="#2" y="2.171"/><use xlink:href="#10" y="4.342"/></svg><svg x="6864"><use xlink:href="#a"/><use xlink:href="#2" y="2.171"/><use xlink:href="#10" y="4.342"/></svg><svg x="6996"><use xlink:href="#a"/><use xlink:href="#2" y="2.171"/></svg><svg x="7128"><use xlink:href="#a"/><use xlink:href="#2" y="2.171"/><use xlink:href="#11" y="4.342"/></svg><svg x="7260"><use xlink:href="#a"/><use xlink:href="#2" y="2.171"/><use xlink:href="#11" y="4.342"/></svg><svg x="7392"><use xlink:href="#a"/><use xlink:href="#2" y="2.171"/></svg><svg x="7524"><use xlink:href="#a"/><use xlink:href="#2" y="2.171"/><use xlink:href="#11" y="4.342"/></svg><svg x="7656"><use xlink:href="#a"/><use xlink:href="#2" y="2.171"/></svg><svg x="7788"><use xlink:href="#a"/><use xlink:href="#2" y="2.171"/><use xlink:href="#12" y="4.342"/></svg><svg x="7920"><use xlink:href="#a"/><use xlink:href="#2" y="2.171"/></svg><svg x="8052"><use xlink:href="#a"/><use xlink:href="#2" y="2.171"/></svg><svg x="8184"><use xlink:href="#a"/><use xlink:href="#2" y="2.171"/><use xlink:href="#12" y="4.342"/></svg><svg x="8316"><use xlink:href="#a"/><use xlink:href="#2" y="2.171"/></svg><svg x="8448"><use xlink:href="#a"/><use xlink:href="#2" y="2.171"/><text x="1.002" y="6.012" class="g">1.</text><text x="4.008" y="6.012" class="i">Copy</text><path class="m" d="M9.018 4.342h63v2.171h-63z"/><text x="9.018" y="6.012" class="n">Processing medium...</text><path class="j" d="M72.144 4.342h9v2.171h-9z"/><text x="72.144" y="6.012" class="g"></text><text x="82.164" y="6.012" class="g">87%</text><text x="86.172" y="6.012" class="g">|</text><text x="88.176" y="6.012" class="g">211.9MB/s</text><text x="98.196" y="6.012" class="g">|</text><text x="100.2" y="6.012" class="k">2.5GB</text><text x="106.212" y="6.012" class="g">/</text><text x="108.216" y="6.012" class="g">2.9GB</text><text x="114.228" y="6.012" class="g">|</text><text x="116.232" y="6.012" class="k">3</text><text x="118.236" y="6.012" class="g">/</text><text x="120.24" y="6.012" class="g">4</text><text x="122.244" y="6.012" class="g">|</text><text x="124.248" y="6.012" class="g">ETA:</text><text x="129.258" y="6.012" class="l">1s</text></svg><svg x="8580"><use xlink:href="#a"/><use xlink:href="#2" y="2.171"/></svg><svg x="8712"><use xlink:href="#a"/><use xlink:href="#2" y="2.171"/><use xlink:href="#13" y="4.342"/></svg><svg x="8844"><use xlink:href="#a"/><use xlink:href="#2" y="2.171"/></svg><svg x="8976"><use xlink:href="#a"/><use xlink:href="#2" y="2.171"/><use xlink:href="#13" y="4.342"/></svg><svg x="9108"><use xlink:href="#a"/><use xlink:href="#2" y="2.171"/></svg><svg x="9240"><use xlink:href="#a"/><use xlink:href="#2" y="2.171"/><use xlink:href="#14" y="4.342"/></svg><svg x="9372"><use xlink:href="#a"/><use xlink:href="#2" y="2.171"/><use xlink:href="#14" y="4.342"/></svg><svg x="9504"><use xlink:href="#a"/><use xlink:href="#2" y="2.171"/></svg><svg x="9636"><use xlink:href="#a"/><use xlink:href="#2" y="2.171"/><use xlink:href="#14" y="4.342"/></svg><svg x="9768"><use xlink:href="#a"/><use xlink:href="#2" y="2.171"/><use xlink:href="#14" y="4.342"/></svg><svg x="9900"><use xlink:href="#a"/><use xlink:href="#2" y="2.171"/></svg><svg x="10032"><use xlink:href="#a"/><use xlink:href="#2" y="2.171"/></svg><svg x="10164"><use xlink:href="#a"/><use xlink:href="#2" y="2.171"/><use xlink:href="#14" y="4.342"/></svg><svg x="10296"><use xlink:href="#a"/><use xlink:href="#2" y="2.171"/><use xlink:href="#14" y="4.342"/></svg><svg x="10428"><use xlink:href="#a"/><use xlink:href="#2" y="2.171"/><text x="1.002" y="6.012" class="g">1.</text><text x="4.008" y="6.012" class="i">Copy</text><path class="m" d="M9.018 4.342h71v2.171h-71z"/><text x="9.018" y="6.012" class="n">Processing small...</text><text x="81.162" y="6.012" class="g">100%</text><text x="86.172" y="6.012" class="g">|</text><text x="88.176" y="6.012" class="g">219.5MB/s</text><text x="98.196" y="6.012" class="g">|</text><text x="100.2" y="6.012" class="k">2.9GB</text><text x="106.212" y="6.012" class="g">/</text><text x="108.216" y="6.012" class="g">2.9GB</text><text x="114.228" y="6.012" class="g">|</text><text x="116.232" y="6.012" class="k">4</text><text x="118.236" y="6.012" class="g">/</text><text x="120.24" y="6.012" class="g">4</text><text x="122.244" y="6.012" class="g">|</text><text x="124.248" y="6.012" class="g">ETA:</text><text x="129.258" y="6.012" class="l">1s</text></svg><svg x="10560"><use xlink:href="#a"/><use xlink:href="#2" y="2.171"/><use xlink:href="#15" y="4.342"/></svg><svg x="10692"><use xlink:href="#a"/><use xlink:href="#2" y="2.171"/><use xlink:href="#15" y="4.342"/><use xlink:href="#1" y="8.684"/></svg><svg x="10824"><use xlink:href="#a"/><use xlink:href="#2" y="2.171"/><use xlink:href="#15" y="4.342"/><use xlink:href="#16" y="8.684"/></svg><svg x="10956"><use xlink:href="#a"/><use xlink:href="#2" y="2.171"/><use xlink:href="#15" y="4.342"/><use xlink:href="#16" y="8.684"/><use xlink:href="#17" y="10.855"/><use xlink:href="#18" y="13.026"/><use xlink:href="#19" y="15.197"/><use xlink:href="#20" y="17.368"/></svg><svg x="11088"><use xlink:href="#a"/><use xlink:href="#2" y="2.171"/><use xlink:href="#15" y="4.342"/><use xlink:href="#16" y="8.684"/><use xlink:href="#17" y="10.855"/><use xlink:href="#18" y="13.026"/><use xlink:href="#19" y="15.197"/><use xlink:href="#20" y="17.368"/><use xlink:href="#21" y="19.539"/></svg><svg x="11220"><use xlink:href="#a"/><use xlink:href="#2" y="2.171"/><use xlink:href="#15" y="4.342"/><use xlink:href="#16" y="8.684"/><use xlink:href="#17" y="10.855"/><use xlink:href="#18" y="13.026"/><use xlink:href="#19" y="15.197"/><use xlink:href="#20" y="17.368"/><use xlink:href="#21" y="19.539"/><use xlink:href="#1" y="23.881"/></svg><svg x="11352"><use xlink:href="#a"/><use xlink:href="#2" y="2.171"/><use xlink:href="#15" y="4.342"/><use xlink:href="#16" y="8.684"/><use xlink:href="#17" y="10.855"/><use xlink:href="#18" y="13.026"/><use xlink:href="#19" y="15.197"/><use xlink:href="#20" y="17.368"/><use xlink:href="#21" y="19.539"/><use xlink:href="#22" y="23.881"/></svg><svg x="11484"><use xlink:href="#a"/><use xlink:href="#2" y="2.171"/><use xlink:href="#15" y="4.342"/><use xlink:href="#16" y="8.684"/><use xlink:href="#17" y="10.855"/><use xlink:href="#18" y="13.026"/><use xlink:href="#19" y="15.197"/><use xlink:href="#20" y="17.368"/><use xlink:href="#21" y="19.539"/><use xlink:href="#22" y="23.881"/><use xlink:href="#17" y="26.052"/><use xlink:href="#18" y="28.223"/><use xlink:href="#19" y="30.394"/><use xlink:href="#20" y="32.565"/></svg><svg x="11616"><use xlink:href="#a"/><use xlink:href="#2" y="2.171"/><use xlink:href="#15" y="4.342"/><use xlink:href="#16" y="8.684"/><use xlink:href="#17" y="10.855"/><use xlink:href="#18" y="13.026"/><use xlink:href="#19" y="15.197"/><use xlink:href="#20" y="17.368"/><use xlink:href="#21" y="19.539"/><use xlink:href="#22" y="23.881"/><use xlink:href="#17" y="26.052"/><use xlink:href="#18" y="28.223"/><use xlink:href="#19" y="30.394"/><use xlink:href="#20" y="32.565"/><use xlink:href="#21" y="34.736"/></svg><svg x="11748"><use xlink:href="#a"/><use xlink:href="#2" y="2.171"/><use xlink:href="#15" y="4.342"/><use xlink:href="#16" y="8.684"/><use xlink:href="#17" y="10.855"/><use xlink:href="#18" y="13.026"/><use xlink:href="#19" y="15.197"/><use xlink:href="#20" y="17.368"/><use xlink:href="#21" y="19.539"/><use xlink:href="#22" y="23.881"/><use xlink:href="#17" y="26.052"/><use xlink:href="#18" y="28.223"/><use xlink:href="#19" y="30.394"/><use xlink:href="#20" y="32.565"/><use xlink:href="#21" y="34.736"/><use xlink:href="#1" y="39.078"/></svg><svg x="11880"><use xlink:href="#a"/><use xlink:href="#2" y="2.171"/><use xlink:href="#15" y="4.342"/><use xlink:href="#16" y="8.684"/><use xlink:href="#17" y="10.855"/><use xlink:href="#18" y="13.026"/><use xlink:href="#19" y="15.197"/><use xlink:href="#20" y="17.368"/><use xlink:href="#21" y="19.539"/><use xlink:href="#22" y="23.881"/><use xlink:href="#17" y="26.052"/><use xlink:href="#18" y="28.223"/><use xlink:href="#19" y="30.394"/><use xlink:href="#20" y="32.565"/><use xlink:href="#21" y="34.736"/><use xlink:href="#2" y="39.078"/></svg><svg x="12012"><use xlink:href="#a"/><use xlink:href="#2" y="2.171"/><use xlink:href="#15" y="4.342"/><use xlink:href="#16" y="8.684"/><use xlink:href="#17" y="10.855"/><use xlink:href="#18" y="13.026"/><use xlink:href="#19" y="15.197"/><use xlink:href="#20" y="17.368"/><use xlink:href="#21" y="19.539"/><use xlink:href="#22" y="23.881"/><use xlink:href="#17" y="26.052"/><use xlink:href="#18" y="28.223"/><use xlink:href="#19" y="30.394"/><use xlink:href="#20" y="32.565"/><use xlink:href="#21" y="34.736"/><use xlink:href="#2" y="39.078"/></svg><svg x="12144"><use xlink:href="#a"/><use xlink:href="#2" y="2.171"/><use xlink:href="#15" y="4.342"/><use xlink:href="#16" y="8.684"/><use xlink:href="#17" y="10.855"/><use xlink:href="#18" y="13.026"/><use xlink:href="#19" y="15.197"/><use xlink:href="#20" y="17.368"/><use xlink:href="#21" y="19.539"/><use xlink:href="#22" y="23.881"/><use xlink:href="#17" y="26.052"/><use xlink:href="#18" y="28.223"/><use xlink:href="#19" y="30.394"/><use xlink:href="#20" y="32.565"/><use xlink:href="#21" y="34.736"/><use xlink:href="#2" y="39.078"/><text x="1.002" y="42.919" class="g">1.</text><text x="4.008" y="42.919" class="i">Copy</text><path class="j" d="M9.018 41.249h84v2.171h-84z"/><text x="9.018" y="42.919" class="g">Preparing...</text><text x="94.188" y="42.919" class="g">0%</text><text x="97.194" y="42.919" class="g">|</text><text x="99.198" y="42.919" class="g">0B/s</text><text x="104.208" y="42.919" class="g">|</text><text x="106.212" y="42.919" class="k">0B</text><text x="109.218" y="42.919" class="g">/</text><text x="111.222" y="42.919" class="g">0B</text><text x="114.228" y="42.919" class="g">|</text><text x="116.232" y="42.919" class="k">0</text><text x="118.236" y="42.919" class="g">/</text><text x="120.24" y="42.919" class="g">0</text><text x="122.244" y="42.919" class="g">|</text><text x="124.248" y="42.919" class="g">ETA:</text><text x="129.258" y="42.919" class="l">0s</text></svg><svg x="12276"><use xlink:href="#a"/><use xlink:href="#2" y="2.171"/><use xlink:href="#15" y="4.342"/><use xlink:href="#16" y="8.684"/><use xlink:href="#17" y="10.855"/><use xlink:href="#18" y="13.026"/><use xlink:href="#19" y="15.197"/><use xlink:href="#20" y="17.368"/><use xlink:href="#21" y="19.539"/><use xlink:href="#22" y="23.881"/><use xlink:href="#17" y="26.052"/><use xlink:href="#18" y="28.223"/><use xlink:href="#19" y="30.394"/><use xlink:href="#20" y="32.565"/><use xlink:href="#21" y="34.736"/><use xlink:href="#2" y="39.078"/></svg><svg x="12408"><use xlink:href="#a"/><use xlink:href="#2" y="2.171"/><use xlink:href="#15" y="4.342"/><use xlink:href="#16" y="8.684"/><use xlink:href="#17" y="10.855"/><use xlink:href="#18" y="13.026"/><use xlink:href="#19" y="15.197"/><use xlink:href="#20" y="17.368"/><use xlink:href="#21" y="19.539"/><use xlink:href="#22" y="23.881"/><use xlink:href="#17" y="26.052"/><use xlink:href="#18" y="28.223"/><use xlink:href="#19" y="30.394"/><use xlink:href="#20" y="32.565"/><use xlink:href="#21" y="34.736"/><use xlink:href="#2" y="39.078"/><use xlink:href="#23" y="41.249"/></svg><svg x="12540"><use xlink:href="#a"/><use xlink:href="#2" y="2.171"/><use xlink:href="#15" y="4.342"/><use xlink:href="#16" y="8.684"/><use xlink:href="#17" y="10.855"/><use xlink:href="#18" y="13.026"/><use xlink:href="#19" y="15.197"/><use xlink:href="#20" y="17.368"/><use xlink:href="#21" y="19.539"/><use xlink:href="#22" y="23.881"/><use xlink:href="#17" y="26.052"/><use xlink:href="#18" y="28.223"/><use xlink:href="#19" y="30.394"/><use xlink:href="#20" y="32.565"/><use xlink:href="#21" y="34.736"/><use xlink:href="#2" y="39.078"/><use xlink:href="#23" y="41.249"/><use xlink:href="#1" y="45.591"/></svg><svg x="12672"><use xlink:href="#a"/><use xlink:href="#2" y="2.171"/><use xlink:href="#15" y="4.342"/><use xlink:href="#16" y="8.684"/><use xlink:href="#17" y="10.855"/><use xlink:href="#18" y="13.026"/><use xlink:href="#19" y="15.197"/><use xlink:href="#20" y="17.368"/><use xlink:href="#21" y="19.539"/><use xlink:href="#22" y="23.881"/><use xlink:href="#17" y="26.052"/><use xlink:href="#18" y="28.223"/><use xlink:href="#19" y="30.394"/><use xlink:href="#20" y="32.565"/><use xlink:href="#21" y="34.736"/><use xlink:href="#2" y="39.078"/><use xlink:href="#23" y="41.249"/><use xlink:href="#1" y="45.591"/></svg><svg x="12804"><use xlink:href="#a"/><use xlink:href="#2" y="2.171"/><use xlink:href="#15" y="4.342"/><use xlink:href="#16" y="8.684"/><use xlink:href="#17" y="10.855"/><use xlink:href="#18" y="13.026"/><use xlink:href="#19" y="15.197"/><use xlink:href="#20" y="17.368"/><use xlink:href="#21" y="19.539"/><use xlink:href="#22" y="23.881"/><use xlink:href="#17" y="26.052"/><use xlink:href="#18" y="28.223"/><use xlink:href="#19" y="30.394"/><use xlink:href="#20" y="32.565"/><use xlink:href="#21" y="34.736"/><use xlink:href="#2" y="39.078"/><use xlink:href="#23" y="41.249"/><use xlink:href="#1" y="45.591"/></svg></svg></g></g></svg></svg>