<svg xmlns="http://www.w3.org/2000/svg" xmlns:xlink="http://www.w3.org/1999/xlink" width="1360" height="277.1"><rect width="1360" height="277.1" rx="5" ry="5" class="a"/><svg y="0%" x="0%"><circle cx="20" cy="20" r="6" fill="#ff5f58"/><circle cx="40" cy="20" r="6" fill="#ffbd2e"/><circle cx="60" cy="20" r="6" fill="#18c132"/></svg><svg height="217.1" viewBox="0 0 132 21.71" width="1320" x="15" xmlns="http://www.w3.org/2000/svg" xmlns:xlink="http://www.w3.org/1999/xlink" y="50"><style>@keyframes p{0%{transform:translateX(0)}.04%{transform:translateX(-132px)}1.2%{transform:translateX(-264px)}4.18%{transform:translateX(-528px)}4.19%{transform:translateX(-924px)}4.21%{transform:translateX(-1188px)}9.99%{transform:translateX(-1584px)}10%{transform:translateX(-1716px)}15.78%{transform:translateX(-1980px)}21.56%{transform:translateX(-2376px)}22.08%{transform:translateX(-2772px)}22.44%{transform:translateX(-3300px)}24.38%{transform:translateX(-3432px)}25.55%{transform:translateX(-3564px)}26.71%{transform:translateX(-3696px)}30.97%{transform:translateX(-3828px)}33.13%{transform:translateX(-4224px)}33.14%{transform:translateX(-4356px)}38.92%{transform:translateX(-4620px)}44.7%{transform:translateX(-4884px)}50.48%{transform:translateX(-5016px)}50.49%{transform:translateX(-5148px)}51.73%{transform:translateX(-5412px)}51.74%{transform:translateX(-5544px)}52.07%{transform:translateX(-6072px)}56.27%{transform:translateX(-6864px)}60.92%{transform:translateX(-7524px)}60.93%{transform:translateX(-8052px)}62.05%{transform:translateX(-8184px)}62.06%{transform:translateX(-8316px)}62.96%{transform:translateX(-8580px)}63.31%{transform:translateX(-8844px)}63.69%{transform:translateX(-8976px)}63.7%{transform:translateX(-9108px)}64.08%{transform:translateX(-9240px)}65.25%{transform:translateX(-9372px)}to{transform:translateX(-9504px)}}.a{fill:#282d35}.f,.g,.h,.i{white-space:pre}.f{fill:#a8cc8c;font-weight:700}.g,.h,.i{fill:#b9c0cb}.h,.i{fill:#71bef2;font-weight:700}.i{fill:#d290e3}.j{fill:#303030}.k,.l{fill:#a8cc8c;white-space:pre}.l{fill:#b9c0cb;font-weight:700}.m{fill:#a8cc8c}.n{white-space:pre}</style><g font-family="Monaco,Consolas,Menlo,'Bitstream Vera Sans Mono','Powerline Symbols',monospace" font-size="1.67"><defs><symbol id="1"><text y="1.67" class="f">barf</text><text x="4.008" y="1.67" class="g">:</text><text x="5.01" y="1.67" class="h">/home/barf</text><text x="15.03" y="1.67" class="g">$</text></symbol><symbol id="2"><text y="1.67" class="f">barf</text><text x="4.008" y="1.67" class="g">:</text><text x="5.01" y="1.67" class="h">/home/barf</text><text x="15.03" y="1.67" class="g">$</text><text x="17.034" y="1.67" class="g">barf</text><text x="22.044" y="1.67" class="g">copy</text><text x="27.054" y="1.67" class="g">~/local/*</text><text x="37.074" y="1.67" class="g">~/remote/</text></symbol><symbol id="3"><text x="1.002" y="1.67" class="g">1.</text><text x="4.008" y="1.67" class="i">Copy</text><path class="j" d="M9.018 0h81v2.171h-81z"/><text x="9.018" y="1.67" class="g">Processing...</text><text x="91.182" y="1.67" class="g">0%</text><text x="94.188" y="1.67" class="g">|</text><text x="96.192" y="1.67" class="g">0B/s</text><text x="101.202" y="1.67" class="g">|</text><text x="103.206" y="1.67" class="k">0B</text><text x="106.212" y="1.67" class="g">/</text><text x="108.216" y="1.67" class="g">2.9GB</text><text x="114.228" y="1.67" class="g">|</text><text x="116.232" y="1.67" class="k">0</text><text x="118.236" y="1.67" class="g">/</text><text x="120.24" y="1.67" class="g">4</text><text x="122.244" y="1.67" class="g">|</text><text x="124.248" y="1.67" class="g">ETA:</text><text x="129.258" y="1.67" class="l">0s</text></symbol><symbol id="4"><text x="1.002" y="1.67" class="g">1.</text><text x="4.008" y="1.67" class="i">Copy</text><path class="m" d="M9.018 0h1v2.171h-1z"/><text x="9.018" y="1.67" class="n">P</text><path class="j" d="M10.02 0h76v2.171h-76z"/><text x="10.02" y="1.67" class="g">rocessing big...</text><text x="87.174" y="1.67" class="g">1%</text><text x="90.18" y="1.67" class="g">|</text><text x="92.184" y="1.67" class="g">0B/s</text><text x="97.194" y="1.67" class="g">|</text><text x="99.198" y="1.67" class="k">32.0KB</text><text x="106.212" y="1.67" class="g">/</text><text x="108.216" y="1.67" class="g">2.9GB</text><text x="114.228" y="1.67" class="g">|</text><text x="116.232" y="1.67" class="k">1</text><text x="118.236" y="1.67" class="g">/</text><text x="120.24" y="1.67" class="g">4</text><text x="122.244" y="1.67" class="g">|</text><text x="124.248" y="1.67" class="g">ETA:</text><text x="129.258" y="1.67" class="l">0s</text></symbol><symbol id="5"><text x="1.002" y="1.67" class="g">1.</text><text x="4.008" y="1.67" class="i">Copy</text><path class="m" d="M9.018 0h22v2.171h-22z"/><text x="9.018" y="1.67" class="n">Processing big...</text><path class="j" d="M31.062 0h48v2.171h-48z"/><text x="31.062" y="1.67" class="g"></text><text x="80.16" y="1.67" class="g">32%</text><text x="84.168" y="1.67" class="g">|</text><text x="86.172" y="1.67" class="g">309.9MB/s</text><text x="96.192" y="1.67" class="g">|</text><text x="98.196" y="1.67" class="k">929.1MB</text><text x="106.212" y="1.67" class="g">/</text><text x="108.216" y="1.67" class="g">2.9GB</text><text x="114.228" y="1.67" class="g">|</text><text x="116.232" y="1.67" class="k">1</text><text x="118.236" y="1.67" class="g">/</text><text x="120.24" y="1.67" class="g">4</text><text x="122.244" y="1.67" class="g">|</text><text x="124.248" y="1.67" class="g">ETA:</text><text x="129.258" y="1.67" class="l">6s</text></symbol><symbol id="6"><text x="1.002" y="1.67" class="g">1.</text><text x="4.008" y="1.67" class="i">Copy</text><path class="m" d="M9.018 0h23v2.171h-23z"/><text x="9.018" y="1.67" class="n">Processing huge...</text><path class="j" d="M32.064 0h47v2.171h-47z"/><text x="32.064" y="1.67" class="g"></text><text x="80.16" y="1.67" class="g">33%</text><text x="84.168" y="1.67" class="g">|</text><text x="86.172" y="1.67" class="g">309.9MB/s</text><text x="96.192" y="1.67" class="g">|</text><text x="98.196" y="1.67" class="k">953.7MB</text><text x="106.212" y="1.67" class="g">/</text><text x="108.216" y="1.67" class="g">2.9GB</text><text x="114.228" y="1.67" class="g">|</text><text x="116.232" y="1.67" class="k">2</text><text x="118.236" y="1.67" class="g">/</text><text x="120.24" y="1.67" class="g">4</text><text x="122.244" y="1.67" class="g">|</text><text x="124.248" y="1.67" class="g">ETA:</text><text x="129.258" y="1.67" class="l">6s</text></symbol><symbol id="7"><text y="1.67" class="g">^C</text></symbol><symbol id="8"><text y="1.67" class="f">barf</text><text x="4.008" y="1.67" class="g">:</text><text x="5.01" y="1.67" class="h">/home/barf</text><text x="15.03" y="1.67" class="g">$</text><text x="17.034" y="1.67" class="g">barf</text><text x="22.044" y="1.67" class="g">monitor</text></symbol><symbol id="9"><text x="1.002" y="1.67" class="g">1.</text><text x="4.008" y="1.67" class="i">Copy</text><path class="m" d="M9.018 0h30v2.171h-30z"/><text x="9.018" y="1.67" class="n">Processing huge...</text><path class="j" d="M39.078 0h42v2.171h-42z"/><text x="39.078" y="1.67" class="g"></text><text x="82.164" y="1.67" class="g">41%</text><text x="86.172" y="1.67" class="g">|</text><text x="88.176" y="1.67" class="g">279.3MB/s</text><text x="98.196" y="1.67" class="g">|</text><text x="100.2" y="1.67" class="k">1.2GB</text><text x="106.212" y="1.67" class="g">/</text><text x="108.216" y="1.67" class="g">2.9GB</text><text x="114.228" y="1.67" class="g">|</text><text x="116.232" y="1.67" class="k">2</text><text x="118.236" y="1.67" class="g">/</text><text x="120.24" y="1.67" class="g">4</text><text x="122.244" y="1.67" class="g">|</text><text x="124.248" y="1.67" class="g">ETA:</text><text x="129.258" y="1.67" class="l">6s</text></symbol><symbol id="10"><text x="1.002" y="1.67" class="g">1.</text><text x="4.008" y="1.67" class="i">Copy</text><path class="m" d="M9.018 0h57v2.171h-57z"/><text x="9.018" y="1.67" class="n">Processing huge...</text><path class="j" d="M66.132 0h15v2.171h-15z"/><text x="66.132" y="1.67" class="g"></text><text x="82.164" y="1.67" class="g">79%</text><text x="86.172" y="1.67" class="g">|</text><text x="88.176" y="1.67" class="g">268.4MB/s</text><text x="98.196" y="1.67" class="g">|</text><text x="100.2" y="1.67" class="k">2.3GB</text><text x="106.212" y="1.67" class="g">/</text><text x="108.216" y="1.67" class="g">2.9GB</text><text x="114.228" y="1.67" class="g">|</text><text x="116.232" y="1.67" class="k">2</text><text x="118.236" y="1.67" class="g">/</text><text x="120.24" y="1.67" class="g">4</text><text x="122.244" y="1.67" class="g">|</text><text x="124.248" y="1.67" class="g">ETA:</text><text x="129.258" y="1.67" class="l">2s</text></symbol><symbol id="11"><text x="1.002" y="1.67" class="g">1.</text><text x="4.008" y="1.67" class="i">Copy</text><path class="m" d="M9.018 0h59v2.171h-59z"/><text x="9.018" y="1.67" class="n">Processing medium...</text><path class="j" d="M68.136 0h13v2.171h-13z"/><text x="68.136" y="1.67" class="g"></text><text x="82.164" y="1.67" class="g">81%</text><text x="86.172" y="1.67" class="g">|</text><text x="88.176" y="1.67" class="g">272.7MB/s</text><text x="98.196" y="1.67" class="g">|</text><text x="100.2" y="1.67" class="k">2.3GB</text><text x="106.212" y="1.67" class="g">/</text><text x="108.216" y="1.67" class="g">2.9GB</text><text x="114.228" y="1.67" class="g">|</text><text x="116.232" y="1.67" class="k">3</text><text x="118.236" y="1.67" class="g">/</text><text x="120.24" y="1.67" class="g">4</text><text x="122.244" y="1.67" class="g">|</text><text x="124.248" y="1.67" class="g">ETA:</text><text x="129.258" y="1.67" class="l">2s</text></symbol><symbol id="12"><text x="1.002" y="1.67" class="g">1.</text><text x="4.008" y="1.67" class="i">Copy</text><path class="m" d="M9.018 0h70v2.171h-70z"/><text x="9.018" y="1.67" class="n">Processing small...</text><path class="j" d="M79.158 0h2v2.171h-2z"/><text x="79.158" y="1.67" class="g"></text><text x="82.164" y="1.67" class="g">97%</text><text x="86.172" y="1.67" class="g">|</text><text x="88.176" y="1.67" class="g">248.6MB/s</text><text x="98.196" y="1.67" class="g">|</text><text x="100.2" y="1.67" class="k">2.8GB</text><text x="106.212" y="1.67" class="g">/</text><text x="108.216" y="1.67" class="g">2.9GB</text><text x="114.228" y="1.67" class="g">|</text><text x="116.232" y="1.67" class="k">4</text><text x="118.236" y="1.67" class="g">/</text><text x="120.24" y="1.67" class="g">4</text><text x="122.244" y="1.67" class="g">|</text><text x="124.248" y="1.67" class="g">ETA:</text><text x="129.258" y="1.67" class="l">1s</text></symbol><symbol id="13"><text x="1.002" y="1.67" class="g">1.</text><text x="4.008" y="1.67" class="i">Copy</text><path class="m" d="M9.018 0h72v2.171h-72z"/><text x="9.018" y="1.67" class="n">Processing small...</text><text x="82.164" y="1.67" class="g">99%</text><text x="86.172" y="1.67" class="g">|</text><text x="88.176" y="1.67" class="g">145.5MB/s</text><text x="98.196" y="1.67" class="g">|</text><text x="100.2" y="1.67" class="k">2.9GB</text><text x="106.212" y="1.67" class="g">/</text><text x="108.216" y="1.67" class="g">2.9GB</text><text x="114.228" y="1.67" class="g">|</text><text x="116.232" y="1.67" class="k">4</text><text x="118.236" y="1.67" class="g">/</text><text x="120.24" y="1.67" class="g">4</text><text x="122.244" y="1.67" class="g">|</text><text x="124.248" y="1.67" class="g">ETA:</text><text x="129.258" y="1.67" class="l">1s</text></symbol><symbol id="14"><text x="1.002" y="1.67" class="g">1.</text><text x="4.008" y="1.67" class="i">Copy</text><path class="m" d="M9.018 0h87v2.171h-87z"/><text x="9.018" y="1.67" class="n">Finished successfully!</text><text x="97.194" y="1.67" class="g">100%</text><text x="102.204" y="1.67" class="g">|</text><text x="104.208" y="1.67" class="g">295.6MB/s</text><text x="114.228" y="1.67" class="g">|</text><text x="116.232" y="1.67" class="k">2.9GB</text><text x="122.244" y="1.67" class="g">|</text><text x="124.248" y="1.67" class="k">4</text><text x="126.252" y="1.67" class="g">|</text><text x="128.256" y="1.67" class="l">10s</text></symbol><symbol id="a"><path fill="transparent" d="M0 0h132v11H0z"/></symbol></defs><path class="a" d="M0 0h132v21.71H0z"/><g style="animation-duration:17.271922s;animation-iteration-count:infinite;animation-name:p;animation-timing-function:steps(1,end)"><svg width="9636"><svg><use xlink:href="#a"/></svg><svg x="132"><use xlink:href="#a"/><use xlink:href="#1" y="2.171"/></svg><svg x="264"><use xlink:href="#a"/><use xlink:href="#2" y="2.171"/></svg><svg x="396"><use xlink:href="#a"/><use xlink:href="#2" y="2.171"/></svg><svg x="528"><use xlink:href="#a"/><use xlink:href="#2" y="2.171"/><text x="1.002" y="6.012" class="g">1.</text><text x="4.008" y="6.012" class="i">Copy</text><path class="j" d="M9.018 4.342h84v2.171h-84z"/><text x="9.018" y="6.012" class="g">Preparing...</text><text x="94.188" y="6.012" class="g">0%</text><text x="97.194" y="6.012" class="g">|</text><text x="99.198" y="6.012" class="g">0B/s</text><text x="104.208" y="6.012" class="g">|</text><text x="106.212" y="6.012" class="k">0B</text><text x="109.218" y="6.012" class="g">/</text><text x="111.222" y="6.012" class="g">0B</text><text x="114.228" y="6.012" class="g">|</text><text x="116.232" y="6.012" class="k">0</text><text x="118.236" y="6.012" class="g">/</text><text x="120.24" y="6.012" class="g">0</text><text x="122.244" y="6.012" class="g">|</text><text x="124.248" y="6.012" class="g">ETA:</text><text x="129.258" y="6.012" class="l">0s</text></svg><svg x="660"><use xlink:href="#a"/><use xlink:href="#2" y="2.171"/></svg><svg x="792"><use xlink:href="#a"/><use xlink:href="#2" y="2.171"/><use xlink:href="#3" y="4.342"/></svg><svg x="924"><use xlink:href="#a"/><use xlink:href="#2" y="2.171"/><use xlink:href="#3" y="4.342"/></svg><svg x="1056"><use xlink:href="#a"/><use xlink:href="#2" y="2.171"/></svg><svg x="1188"><use xlink:href="#a"/><use xlink:href="#2" y="2.171"/><text x="1.002" y="6.012" class="g">1.</text><text x="4.008" y="6.012" class="i">Copy</text><path class="j" d="M9.018 4.342h81v2.171h-81z"/><text x="9.018" y="6.012" class="g">Processing big...</text><text x="91.182" y="6.012" class="g">0%</text><text x="94.188" y="6.012" class="g">|</text><text x="96.192" y="6.012" class="g">0B/s</text><text x="101.202" y="6.012" class="g">|</text><text x="103.206" y="6.012" class="k">0B</text><text x="106.212" y="6.012" class="g">/</text><text x="108.216" y="6.012" class="g">2.9GB</text><text x="114.228" y="6.012" class="g">|</text><text x="116.232" y="6.012" class="k">1</text><text x="118.236" y="6.012" class="g">/</text><text x="120.24" y="6.012" class="g">4</text><text x="122.244" y="6.012" class="g">|</text><text x="124.248" y="6.012" class="g">ETA:</text><text x="129.258" y="6.012" class="l">0s</text></svg><svg x="1320"><use xlink:href="#a"/><use xlink:href="#2" y="2.171"/></svg><svg x="1452"><use xlink:href="#a"/><use xlink:href="#2" y="2.171"/><use xlink:href="#4" y="4.342"/></svg><svg x="1584"><use xlink:href="#a"/><use xlink:href="#2" y="2.171"/></svg><svg x="1716"><use xlink:href="#a"/><use xlink:href="#2" y="2.171"/><use xlink:href="#4" y="4.342"/></svg><svg x="1848"><use xlink:href="#a"/><use xlink:href="#2" y="2.171"/></svg><svg x="1980"><use xlink:href="#a"/><use xlink:href="#2" y="2.171"/><text x="1.002" y="6.012" class="g">1.</text><text x="4.008" y="6.012" class="i">Copy</text><path class="m" d="M9.018 4.342h8v2.171h-8z"/><text x="9.018" y="6.012" class="n">Processi</text><path class="j" d="M17.034 4.342h62v2.171h-62z"/><text x="17.034" y="6.012" class="g">ng big...</text><text x="80.16" y="6.012" class="g">11%</text><text x="84.168" y="6.012" class="g">|</text><text x="86.172" y="6.012" class="g">313.0MB/s</text><text x="96.192" y="6.012" class="g">|</text><text x="98.196" y="6.012" class="k">313.0MB</text><text x="106.212" y="6.012" class="g">/</text><text x="108.216" y="6.012" class="g">2.9GB</text><text x="114.228" y="6.012" class="g">|</text><text x="116.232" y="6.012" class="k">1</text><text x="118.236" y="6.012" class="g">/</text><text x="120.24" y="6.012" class="g">4</text><text x="122.244" y="6.012" class="g">|</text><text x="124.248" y="6.012" class="g">ETA:</text><text x="129.258" y="6.012" class="l">8s</text></svg><svg x="2112"><use xlink:href="#a"/><use xlink:href="#2" y="2.171"/></svg><svg x="2244"><use xlink:href="#a"/><use xlink:href="#2" y="2.171"/></svg><svg x="2376"><use xlink:href="#a"/><use xlink:href="#2" y="2.171"/><text x="1.002" y="6.012" class="g">1.</text><text x="4.008" y="6.012" class="i">Copy</text><path class="m" d="M9.018 4.342h15v2.171h-15z"/><text x="9.018" y="6.012" class="n">Processing big.</text><path class="j" d="M24.048 4.342h55v2.171h-55z"/><text x="24.048" y="6.012" class="g">..</text><text x="80.16" y="6.012" class="g">21%</text><text x="84.168" y="6.012" class="g">|</text><text x="86.172" y="6.012" class="g">311.4MB/s</text><text x="96.192" y="6.012" class="g">|</text><text x="98.196" y="6.012" class="k">619.3MB</text><text x="106.212" y="6.012" class="g">/</text><text x="108.216" y="6.012" class="g">2.9GB</text><text x="114.228" y="6.012" class="g">|</text><text x="116.232" y="6.012" class="k">1</text><text x="118.236" y="6.012" class="g">/</text><text x="120.24" y="6.012" class="g">4</text><text x="122.244" y="6.012" class="g">|</text><text x="124.248" y="6.012" class="g">ETA:</text><text x="129.258" y="6.012" class="l">7s</text></svg><svg x="2508"><use xlink:href="#a"/><use xlink:href="#2" y="2.171"/></svg><svg x="2640"><use xlink:href="#a"/><use xlink:href="#2" y="2.171"/><use xlink:href="#5" y="4.342"/></svg><svg x="2772"><use xlink:href="#a"/><use xlink:href="#2" y="2.171"/><use xlink:href="#5" y="4.342"/></svg><svg x="2904"><use xlink:href="#a"/><use xlink:href="#2" y="2.171"/></svg><svg x="3036"><use xlink:href="#a"/><use xlink:href="#2" y="2.171"/><text x="1.002" y="6.012" class="g">1.</text><text x="4.008" y="6.012" class="i">Copy</text><path class="m" d="M9.018 4.342h23v2.171h-23z"/><text x="9.018" y="6.012" class="n">Processing big...</text><path class="j" d="M32.064 4.342h47v2.171h-47z"/><text x="32.064" y="6.012" class="g"></text><text x="80.16" y="6.012" class="g">33%</text><text x="84.168" y="6.012" class="g">|</text><text x="86.172" y="6.012" class="g">309.9MB/s</text><text x="96.192" y="6.012" class="g">|</text><text x="98.196" y="6.012" class="k">953.7MB</text><text x="106.212" y="6.012" class="g">/</text><text x="108.216" y="6.012" class="g">2.9GB</text><text x="114.228" y="6.012" class="g">|</text><text x="116.232" y="6.012" class="k">1</text><text x="118.236" y="6.012" class="g">/</text><text x="120.24" y="6.012" class="g">4</text><text x="122.244" y="6.012" class="g">|</text><text x="124.248" y="6.012" class="g">ETA:</text><text x="129.258" y="6.012" class="l">6s</text></svg><svg x="3168"><use xlink:href="#a"/><use xlink:href="#2" y="2.171"/></svg><svg x="3300"><use xlink:href="#a"/><use xlink:href="#2" y="2.171"/><use xlink:href="#6" y="4.342"/></svg><svg x="3432"><use xlink:href="#a"/><use xlink:href="#2" y="2.171"/><use xlink:href="#6" y="4.342"/><use xlink:href="#7" y="6.513"/></svg><svg x="3564"><use xlink:href="#a"/><use xlink:href="#2" y="2.171"/><use xlink:href="#6" y="4.342"/><use xlink:href="#7" y="6.513"/><use xlink:href="#1" y="10.855"/></svg><svg x="3696"><use xlink:href="#a"/><use xlink:href="#2" y="2.171"/><use xlink:href="#6" y="4.342"/><use xlink:href="#7" y="6.513"/><use xlink:href="#8" y="10.855"/></svg><svg x="3828"><use xlink:href="#a"/><use xlink:href="#2" y="2.171"/><use xlink:href="#6" y="4.342"/><use xlink:href="#7" y="6.513"/><use xlink:href="#8" y="10.855"/><text x="1.002" y="14.696" class="g">1.</text><text x="4.008" y="14.696" class="i">Copy</text><path class="j" d="M9.018 13.026h84v2.171h-84z"/><text x="9.018" y="14.696" class="g"></text><text x="94.188" y="14.696" class="g">0%</text><text x="97.194" y="14.696" class="g">|</text><text x="99.198" y="14.696" class="g">0B/s</text><text x="104.208" y="14.696" class="g">|</text><text x="106.212" y="14.696" class="k">0B</text><text x="109.218" y="14.696" class="g">/</text><text x="111.222" y="14.696" class="g">0B</text><text x="114.228" y="14.696" class="g">|</text><text x="116.232" y="14.696" class="k">0</text><text x="118.236" y="14.696" class="g">/</text><text x="120.24" y="14.696" class="g">0</text><text x="122.244" y="14.696" class="g">|</text><text x="124.248" y="14.696" class="g">ETA:</text><text x="129.258" y="14.696" class="l">0s</text></svg><svg x="3960"><use xlink:href="#a"/><use xlink:href="#2" y="2.171"/><use xlink:href="#6" y="4.342"/><use xlink:href="#7" y="6.513"/><use xlink:href="#8" y="10.855"/></svg><svg x="4092"><use xlink:href="#a"/><use xlink:href="#2" y="2.171"/><use xlink:href="#6" y="4.342"/><use xlink:href="#7" y="6.513"/><use xlink:href="#8" y="10.855"/><use xlink:href="#9" y="13.026"/></svg><svg x="4224"><use xlink:href="#a"/><use xlink:href="#2" y="2.171"/><use xlink:href="#6" y="4.342"/><use xlink:href="#7" y="6.513"/><use xlink:href="#8" y="10.855"/></svg><svg x="4356"><use xlink:href="#a"/><use xlink:href="#2" y="2.171"/><use xlink:href="#6" y="4.342"/><use xlink:href="#7" y="6.513"/><use xlink:href="#8" y="10.855"/><use xlink:href="#9" y="13.026"/></svg><svg x="4488"><use xlink:href="#a"/><use xlink:href="#2" y="2.171"/><use xlink:href="#6" y="4.342"/><use xlink:href="#7" y="6.513"/><use xlink:href="#8" y="10.855"/><use xlink:href="#9" y="13.026"/></svg><svg x="4620"><use xlink:href="#a"/><use xlink:href="#2" y="2.171"/><use xlink:href="#6" y="4.342"/><use xlink:href="#7" y="6.513"/><use xlink:href="#8" y="10.855"/><text x="1.002" y="14.696" class="g">1.</text><text x="4.008" y="14.696" class="i">Copy</text><path class="m" d="M9.018 13.026h36v2.171h-36z"/><text x="9.018" y="14.696" class="n">Processing huge...</text><path class="j" d="M45.09 13.026h36v2.171h-36z"/><text x="45.09" y="14.696" class="g"></text><text x="82.164" y="14.696" class="g">50%</text><text x="86.172" y="14.696" class="g">|</text><text x="88.176" y="14.696" class="g">252.3MB/s</text><text x="98.196" y="14.696" class="g">|</text><text x="100.2" y="14.696" class="k">1.4GB</text><text x="106.212" y="14.696" class="g">/</text><text x="108.216" y="14.696" class="g">2.9GB</text><text x="114.228" y="14.696" class="g">|</text><text x="116.232" y="14.696" class="k">2</text><text x="118.236" y="14.696" class="g">/</text><text x="120.24" y="14.696" class="g">4</text><text x="122.244" y="14.696" class="g">|</text><text x="124.248" y="14.696" class="g">ETA:</text><text x="129.258" y="14.696" class="l">5s</text></svg><svg x="4752"><use xlink:href="#a"/><use xlink:href="#2" y="2.171"/><use xlink:href="#6" y="4.342"/><use xlink:href="#7" y="6.513"/><use xlink:href="#8" y="10.855"/></svg><svg x="4884"><use xlink:href="#a"/><use xlink:href="#2" y="2.171"/><use xlink:href="#6" y="4.342"/><use xlink:href="#7" y="6.513"/><use xlink:href="#8" y="10.855"/><text x="1.002" y="14.696" class="g">1.</text><text x="4.008" y="14.696" class="i">Copy</text><path class="m" d="M9.018 13.026h43v2.171h-43z"/><text x="9.018" y="14.696" class="n">Processing huge...</text><path class="j" d="M52.104 13.026h29v2.171h-29z"/><text x="52.104" y="14.696" class="g"></text><text x="82.164" y="14.696" class="g">60%</text><text x="86.172" y="14.696" class="g">|</text><text x="88.176" y="14.696" class="g">252.3MB/s</text><text x="98.196" y="14.696" class="g">|</text><text x="100.2" y="14.696" class="k">1.7GB</text><text x="106.212" y="14.696" class="g">/</text><text x="108.216" y="14.696" class="g">2.9GB</text><text x="114.228" y="14.696" class="g">|</text><text x="116.232" y="14.696" class="k">2</text><text x="118.236" y="14.696" class="g">/</text><text x="120.24" y="14.696" class="g">4</text><text x="122.244" y="14.696" class="g">|</text><text x="124.248" y="14.696" class="g">ETA:</text><text x="129.258" y="14.696" class="l">4s</text></svg><svg x="5016"><use xlink:href="#a"/><use xlink:href="#2" y="2.171"/><use xlink:href="#6" y="4.342"/><use xlink:href="#7" y="6.513"/><use xlink:href="#8" y="10.855"/></svg><svg x="5148"><use xlink:href="#a"/><use xlink:href="#2" y="2.171"/><use xlink:href="#6" y="4.342"/><use xlink:href="#7" y="6.513"/><use xlink:href="#8" y="10.855"/><text x="1.002" y="14.696" class="g">1.</text><text x="4.008" y="14.696" class="i">Copy</text><path class="m" d="M9.018 13.026h50v2.171h-50z"/><text x="9.018" y="14.696" class="n">Processing huge...</text><path class="j" d="M59.118 13.026h22v2.171h-22z"/><text x="59.118" y="14.696" class="g"></text><text x="82.164" y="14.696" class="g">69%</text><text x="86.172" y="14.696" class="g">|</text><text x="88.176" y="14.696" class="g">260.6MB/s</text><text x="98.196" y="14.696" class="g">|</text><text x="100.2" y="14.696" class="k">2.0GB</text><text x="106.212" y="14.696" class="g">/</text><text x="108.216" y="14.696" class="g">2.9GB</text><text x="114.228" y="14.696" class="g">|</text><text x="116.232" y="14.696" class="k">2</text><text x="118.236" y="14.696" class="g">/</text><text x="120.24" y="14.696" class="g">4</text><text x="122.244" y="14.696" class="g">|</text><text x="124.248" y="14.696" class="g">ETA:</text><text x="129.258" y="14.696" class="l">3s</text></svg><svg x="5280"><use xlink:href="#a"/><use xlink:href="#2" y="2.171"/><use xlink:href="#6" y="4.342"/><use xlink:href="#7" y="6.513"/><use xlink:href="#8" y="10.855"/><use xlink:href="#10" y="13.026"/></svg><svg x="5412"><use xlink:href="#a"/><use xlink:href="#2" y="2.171"/><use xlink:href="#6" y="4.342"/><use xlink:href="#7" y="6.513"/><use xlink:href="#8" y="10.855"/><use xlink:href="#10" y="13.026"/></svg><svg x="5544"><use xlink:href="#a"/><use xlink:href="#2" y="2.171"/><use xlink:href="#6" y="4.342"/><use xlink:href="#7" y="6.513"/><use xlink:href="#8" y="10.855"/><use xlink:href="#10" y="13.026"/></svg><svg x="5676"><use xlink:href="#a"/><use xlink:href="#2" y="2.171"/><use xlink:href="#6" y="4.342"/><use xlink:href="#7" y="6.513"/><use xlink:href="#8" y="10.855"/></svg><svg x="5808"><use xlink:href="#a"/><use xlink:href="#2" y="2.171"/><use xlink:href="#6" y="4.342"/><use xlink:href="#7" y="6.513"/><use xlink:href="#8" y="10.855"/></svg><svg x="5940"><use xlink:href="#a"/><use xlink:href="#2" y="2.171"/><use xlink:href="#6" y="4.342"/><use xlink:href="#7" y="6.513"/><use xlink:href="#8" y="10.855"/><text x="1.002" y="14.696" class="g">1.</text><text x="4.008" y="14.696" class="i">Copy</text><path class="m" d="M9.018 13.026h59v2.171h-59z"/><text x="9.018" y="14.696" class="n">Processing huge...</text><path class="j" d="M68.136 13.026h13v2.171h-13z"/><text x="68.136" y="14.696" class="g"></text><text x="82.164" y="14.696" class="g">81%</text><text x="86.172" y="14.696" class="g">|</text><text x="88.176" y="14.696" class="g">272.7MB/s</text><text x="98.196" y="14.696" class="g">|</text><text x="100.2" y="14.696" class="k">2.3GB</text><text x="106.212" y="14.696" class="g">/</text><text x="108.216" y="14.696" class="g">2.9GB</text><text x="114.228" y="14.696" class="g">|</text><text x="116.232" y="14.696" class="k">2</text><text x="118.236" y="14.696" class="g">/</text><text x="120.24" y="14.696" class="g">4</text><text x="122.244" y="14.696" class="g">|</text><text x="124.248" y="14.696" class="g">ETA:</text><text x="129.258" y="14.696" class="l">2s</text></svg><svg x="6072"><use xlink:href="#a"/><use xlink:href="#2" y="2.171"/><use xlink:href="#6" y="4.342"/><use xlink:href="#7" y="6.513"/><use xlink:href="#8" y="10.855"/><use xlink:href="#11" y="13.026"/></svg><svg x="6204"><use xlink:href="#a"/><use xlink:href="#2" y="2.171"/><use xlink:href="#6" y="4.342"/><use xlink:href="#7" y="6.513"/><use xlink:href="#8" y="10.855"/><use xlink:href="#11" y="13.026"/></svg><svg x="6336"><use xlink:href="#a"/><use xlink:href="#2" y="2.171"/><use xlink:href="#6" y="4.342"/><use xlink:href="#7" y="6.513"/><use xlink:href="#8" y="10.855"/></svg><svg x="6468"><use xlink:href="#a"/><use xlink:href="#2" y="2.171"/><use xlink:href="#6" y="4.342"/><use xlink:href="#7" y="6.513"/><use xlink:href="#8" y="10.855"/><use xlink:href="#11" y="13.026"/></svg><svg x="6600"><use xlink:href="#a"/><use xlink:href="#2" y="2.171"/><use xlink:href="#6" y="4.342"/><use xlink:href="#7" y="6.513"/><use xlink:href="#8" y="10.855"/><use xlink:href="#11" y="13.026"/></svg><svg x="6732"><use xlink:href="#a"/><use xlink:href="#2" y="2.171"/><use xlink:href="#6" y="4.342"/><use xlink:href="#7" y="6.513"/><use xlink:href="#8" y="10.855"/></svg><svg x="6864"><use xlink:href="#a"/><use xlink:href="#2" y="2.171"/><use xlink:href="#6" y="4.342"/><use xlink:href="#7" y="6.513"/><use xlink:href="#8" y="10.855"/><use xlink:href="#11" y="13.026"/></svg><svg x="6996"><use xlink:href="#a"/><use xlink:href="#2" y="2.171"/><use xlink:href="#6" y="4.342"/><use xlink:href="#7" y="6.513"/><use xlink:href="#8" y="10.855"/><use xlink:href="#11" y="13.026"/></svg><svg x="7128"><use xlink:href="#a"/><use xlink:href="#2" y="2.171"/><use xlink:href="#6" y="4.342"/><use xlink:href="#7" y="6.513"/><use xlink:href="#8" y="10.855"/></svg><svg x="7260"><use xlink:href="#a"/><use xlink:href="#2" y="2.171"/><use xlink:href="#6" y="4.342"/><use xlink:href="#7" y="6.513"/><use xlink:href="#8" y="10.855"/></svg><svg x="7392"><use xlink:href="#a"/><use xlink:href="#2" y="2.171"/><use xlink:href="#6" y="4.342"/><use xlink:href="#7" y="6.513"/><use xlink:href="#8" y="10.855"/><text x="1.002" y="14.696" class="g">1.</text><text x="4.008" y="14.696" class="i">Copy</text><path class="m" d="M9.018 13.026h64v2.171h-64z"/><text x="9.018" y="14.696" class="n">Processing medium...</text><path class="j" d="M73.146 13.026h8v2.171h-8z"/><text x="73.146" y="14.696" class="g"></text><text x="82.164" y="14.696" class="g">89%</text><text x="86.172" y="14.696" class="g">|</text><text x="88.176" y="14.696" class="g">253.6MB/s</text><text x="98.196" y="14.696" class="g">|</text><text x="100.2" y="14.696" class="k">2.6GB</text><text x="106.212" y="14.696" class="g">/</text><text x="108.216" y="14.696" class="g">2.9GB</text><text x="114.228" y="14.696" class="g">|</text><text x="116.232" y="14.696" class="k">3</text><text x="118.236" y="14.696" class="g">/</text><text x="120.24" y="14.696" class="g">4</text><text x="122.244" y="14.696" class="g">|</text><text x="124.248" y="14.696" class="g">ETA:</text><text x="129.258" y="14.696" class="l">1s</text></svg><svg x="7524"><use xlink:href="#a"/><use xlink:href="#2" y="2.171"/><use xlink:href="#6" y="4.342"/><use xlink:href="#7" y="6.513"/><use xlink:href="#8" y="10.855"/></svg><svg x="7656"><use xlink:href="#a"/><use xlink:href="#2" y="2.171"/><use xlink:href="#6" y="4.342"/><use xlink:href="#7" y="6.513"/><use xlink:href="#8" y="10.855"/></svg><svg x="7788"><use xlink:href="#a"/><use xlink:href="#2" y="2.171"/><use xlink:href="#6" y="4.342"/><use xlink:href="#7" y="6.513"/><use xlink:href="#8" y="10.855"/><use xlink:href="#12" y="13.026"/></svg><svg x="7920"><use xlink:href="#a"/><use xlink:href="#2" y="2.171"/><use xlink:href="#6" y="4.342"/><use xlink:href="#7" y="6.513"/><use xlink:href="#8" y="10.855"/></svg><svg x="8052"><use xlink:href="#a"/><use xlink:href="#2" y="2.171"/><use xlink:href="#6" y="4.342"/><use xlink:href="#7" y="6.513"/><use xlink:href="#8" y="10.855"/><use xlink:href="#12" y="13.026"/></svg><svg x="8184"><use xlink:href="#a"/><use xlink:href="#2" y="2.171"/><use xlink:href="#6" y="4.342"/><use xlink:href="#7" y="6.513"/><use xlink:href="#8" y="10.855"/></svg><svg x="8316"><use xlink:href="#a"/><use xlink:href="#2" y="2.171"/><use xlink:href="#6" y="4.342"/><use xlink:href="#7" y="6.513"/><use xlink:href="#8" y="10.855"/><text x="1.002" y="14.696" class="g">1.</text><text x="4.008" y="14.696" class="i">Copy</text><path class="m" d="M9.018 13.026h70v2.171h-70z"/><text x="9.018" y="14.696" class="n">Processing small...</text><path class="j" d="M79.158 13.026h2v2.171h-2z"/><text x="79.158" y="14.696" class="g"></text><text x="82.164" y="14.696" class="g">97%</text><text x="86.172" y="14.696" class="g">|</text><text x="88.176" y="14.696" class="g">116.5MB/s</text><text x="98.196" y="14.696" class="g">|</text><text x="100.2" y="14.696" class="k">2.8GB</text><text x="106.212" y="14.696" class="g">/</text><text x="108.216" y="14.696" class="g">2.9GB</text><text x="114.228" y="14.696" class="g">|</text><text x="116.232" y="14.696" class="k">4</text><text x="118.236" y="14.696" class="g">/</text><text x="120.24" y="14.696" class="g">4</text><text x="122.244" y="14.696" class="g">|</text><text x="124.248" y="14.696" class="g">ETA:</text><text x="129.258" y="14.696" class="l">1s</text></svg><svg x="8448"><use xlink:href="#a"/><use xlink:href="#2" y="2.171"/><use xlink:href="#6" y="4.342"/><use xlink:href="#7" y="6.513"/><use xlink:href="#8" y="10.855"/><use xlink:href="#13" y="13.026"/></svg><svg x="8580"><use xlink:href="#a"/><use xlink:href="#2" y="2.171"/><use xlink:href="#6" y="4.342"/><use xlink:href="#7" y="6.513"/><use xlink:href="#8" y="10.855"/><use xlink:href="#13" y="13.026"/></svg><svg x="8712"><use xlink:href="#a"/><use xlink:href="#2" y="2.171"/><use xlink:href="#6" y="4.342"/><use xlink:href="#7" y="6.513"/><use xlink:href="#8" y="10.855"/></svg><svg x="8844"><use xlink:href="#a"/><use xlink:href="#2" y="2.171"/><use xlink:href="#6" y="4.342"/><use xlink:href="#7" y="6.513"/><use xlink:href="#8" y="10.855"/><text x="1.002" y="14.696" class="g">1.</text><text x="4.008" y="14.696" class="i">Copy</text><path class="m" d="M9.018 13.026h72v2.171h-72z"/><text x="9.018" y="14.696" class="n">Processing small...</text><text x="82.164" y="14.696" class="g">100%</text><text x="87.174" y="14.696" class="g">|</text><text x="89.178" y="14.696" class="g">70.5MB/s</text><text x="98.196" y="14.696" class="g">|</text><text x="100.2" y="14.696" class="k">2.9GB</text><text x="106.212" y="14.696" class="g">/</text><text x="108.216" y="14.696" class="g">2.9GB</text><text x="114.228" y="14.696" class="g">|</text><text x="116.232" y="14.696" class="k">4</text><text x="118.236" y="14.696" class="g">/</text><text x="120.24" y="14.696" class="g">4</text><text x="122.244" y="14.696" class="g">|</text><text x="124.248" y="14.696" class="g">ETA:</text><text x="129.258" y="14.696" class="l">1s</text></svg><svg x="8976"><use xlink:href="#a"/><use xlink:href="#2" y="2.171"/><use xlink:href="#6" y="4.342"/><use xlink:href="#7" y="6.513"/><use xlink:href="#8" y="10.855"/></svg><svg x="9108"><use xlink:href="#a"/><use xlink:href="#2" y="2.171"/><use xlink:href="#6" y="4.342"/><use xlink:href="#7" y="6.513"/><use xlink:href="#8" y="10.855"/><use xlink:href="#14" y="13.026"/></svg><svg x="9240"><use xlink:href="#a"/><use xlink:href="#2" y="2.171"/><use xlink:href="#6" y="4.342"/><use xlink:href="#7" y="6.513"/><use xlink:href="#8" y="10.855"/><use xlink:href="#14" y="13.026"/><use xlink:href="#1" y="17.368"/></svg><svg x="9372"><use xlink:href="#a"/><use xlink:href="#2" y="2.171"/><use xlink:href="#6" y="4.342"/><use xlink:href="#7" y="6.513"/><use xlink:href="#8" y="10.855"/><use xlink:href="#14" y="13.026"/><use xlink:href="#1" y="17.368"/></svg><svg x="9504"><use xlink:href="#a"/><use xlink:href="#2" y="2.171"/><use xlink:href="#6" y="4.342"/><use xlink:href="#7" y="6.513"/><use xlink:href="#8" y="10.855"/><use xlink:href="#14" y="13.026"/><use xlink:href="#1" y="17.368"/></svg></svg></g></g></svg></svg>