<svg xmlns="http://www.w3.org/2000/svg" xmlns:xlink="http://www.w3.org/1999/xlink" width="1360" height="494.2"><rect width="1360" height="494.2" rx="5" ry="5" class="a"/><svg y="0%" x="0%"><circle cx="20" cy="20" r="6" fill="#ff5f58"/><circle cx="40" cy="20" r="6" fill="#ffbd2e"/><circle cx="60" cy="20" r="6" fill="#18c132"/></svg><svg height="434.2" viewBox="0 0 132 43.42" width="1320" x="15" xmlns="http://www.w3.org/2000/svg" xmlns:xlink="http://www.w3.org/1999/xlink" y="50"><style>@keyframes p{0%{transform:translateX(0)}.03%{transform:translateX(-132px)}1%{transform:translateX(-264px)}1.16%{transform:translateX(-396px)}1.19%{transform:translateX(-660px)}1.2%{transform:translateX(-1056px)}6%{transform:translateX(-1320px)}10.8%{transform:translateX(-1584px)}15.6%{transform:translateX(-1848px)}20.24%{transform:translateX(-1980px)}21.21%{transform:translateX(-2112px)}22.17%{transform:translateX(-2244px)}31.56%{transform:translateX(-2376px)}34.81%{transform:translateX(-2640px)}39.62%{transform:translateX(-2904px)}44.42%{transform:translateX(-3828px)}49.22%{transform:translateX(-4092px)}54.02%{transform:translateX(-4224px)}54.04%{transform:translateX(-4356px)}57.05%{transform:translateX(-4620px)}57.06%{transform:translateX(-4752px)}57.07%{transform:translateX(-4884px)}57.08%{transform:translateX(-5280px)}58.82%{transform:translateX(-5412px)}58.83%{transform:translateX(-6072px)}63.62%{transform:translateX(-6204px)}63.63%{transform:translateX(-6732px)}68.42%{transform:translateX(-6864px)}68.43%{transform:translateX(-7392px)}68.66%{transform:translateX(-7788px)}68.69%{transform:translateX(-8976px)}68.7%{transform:translateX(-9240px)}70.18%{transform:translateX(-9768px)}70.2%{transform:translateX(-9900px)}71.16%{transform:translateX(-10032px)}to{transform:translateX(-10164px)}}.a{fill:#282d35}.f,.g,.h,.i{white-space:pre}.f{fill:#a8cc8c;font-weight:700}.g,.h,.i{fill:#b9c0cb}.h,.i{fill:#71bef2;font-weight:700}.i{fill:#d290e3}.j{fill:#303030}.k,.l{fill:#a8cc8c;white-space:pre}.l{fill:#b9c0cb;font-weight:700}.m{fill:#a8cc8c}.n{white-space:pre}</style><g font-family="Monaco,Consolas,Menlo,'Bitstream Vera Sans Mono','Powerline Symbols',monospace" font-size="1.67"><defs><symbol id="1"><text y="1.67" class="f">barf</text><text x="4.008" y="1.67" class="g">:</text><text x="5.01" y="1.67" class="h">/home/barf</text><text x="15.03" y="1.67" class="g">$</text></symbol><symbol id="2"><text y="1.67" class="f">barf</text><text x="4.008" y="1.67" class="g">:</text><text x="5.01" y="1.67" class="h">/home/barf</text><text x="15.03" y="1.67" class="g">$</text><text x="17.034" y="1.67" class="g">barf</text><text x="22.044" y="1.67" class="g">copy</text><text x="27.054" y="1.67" class="g">~/local/*</text><text x="37.074" y="1.67" class="g">~/remote/</text></symbol><symbol id="3"><text x="1.002" y="1.67" class="g">1.</text><text x="4.008" y="1.67" class="i">Copy</text><path class="j" d="M9.018 0h32v2.171h-32z"/><text x="9.018" y="1.67" class="g"></text><text x="42.084" y="1.67" class="g">0%</text><text x="45.09" y="1.67" class="g">|</text><text x="47.094" y="1.67" class="g">0B/s</text><text x="52.104" y="1.67" class="g">|</text><text x="54.108" y="1.67" class="k">0B</text><text x="57.114" y="1.67" class="g">/</text><text x="59.118" y="1.67" class="g">0B</text><text x="62.124" y="1.67" class="g">|</text><text x="64.128" y="1.67" class="k">0</text><text x="66.132" y="1.67" class="g">/</text><text x="68.136" y="1.67" class="g">0</text><text x="70.14" y="1.67" class="g">|</text><text x="72.144" y="1.67" class="g">ETA:</text><text x="77.154" y="1.67" class="l">0s</text></symbol><symbol id="4"><text x="1.002" y="1.67" class="g">1.</text><text x="4.008" y="1.67" class="i">Copy</text><path class="j" d="M9.018 0h29v2.171h-29z"/><text x="9.018" y="1.67" class="g">Syncing big...</text><text x="39.078" y="1.67" class="g">0%</text><text x="42.084" y="1.67" class="g">|</text><text x="44.088" y="1.67" class="g">0B/s</text><text x="49.098" y="1.67" class="g">|</text><text x="51.102" y="1.67" class="k">0B</text><text x="54.108" y="1.67" class="g">/</text><text x="56.112" y="1.67" class="g">2.9GB</text><text x="62.124" y="1.67" class="g">|</text><text x="64.128" y="1.67" class="k">1</text><text x="66.132" y="1.67" class="g">/</text><text x="68.136" y="1.67" class="g">4</text><text x="70.14" y="1.67" class="g">|</text><text x="72.144" y="1.67" class="g">ETA:</text><text x="77.154" y="1.67" class="l">0s</text></symbol><symbol id="5"><text x="1.002" y="1.67" class="g">1.</text><text x="4.008" y="1.67" class="i">Copy</text><path class="m" d="M9.018 0h3v2.171h-3z"/><text x="9.018" y="1.67" class="n">Syn</text><path class="j" d="M12.024 0h14v2.171h-14z"/><text x="12.024" y="1.67" class="g">cing big...</text><text x="27.054" y="1.67" class="g">15%</text><text x="31.062" y="1.67" class="g">|</text><text x="33.066" y="1.67" class="g">213.5MB/s</text><text x="43.086" y="1.67" class="g">|</text><text x="45.09" y="1.67" class="k">425.9MB</text><text x="53.106" y="1.67" class="g">/</text><text x="55.11" y="1.67" class="g">2.9GB</text><text x="61.122" y="1.67" class="g">|</text><text x="63.126" y="1.67" class="k">1</text><text x="65.13" y="1.67" class="g">/</text><text x="67.134" y="1.67" class="g">4</text><text x="69.138" y="1.67" class="g">|</text><text x="71.142" y="1.67" class="g">ETA:</text><text x="76.152" y="1.67" class="l">11s</text></symbol><symbol id="6"><text y="1.67" class="g">^C</text></symbol><symbol id="7"><text y="1.67" class="f">barf</text><text x="4.008" y="1.67" class="g">:</text><text x="5.01" y="1.67" class="h">/home/barf</text><text x="15.03" y="1.67" class="g">$</text><text x="17.034" y="1.67" class="g">barf</text><text x="22.044" y="1.67" class="g">monitor</text></symbol><symbol id="8"><text x="1.002" y="1.67" class="g">1.</text><text x="4.008" y="1.67" class="i">Copy</text><path class="m" d="M9.018 0h11v2.171h-11z"/><text x="9.018" y="1.67" class="n">Syncing hug</text><path class="j" d="M20.04 0h9v2.171h-9z"/><text x="20.04" y="1.67" class="g">e...</text><text x="30.06" y="1.67" class="g">53%</text><text x="34.068" y="1.67" class="g">|</text><text x="36.072" y="1.67" class="g">214.1MB/s</text><text x="46.092" y="1.67" class="g">|</text><text x="48.096" y="1.67" class="k">1.5GB</text><text x="54.108" y="1.67" class="g">/</text><text x="56.112" y="1.67" class="g">2.9GB</text><text x="62.124" y="1.67" class="g">|</text><text x="64.128" y="1.67" class="k">2</text><text x="66.132" y="1.67" class="g">/</text><text x="68.136" y="1.67" class="g">4</text><text x="70.14" y="1.67" class="g">|</text><text x="72.144" y="1.67" class="g">ETA:</text><text x="77.154" y="1.67" class="l">6s</text></symbol><symbol id="9"><text x="1.002" y="1.67" class="g">1.</text><text x="4.008" y="1.67" class="i">Copy</text><path class="m" d="M9.018 0h12v2.171h-12z"/><text x="9.018" y="1.67" class="n">Syncing huge</text><path class="j" d="M21.042 0h8v2.171h-8z"/><text x="21.042" y="1.67" class="g">...</text><text x="30.06" y="1.67" class="g">59%</text><text x="34.068" y="1.67" class="g">|</text><text x="36.072" y="1.67" class="g">214.1MB/s</text><text x="46.092" y="1.67" class="g">|</text><text x="48.096" y="1.67" class="k">1.7GB</text><text x="54.108" y="1.67" class="g">/</text><text x="56.112" y="1.67" class="g">2.9GB</text><text x="62.124" y="1.67" class="g">|</text><text x="64.128" y="1.67" class="k">2</text><text x="66.132" y="1.67" class="g">/</text><text x="68.136" y="1.67" class="g">4</text><text x="70.14" y="1.67" class="g">|</text><text x="72.144" y="1.67" class="g">ETA:</text><text x="77.154" y="1.67" class="l">5s</text></symbol><symbol id="10"><text x="1.002" y="1.67" class="g">1.</text><text x="4.008" y="1.67" class="i">Copy</text><path class="m" d="M9.018 0h17v2.171h-17z"/><text x="9.018" y="1.67" class="n">Syncing huge...</text><path class="j" d="M26.052 0h3v2.171h-3z"/><text x="26.052" y="1.67" class="g"></text><text x="30.06" y="1.67" class="g">81%</text><text x="34.068" y="1.67" class="g">|</text><text x="36.072" y="1.67" class="g">214.1MB/s</text><text x="46.092" y="1.67" class="g">|</text><text x="48.096" y="1.67" class="k">2.3GB</text><text x="54.108" y="1.67" class="g">/</text><text x="56.112" y="1.67" class="g">2.9GB</text><text x="62.124" y="1.67" class="g">|</text><text x="64.128" y="1.67" class="k">2</text><text x="66.132" y="1.67" class="g">/</text><text x="68.136" y="1.67" class="g">4</text><text x="70.14" y="1.67" class="g">|</text><text x="72.144" y="1.67" class="g">ETA:</text><text x="77.154" y="1.67" class="l">2s</text></symbol><symbol id="11"><text x="1.002" y="1.67" class="g">1.</text><text x="4.008" y="1.67" class="i">Copy</text><path class="m" d="M9.018 0h17v2.171h-17z"/><text x="9.018" y="1.67" class="n">Syncing medium...</text><path class="j" d="M26.052 0h3v2.171h-3z"/><text x="26.052" y="1.67" class="g"></text><text x="30.06" y="1.67" class="g">81%</text><text x="34.068" y="1.67" class="g">|</text><text x="36.072" y="1.67" class="g">214.1MB/s</text><text x="46.092" y="1.67" class="g">|</text><text x="48.096" y="1.67" class="k">2.3GB</text><text x="54.108" y="1.67" class="g">/</text><text x="56.112" y="1.67" class="g">2.9GB</text><text x="62.124" y="1.67" class="g">|</text><text x="64.128" y="1.67" class="k">3</text><text x="66.132" y="1.67" class="g">/</text><text x="68.136" y="1.67" class="g">4</text><text x="70.14" y="1.67" class="g">|</text><text x="72.144" y="1.67" class="g">ETA:</text><text x="77.154" y="1.67" class="l">2s</text></symbol><symbol id="12"><text x="1.002" y="1.67" class="g">1.</text><text x="4.008" y="1.67" class="i">Copy</text><path class="m" d="M9.018 0h17v2.171h-17z"/><text x="9.018" y="1.67" class="n">Syncing medium...</text><path class="j" d="M26.052 0h3v2.171h-3z"/><text x="26.052" y="1.67" class="g"></text><text x="30.06" y="1.67" class="g">84%</text><text x="34.068" y="1.67" class="g">|</text><text x="36.072" y="1.67" class="g">214.1MB/s</text><text x="46.092" y="1.67" class="g">|</text><text x="48.096" y="1.67" class="k">2.4GB</text><text x="54.108" y="1.67" class="g">/</text><text x="56.112" y="1.67" class="g">2.9GB</text><text x="62.124" y="1.67" class="g">|</text><text x="64.128" y="1.67" class="k">3</text><text x="66.132" y="1.67" class="g">/</text><text x="68.136" y="1.67" class="g">4</text><text x="70.14" y="1.67" class="g">|</text><text x="72.144" y="1.67" class="g">ETA:</text><text x="77.154" y="1.67" class="l">2s</text></symbol><symbol id="13"><text x="1.002" y="1.67" class="g">1.</text><text x="4.008" y="1.67" class="i">Copy</text><path class="m" d="M9.018 0h18v2.171h-18z"/><text x="9.018" y="1.67" class="n">Syncing medium...</text><path class="j" d="M27.054 0h2v2.171h-2z"/><text x="27.054" y="1.67" class="g"></text><text x="30.06" y="1.67" class="g">89%</text><text x="34.068" y="1.67" class="g">|</text><text x="36.072" y="1.67" class="g">214.1MB/s</text><text x="46.092" y="1.67" class="g">|</text><text x="48.096" y="1.67" class="k">2.6GB</text><text x="54.108" y="1.67" class="g">/</text><text x="56.112" y="1.67" class="g">2.9GB</text><text x="62.124" y="1.67" class="g">|</text><text x="64.128" y="1.67" class="k">3</text><text x="66.132" y="1.67" class="g">/</text><text x="68.136" y="1.67" class="g">4</text><text x="70.14" y="1.67" class="g">|</text><text x="72.144" y="1.67" class="g">ETA:</text><text x="77.154" y="1.67" class="l">1s</text></symbol><symbol id="14"><text x="1.002" y="1.67" class="g">1.</text><text x="4.008" y="1.67" class="i">Copy</text><path class="m" d="M9.018 0h20v2.171h-20z"/><text x="9.018" y="1.67" class="n">Syncing medium...</text><text x="30.06" y="1.67" class="g">97%</text><text x="34.068" y="1.67" class="g">|</text><text x="36.072" y="1.67" class="g">214.1MB/s</text><text x="46.092" y="1.67" class="g">|</text><text x="48.096" y="1.67" class="k">2.8GB</text><text x="54.108" y="1.67" class="g">/</text><text x="56.112" y="1.67" class="g">2.9GB</text><text x="62.124" y="1.67" class="g">|</text><text x="64.128" y="1.67" class="k">3</text><text x="66.132" y="1.67" class="g">/</text><text x="68.136" y="1.67" class="g">4</text><text x="70.14" y="1.67" class="g">|</text><text x="72.144" y="1.67" class="g">ETA:</text><text x="77.154" y="1.67" class="l">1s</text></symbol><symbol id="15"><text x="1.002" y="1.67" class="g">1.</text><text x="4.008" y="1.67" class="i">Copy</text><path class="m" d="M9.018 0h20v2.171h-20z"/><text x="9.018" y="1.67" class="n">Syncing small...</text><text x="30.06" y="1.67" class="g">97%</text><text x="34.068" y="1.67" class="g">|</text><text x="36.072" y="1.67" class="g">214.1MB/s</text><text x="46.092" y="1.67" class="g">|</text><text x="48.096" y="1.67" class="k">2.8GB</text><text x="54.108" y="1.67" class="g">/</text><text x="56.112" y="1.67" class="g">2.9GB</text><text x="62.124" y="1.67" class="g">|</text><text x="64.128" y="1.67" class="k">4</text><text x="66.132" y="1.67" class="g">/</text><text x="68.136" y="1.67" class="g">4</text><text x="70.14" y="1.67" class="g">|</text><text x="72.144" y="1.67" class="g">ETA:</text><text x="77.154" y="1.67" class="l">1s</text></symbol><symbol id="16"><text x="1.002" y="1.67" class="g">1.</text><text x="4.008" y="1.67" class="i">Copy</text><path class="m" d="M9.018 0h23v2.171h-23z"/><text x="9.018" y="1.67" class="n">Completed successfully!</text><text x="33.066" y="1.67" class="g">100%</text><text x="38.076" y="1.67" class="g">|</text><text x="40.08" y="1.67" class="g">236.7MB/s</text><text x="50.1" y="1.67" class="g">|</text><text x="52.104" y="1.67" class="k">2.9GB</text><text x="58.116" y="1.67" class="g">/</text><text x="60.12" y="1.67" class="k">2.9GB</text><text x="66.132" y="1.67" class="g">|</text><text x="68.136" y="1.67" class="k">4</text><text x="70.14" y="1.67" class="g">/</text><text x="72.144" y="1.67" class="k">4</text><text x="74.148" y="1.67" class="g">|</text><text x="76.152" y="1.67" class="l">14s</text></symbol><symbol id="a"><path fill="transparent" d="M0 0h132v21H0z"/></symbol></defs><path class="a" d="M0 0h132v43.42H0z"/><g style="animation-duration:20.810173s;animation-iteration-count:infinite;animation-name:p;animation-timing-function:steps(1,end)"><svg width="10296"><svg><use xlink:href="#a"/></svg><svg x="132"><use xlink:href="#a"/><use xlink:href="#1" y="2.171"/></svg><svg x="264"><use xlink:href="#a"/><use xlink:href="#2" y="2.171"/></svg><svg x="396"><use xlink:href="#a"/><use xlink:href="#2" y="2.171"/><use xlink:href="#3" y="4.342"/></svg><svg x="528"><use xlink:href="#a"/><use xlink:href="#2" y="2.171"/></svg><svg x="660"><use xlink:href="#a"/><use xlink:href="#2" y="2.171"/><text x="1.002" y="6.012" class="g">1.</text><text x="4.008" y="6.012" class="i">Copy</text><path class="j" d="M9.018 4.342h29v2.171h-29z"/><text x="9.018" y="6.012" class="g">Syncing...</text><text x="39.078" y="6.012" class="g">0%</text><text x="42.084" y="6.012" class="g">|</text><text x="44.088" y="6.012" class="g">0B/s</text><text x="49.098" y="6.012" class="g">|</text><text x="51.102" y="6.012" class="k">0B</text><text x="54.108" y="6.012" class="g">/</text><text x="56.112" y="6.012" class="g">2.9GB</text><text x="62.124" y="6.012" class="g">|</text><text x="64.128" y="6.012" class="k">0</text><text x="66.132" y="6.012" class="g">/</text><text x="68.136" y="6.012" class="g">4</text><text x="70.14" y="6.012" class="g">|</text><text x="72.144" y="6.012" class="g">ETA:</text><text x="77.154" y="6.012" class="l">0s</text></svg><svg x="792"><use xlink:href="#a"/><use xlink:href="#2" y="2.171"/></svg><svg x="924"><use xlink:href="#a"/><use xlink:href="#2" y="2.171"/><use xlink:href="#4" y="4.342"/></svg><svg x="1056"><use xlink:href="#a"/><use xlink:href="#2" y="2.171"/><use xlink:href="#4" y="4.342"/></svg><svg x="1188"><use xlink:href="#a"/><use xlink:href="#2" y="2.171"/></svg><svg x="1320"><use xlink:href="#a"/><use xlink:href="#2" y="2.171"/><text x="1.002" y="6.012" class="g">1.</text><text x="4.008" y="6.012" class="i">Copy</text><path class="j" d="M9.018 4.342h25v2.171h-25z"/><text x="9.018" y="6.012" class="g">Syncing big...</text><text x="35.07" y="6.012" class="g">0%</text><text x="38.076" y="6.012" class="g">|</text><text x="40.08" y="6.012" class="g">0B/s</text><text x="45.09" y="6.012" class="g">|</text><text x="47.094" y="6.012" class="k">32.0KB</text><text x="54.108" y="6.012" class="g">/</text><text x="56.112" y="6.012" class="g">2.9GB</text><text x="62.124" y="6.012" class="g">|</text><text x="64.128" y="6.012" class="k">1</text><text x="66.132" y="6.012" class="g">/</text><text x="68.136" y="6.012" class="g">4</text><text x="70.14" y="6.012" class="g">|</text><text x="72.144" y="6.012" class="g">ETA:</text><text x="77.154" y="6.012" class="l">0s</text></svg><svg x="1452"><use xlink:href="#a"/><use xlink:href="#2" y="2.171"/></svg><svg x="1584"><use xlink:href="#a"/><use xlink:href="#2" y="2.171"/><text x="1.002" y="6.012" class="g">1.</text><text x="4.008" y="6.012" class="i">Copy</text><path class="m" d="M9.018 4.342h2v2.171h-2z"/><text x="9.018" y="6.012" class="n">Sy</text><path class="j" d="M11.022 4.342h16v2.171h-16z"/><text x="11.022" y="6.012" class="g">ncing big...</text><text x="28.056" y="6.012" class="g">8%</text><text x="31.062" y="6.012" class="g">|</text><text x="33.066" y="6.012" class="g">214.1MB/s</text><text x="43.086" y="6.012" class="g">|</text><text x="45.09" y="6.012" class="k">214.1MB</text><text x="53.106" y="6.012" class="g">/</text><text x="55.11" y="6.012" class="g">2.9GB</text><text x="61.122" y="6.012" class="g">|</text><text x="63.126" y="6.012" class="k">1</text><text x="65.13" y="6.012" class="g">/</text><text x="67.134" y="6.012" class="g">4</text><text x="69.138" y="6.012" class="g">|</text><text x="71.142" y="6.012" class="g">ETA:</text><text x="76.152" y="6.012" class="l">12s</text></svg><svg x="1716"><use xlink:href="#a"/><use xlink:href="#2" y="2.171"/><use xlink:href="#5" y="4.342"/></svg><svg x="1848"><use xlink:href="#a"/><use xlink:href="#2" y="2.171"/><use xlink:href="#5" y="4.342"/></svg><svg x="1980"><use xlink:href="#a"/><use xlink:href="#2" y="2.171"/><use xlink:href="#5" y="4.342"/><use xlink:href="#6" y="6.513"/></svg><svg x="2112"><use xlink:href="#a"/><use xlink:href="#2" y="2.171"/><use xlink:href="#5" y="4.342"/><use xlink:href="#6" y="6.513"/><use xlink:href="#1" y="10.855"/></svg><svg x="2244"><use xlink:href="#a"/><use xlink:href="#2" y="2.171"/><use xlink:href="#5" y="4.342"/><use xlink:href="#6" y="6.513"/><use xlink:href="#7" y="10.855"/></svg><svg x="2376"><use xlink:href="#a"/><use xlink:href="#2" y="2.171"/><use xlink:href="#5" y="4.342"/><use xlink:href="#6" y="6.513"/><use xlink:href="#7" y="10.855"/><use xlink:href="#3" y="13.026"/></svg><svg x="2508"><use xlink:href="#a"/><use xlink:href="#2" y="2.171"/><use xlink:href="#5" y="4.342"/><use xlink:href="#6" y="6.513"/><use xlink:href="#7" y="10.855"/></svg><svg x="2640"><use xlink:href="#a"/><use xlink:href="#2" y="2.171"/><use xlink:href="#5" y="4.342"/><use xlink:href="#6" y="6.513"/><use xlink:href="#7" y="10.855"/><text x="1.002" y="14.696" class="g">1.</text><text x="4.008" y="14.696" class="i">Copy</text><path class="m" d="M9.018 13.026h10v2.171h-10z"/><text x="9.018" y="14.696" class="n">Syncing hu</text><path class="j" d="M19.038 13.026h10v2.171h-10z"/><text x="19.038" y="14.696" class="g">ge...</text><text x="30.06" y="14.696" class="g">48%</text><text x="34.068" y="14.696" class="g">|</text><text x="36.072" y="14.696" class="g">214.1MB/s</text><text x="46.092" y="14.696" class="g">|</text><text x="48.096" y="14.696" class="k">1.4GB</text><text x="54.108" y="14.696" class="g">/</text><text x="56.112" y="14.696" class="g">2.9GB</text><text x="62.124" y="14.696" class="g">|</text><text x="64.128" y="14.696" class="k">2</text><text x="66.132" y="14.696" class="g">/</text><text x="68.136" y="14.696" class="g">4</text><text x="70.14" y="14.696" class="g">|</text><text x="72.144" y="14.696" class="g">ETA:</text><text x="77.154" y="14.696" class="l">7s</text></svg><svg x="2772"><use xlink:href="#a"/><use xlink:href="#2" y="2.171"/><use xlink:href="#5" y="4.342"/><use xlink:href="#6" y="6.513"/><use xlink:href="#7" y="10.855"/></svg><svg x="2904"><use xlink:href="#a"/><use xlink:href="#2" y="2.171"/><use xlink:href="#5" y="4.342"/><use xlink:href="#6" y="6.513"/><use xlink:href="#7" y="10.855"/><use xlink:href="#8" y="13.026"/></svg><svg x="3036"><use xlink:href="#a"/><use xlink:href="#2" y="2.171"/><use xlink:href="#5" y="4.342"/><use xlink:href="#6" y="6.513"/><use xlink:href="#7" y="10.855"/><use xlink:href="#8" y="13.026"/></svg><svg x="3168"><use xlink:href="#a"/><use xlink:href="#2" y="2.171"/><use xlink:href="#5" y="4.342"/><use xlink:href="#6" y="6.513"/><use xlink:href="#7" y="10.855"/></svg><svg x="3300"><use xlink:href="#a"/><use xlink:href="#2" y="2.171"/><use xlink:href="#5" y="4.342"/><use xlink:href="#6" y="6.513"/><use xlink:href="#7" y="10.855"/><use xlink:href="#9" y="13.026"/></svg><svg x="3432"><use xlink:href="#a"/><use xlink:href="#2" y="2.171"/><use xlink:href="#5" y="4.342"/><use xlink:href="#6" y="6.513"/><use xlink:href="#7" y="10.855"/><use xlink:href="#9" y="13.026"/></svg><svg x="3564"><use xlink:href="#a"/><use xlink:href="#2" y="2.171"/><use xlink:href="#5" y="4.342"/><use xlink:href="#6" y="6.513"/><use xlink:href="#7" y="10.855"/><use xlink:href="#9" y="13.026"/></svg><svg x="3696"><use xlink:href="#a"/><use xlink:href="#2" y="2.171"/><use xlink:href="#5" y="4.342"/><use xlink:href="#6" y="6.513"/><use xlink:href="#7" y="10.855"/><use xlink:href="#9" y="13.026"/></svg><svg x="3828"><use xlink:href="#a"/><use xlink:href="#2" y="2.171"/><use xlink:href="#5" y="4.342"/><use xlink:href="#6" y="6.513"/><use xlink:href="#7" y="10.855"/><use xlink:href="#9" y="13.026"/></svg><svg x="3960"><use xlink:href="#a"/><use xlink:href="#2" y="2.171"/><use xlink:href="#5" y="4.342"/><use xlink:href="#6" y="6.513"/><use xlink:href="#7" y="10.855"/></svg><svg x="4092"><use xlink:href="#a"/><use xlink:href="#2" y="2.171"/><use xlink:href="#5" y="4.342"/><use xlink:href="#6" y="6.513"/><use xlink:href="#7" y="10.855"/><text x="1.002" y="14.696" class="g">1.</text><text x="4.008" y="14.696" class="i">Copy</text><path class="m" d="M9.018 13.026h13v2.171h-13z"/><text x="9.018" y="14.696" class="n">Syncing huge.</text><path class="j" d="M22.044 13.026h7v2.171h-7z"/><text x="22.044" y="14.696" class="g">..</text><text x="30.06" y="14.696" class="g">64%</text><text x="34.068" y="14.696" class="g">|</text><text x="36.072" y="14.696" class="g">214.1MB/s</text><text x="46.092" y="14.696" class="g">|</text><text x="48.096" y="14.696" class="k">1.8GB</text><text x="54.108" y="14.696" class="g">/</text><text x="56.112" y="14.696" class="g">2.9GB</text><text x="62.124" y="14.696" class="g">|</text><text x="64.128" y="14.696" class="k">2</text><text x="66.132" y="14.696" class="g">/</text><text x="68.136" y="14.696" class="g">4</text><text x="70.14" y="14.696" class="g">|</text><text x="72.144" y="14.696" class="g">ETA:</text><text x="77.154" y="14.696" class="l">5s</text></svg><svg x="4224"><use xlink:href="#a"/><use xlink:href="#2" y="2.171"/><use xlink:href="#5" y="4.342"/><use xlink:href="#6" y="6.513"/><use xlink:href="#7" y="10.855"/></svg><svg x="4356"><use xlink:href="#a"/><use xlink:href="#2" y="2.171"/><use xlink:href="#5" y="4.342"/><use xlink:href="#6" y="6.513"/><use xlink:href="#7" y="10.855"/><text x="1.002" y="14.696" class="g">1.</text><text x="4.008" y="14.696" class="i">Copy</text><path class="m" d="M9.018 13.026h15v2.171h-15z"/><text x="9.018" y="14.696" class="n">Syncing huge...</text><path class="j" d="M24.048 13.026h5v2.171h-5z"/><text x="24.048" y="14.696" class="g"></text><text x="30.06" y="14.696" class="g">71%</text><text x="34.068" y="14.696" class="g">|</text><text x="36.072" y="14.696" class="g">214.1MB/s</text><text x="46.092" y="14.696" class="g">|</text><text x="48.096" y="14.696" class="k">2.0GB</text><text x="54.108" y="14.696" class="g">/</text><text x="56.112" y="14.696" class="g">2.9GB</text><text x="62.124" y="14.696" class="g">|</text><text x="64.128" y="14.696" class="k">2</text><text x="66.132" y="14.696" class="g">/</text><text x="68.136" y="14.696" class="g">4</text><text x="70.14" y="14.696" class="g">|</text><text x="72.144" y="14.696" class="g">ETA:</text><text x="77.154" y="14.696" class="l">4s</text></svg><svg x="4488"><use xlink:href="#a"/><use xlink:href="#2" y="2.171"/><use xlink:href="#5" y="4.342"/><use xlink:href="#6" y="6.513"/><use xlink:href="#7" y="10.855"/></svg><svg x="4620"><use xlink:href="#a"/><use xlink:href="#2" y="2.171"/><use xlink:href="#5" y="4.342"/><use xlink:href="#6" y="6.513"/><use xlink:href="#7" y="10.855"/><text x="1.002" y="14.696" class="g">1.</text><text x="4.008" y="14.696" class="i">Copy</text><path class="m" d="M9.018 13.026h16v2.171h-16z"/><text x="9.018" y="14.696" class="n">Syncing huge...</text><path class="j" d="M25.05 13.026h4v2.171h-4z"/><text x="25.05" y="14.696" class="g"></text><text x="30.06" y="14.696" class="g">78%</text><text x="34.068" y="14.696" class="g">|</text><text x="36.072" y="14.696" class="g">214.1MB/s</text><text x="46.092" y="14.696" class="g">|</text><text x="48.096" y="14.696" class="k">2.2GB</text><text x="54.108" y="14.696" class="g">/</text><text x="56.112" y="14.696" class="g">2.9GB</text><text x="62.124" y="14.696" class="g">|</text><text x="64.128" y="14.696" class="k">2</text><text x="66.132" y="14.696" class="g">/</text><text x="68.136" y="14.696" class="g">4</text><text x="70.14" y="14.696" class="g">|</text><text x="72.144" y="14.696" class="g">ETA:</text><text x="77.154" y="14.696" class="l">3s</text></svg><svg x="4752"><use xlink:href="#a"/><use xlink:href="#2" y="2.171"/><use xlink:href="#5" y="4.342"/><use xlink:href="#6" y="6.513"/><use xlink:href="#7" y="10.855"/><use xlink:href="#10" y="13.026"/></svg><svg x="4884"><use xlink:href="#a"/><use xlink:href="#2" y="2.171"/><use xlink:href="#5" y="4.342"/><use xlink:href="#6" y="6.513"/><use xlink:href="#7" y="10.855"/><use xlink:href="#10" y="13.026"/></svg><svg x="5016"><use xlink:href="#a"/><use xlink:href="#2" y="2.171"/><use xlink:href="#5" y="4.342"/><use xlink:href="#6" y="6.513"/><use xlink:href="#7" y="10.855"/><use xlink:href="#11" y="13.026"/></svg><svg x="5148"><use xlink:href="#a"/><use xlink:href="#2" y="2.171"/><use xlink:href="#5" y="4.342"/><use xlink:href="#6" y="6.513"/><use xlink:href="#7" y="10.855"/></svg><svg x="5280"><use xlink:href="#a"/><use xlink:href="#2" y="2.171"/><use xlink:href="#5" y="4.342"/><use xlink:href="#6" y="6.513"/><use xlink:href="#7" y="10.855"/><use xlink:href="#11" y="13.026"/></svg><svg x="5412"><use xlink:href="#a"/><use xlink:href="#2" y="2.171"/><use xlink:href="#5" y="4.342"/><use xlink:href="#6" y="6.513"/><use xlink:href="#7" y="10.855"/><use xlink:href="#11" y="13.026"/></svg><svg x="5544"><use xlink:href="#a"/><use xlink:href="#2" y="2.171"/><use xlink:href="#5" y="4.342"/><use xlink:href="#6" y="6.513"/><use xlink:href="#7" y="10.855"/><use xlink:href="#11" y="13.026"/></svg><svg x="5676"><use xlink:href="#a"/><use xlink:href="#2" y="2.171"/><use xlink:href="#5" y="4.342"/><use xlink:href="#6" y="6.513"/><use xlink:href="#7" y="10.855"/><use xlink:href="#11" y="13.026"/></svg><svg x="5808"><use xlink:href="#a"/><use xlink:href="#2" y="2.171"/><use xlink:href="#5" y="4.342"/><use xlink:href="#6" y="6.513"/><use xlink:href="#7" y="10.855"/></svg><svg x="5940"><use xlink:href="#a"/><use xlink:href="#2" y="2.171"/><use xlink:href="#5" y="4.342"/><use xlink:href="#6" y="6.513"/><use xlink:href="#7" y="10.855"/><use xlink:href="#11" y="13.026"/></svg><svg x="6072"><use xlink:href="#a"/><use xlink:href="#2" y="2.171"/><use xlink:href="#5" y="4.342"/><use xlink:href="#6" y="6.513"/><use xlink:href="#7" y="10.855"/><use xlink:href="#11" y="13.026"/></svg><svg x="6204"><use xlink:href="#a"/><use xlink:href="#2" y="2.171"/><use xlink:href="#5" y="4.342"/><use xlink:href="#6" y="6.513"/><use xlink:href="#7" y="10.855"/><use xlink:href="#11" y="13.026"/></svg><svg x="6336"><use xlink:href="#a"/><use xlink:href="#2" y="2.171"/><use xlink:href="#5" y="4.342"/><use xlink:href="#6" y="6.513"/><use xlink:href="#7" y="10.855"/><use xlink:href="#12" y="13.026"/></svg><svg x="6468"><use xlink:href="#a"/><use xlink:href="#2" y="2.171"/><use xlink:href="#5" y="4.342"/><use xlink:href="#6" y="6.513"/><use xlink:href="#7" y="10.855"/><use xlink:href="#12" y="13.026"/></svg><svg x="6600"><use xlink:href="#a"/><use xlink:href="#2" y="2.171"/><use xlink:href="#5" y="4.342"/><use xlink:href="#6" y="6.513"/><use xlink:href="#7" y="10.855"/><use xlink:href="#12" y="13.026"/></svg><svg x="6732"><use xlink:href="#a"/><use xlink:href="#2" y="2.171"/><use xlink:href="#5" y="4.342"/><use xlink:href="#6" y="6.513"/><use xlink:href="#7" y="10.855"/><use xlink:href="#12" y="13.026"/></svg><svg x="6864"><use xlink:href="#a"/><use xlink:href="#2" y="2.171"/><use xlink:href="#5" y="4.342"/><use xlink:href="#6" y="6.513"/><use xlink:href="#7" y="10.855"/></svg><svg x="6996"><use xlink:href="#a"/><use xlink:href="#2" y="2.171"/><use xlink:href="#5" y="4.342"/><use xlink:href="#6" y="6.513"/><use xlink:href="#7" y="10.855"/><use xlink:href="#13" y="13.026"/></svg><svg x="7128"><use xlink:href="#a"/><use xlink:href="#2" y="2.171"/><use xlink:href="#5" y="4.342"/><use xlink:href="#6" y="6.513"/><use xlink:href="#7" y="10.855"/></svg><svg x="7260"><use xlink:href="#a"/><use xlink:href="#2" y="2.171"/><use xlink:href="#5" y="4.342"/><use xlink:href="#6" y="6.513"/><use xlink:href="#7" y="10.855"/><use xlink:href="#13" y="13.026"/></svg><svg x="7392"><use xlink:href="#a"/><use xlink:href="#2" y="2.171"/><use xlink:href="#5" y="4.342"/><use xlink:href="#6" y="6.513"/><use xlink:href="#7" y="10.855"/><use xlink:href="#13" y="13.026"/></svg><svg x="7524"><use xlink:href="#a"/><use xlink:href="#2" y="2.171"/><use xlink:href="#5" y="4.342"/><use xlink:href="#6" y="6.513"/><use xlink:href="#7" y="10.855"/><use xlink:href="#13" y="13.026"/></svg><svg x="7656"><use xlink:href="#a"/><use xlink:href="#2" y="2.171"/><use xlink:href="#5" y="4.342"/><use xlink:href="#6" y="6.513"/><use xlink:href="#7" y="10.855"/><use xlink:href="#14" y="13.026"/></svg><svg x="7788"><use xlink:href="#a"/><use xlink:href="#2" y="2.171"/><use xlink:href="#5" y="4.342"/><use xlink:href="#6" y="6.513"/><use xlink:href="#7" y="10.855"/><use xlink:href="#14" y="13.026"/></svg><svg x="7920"><use xlink:href="#a"/><use xlink:href="#2" y="2.171"/><use xlink:href="#5" y="4.342"/><use xlink:href="#6" y="6.513"/><use xlink:href="#7" y="10.855"/></svg><svg x="8052"><use xlink:href="#a"/><use xlink:href="#2" y="2.171"/><use xlink:href="#5" y="4.342"/><use xlink:href="#6" y="6.513"/><use xlink:href="#7" y="10.855"/><use xlink:href="#14" y="13.026"/></svg><svg x="8184"><use xlink:href="#a"/><use xlink:href="#2" y="2.171"/><use xlink:href="#5" y="4.342"/><use xlink:href="#6" y="6.513"/><use xlink:href="#7" y="10.855"/></svg><svg x="8316"><use xlink:href="#a"/><use xlink:href="#2" y="2.171"/><use xlink:href="#5" y="4.342"/><use xlink:href="#6" y="6.513"/><use xlink:href="#7" y="10.855"/><use xlink:href="#14" y="13.026"/></svg><svg x="8448"><use xlink:href="#a"/><use xlink:href="#2" y="2.171"/><use xlink:href="#5" y="4.342"/><use xlink:href="#6" y="6.513"/><use xlink:href="#7" y="10.855"/><use xlink:href="#14" y="13.026"/></svg><svg x="8580"><use xlink:href="#a"/><use xlink:href="#2" y="2.171"/><use xlink:href="#5" y="4.342"/><use xlink:href="#6" y="6.513"/><use xlink:href="#7" y="10.855"/><use xlink:href="#14" y="13.026"/></svg><svg x="8712"><use xlink:href="#a"/><use xlink:href="#2" y="2.171"/><use xlink:href="#5" y="4.342"/><use xlink:href="#6" y="6.513"/><use xlink:href="#7" y="10.855"/><use xlink:href="#15" y="13.026"/></svg><svg x="8844"><use xlink:href="#a"/><use xlink:href="#2" y="2.171"/><use xlink:href="#5" y="4.342"/><use xlink:href="#6" y="6.513"/><use xlink:href="#7" y="10.855"/><use xlink:href="#15" y="13.026"/></svg><svg x="8976"><use xlink:href="#a"/><use xlink:href="#2" y="2.171"/><use xlink:href="#5" y="4.342"/><use xlink:href="#6" y="6.513"/><use xlink:href="#7" y="10.855"/><use xlink:href="#15" y="13.026"/></svg><svg x="9108"><use xlink:href="#a"/><use xlink:href="#2" y="2.171"/><use xlink:href="#5" y="4.342"/><use xlink:href="#6" y="6.513"/><use xlink:href="#7" y="10.855"/><use xlink:href="#15" y="13.026"/></svg><svg x="9240"><use xlink:href="#a"/><use xlink:href="#2" y="2.171"/><use xlink:href="#5" y="4.342"/><use xlink:href="#6" y="6.513"/><use xlink:href="#7" y="10.855"/><use xlink:href="#15" y="13.026"/></svg><svg x="9372"><use xlink:href="#a"/><use xlink:href="#2" y="2.171"/><use xlink:href="#5" y="4.342"/><use xlink:href="#6" y="6.513"/><use xlink:href="#7" y="10.855"/></svg><svg x="9504"><use xlink:href="#a"/><use xlink:href="#2" y="2.171"/><use xlink:href="#5" y="4.342"/><use xlink:href="#6" y="6.513"/><use xlink:href="#7" y="10.855"/><use xlink:href="#15" y="13.026"/></svg><svg x="9636"><use xlink:href="#a"/><use xlink:href="#2" y="2.171"/><use xlink:href="#5" y="4.342"/><use xlink:href="#6" y="6.513"/><use xlink:href="#7" y="10.855"/></svg><svg x="9768"><use xlink:href="#a"/><use xlink:href="#2" y="2.171"/><use xlink:href="#5" y="4.342"/><use xlink:href="#6" y="6.513"/><use xlink:href="#7" y="10.855"/><use xlink:href="#16" y="13.026"/></svg><svg x="9900"><use xlink:href="#a"/><use xlink:href="#2" y="2.171"/><use xlink:href="#5" y="4.342"/><use xlink:href="#6" y="6.513"/><use xlink:href="#7" y="10.855"/><use xlink:href="#16" y="13.026"/><use xlink:href="#1" y="17.368"/></svg><svg x="10032"><use xlink:href="#a"/><use xlink:href="#2" y="2.171"/><use xlink:href="#5" y="4.342"/><use xlink:href="#6" y="6.513"/><use xlink:href="#7" y="10.855"/><use xlink:href="#16" y="13.026"/><use xlink:href="#1" y="17.368"/></svg><svg x="10164"><use xlink:href="#a"/><use xlink:href="#2" y="2.171"/><use xlink:href="#5" y="4.342"/><use xlink:href="#6" y="6.513"/><use xlink:href="#7" y="10.855"/><use xlink:href="#16" y="13.026"/><use xlink:href="#1" y="17.368"/></svg></svg></g></g></svg></svg>