<svg xmlns="http://www.w3.org/2000/svg" xmlns:xlink="http://www.w3.org/1999/xlink" width="1360" height="407.36"><rect width="1360" height="407.36" rx="5" ry="5" class="a"/><svg y="0%" x="0%"><circle cx="20" cy="20" r="6" fill="#ff5f58"/><circle cx="40" cy="20" r="6" fill="#ffbd2e"/><circle cx="60" cy="20" r="6" fill="#18c132"/></svg><svg height="347.36" viewBox="0 0 132 34.736" width="1320" x="15" xmlns="http://www.w3.org/2000/svg" xmlns:xlink="http://www.w3.org/1999/xlink" y="50"><style>@keyframes p{0%{transform:translateX(0)}.05%{transform:translateX(-132px)}1.11%{transform:translateX(-264px)}39.59%{transform:translateX(-528px)}41.36%{transform:translateX(-660px)}42.75%{transform:translateX(-1056px)}48.03%{transform:translateX(-1188px)}48.04%{transform:translateX(-1320px)}53.32%{transform:translateX(-1584px)}58.6%{transform:translateX(-1980px)}61.45%{transform:translateX(-2508px)}61.46%{transform:translateX(-3432px)}61.47%{transform:translateX(-4356px)}63.89%{transform:translateX(-4620px)}64.95%{transform:translateX(-4884px)}64.98%{transform:translateX(-5016px)}65.04%{transform:translateX(-5148px)}66.11%{transform:translateX(-5280px)}66.12%{transform:translateX(-5544px)}67.19%{transform:translateX(-6072px)}68.26%{transform:translateX(-6204px)}to{transform:translateX(-6336px)}}.a{fill:#282d35}.f,.g,.h,.i{white-space:pre}.f{fill:#a8cc8c;font-weight:700}.g,.h,.i{fill:#b9c0cb}.h,.i{fill:#71bef2;font-weight:700}.i{fill:#d290e3}.j{fill:#303030}.k,.l{fill:#a8cc8c;white-space:pre}.l{fill:#b9c0cb;font-weight:700}.m{fill:#a8cc8c}.n{white-space:pre}</style><g font-family="Monaco,Consolas,Menlo,'Bitstream Vera Sans Mono','Powerline Symbols',monospace" font-size="1.67"><defs><symbol id="1"><text y="1.67" class="f">barf</text><text x="4.008" y="1.67" class="g">:</text><text x="5.01" y="1.67" class="h">/home/barf</text><text x="15.03" y="1.67" class="g">$</text></symbol><symbol id="2"><text y="1.67" class="f">barf</text><text x="4.008" y="1.67" class="g">:</text><text x="5.01" y="1.67" class="h">/home/barf</text><text x="15.03" y="1.67" class="g">$</text><text x="17.034" y="1.67" class="g">barf</text><text x="22.044" y="1.67" class="g">copy</text><text x="27.054" y="1.67" class="g">~/local/*</text><text x="37.074" y="1.67" class="g">barf@barf:~/remote</text></symbol><symbol id="3"><text x="1.002" y="1.67" class="g">1.</text><text x="4.008" y="1.67" class="i">Copy</text><path class="j" d="M9.018 0h79v2.171h-79z"/><text x="9.018" y="1.67" class="g">Processing medium...</text><text x="89.178" y="1.67" class="g">0%</text><text x="92.184" y="1.67" class="g">|</text><text x="94.188" y="1.67" class="g">0B/s</text><text x="99.198" y="1.67" class="g">|</text><text x="101.202" y="1.67" class="k">0B</text><text x="104.208" y="1.67" class="g">/</text><text x="106.212" y="1.67" class="g">572.2MB</text><text x="114.228" y="1.67" class="g">|</text><text x="116.232" y="1.67" class="k">1</text><text x="118.236" y="1.67" class="g">/</text><text x="120.24" y="1.67" class="g">2</text><text x="122.244" y="1.67" class="g">|</text><text x="124.248" y="1.67" class="g">ETA:</text><text x="129.258" y="1.67" class="l">0s</text></symbol><symbol id="4"><text x="1.002" y="1.67" class="g">1.</text><text x="4.008" y="1.67" class="i">Copy</text><path class="m" d="M9.018 0h32v2.171h-32z"/><text x="9.018" y="1.67" class="n">Processing medium...</text><path class="j" d="M41.082 0h36v2.171h-36z"/><text x="41.082" y="1.67" class="g"></text><text x="78.156" y="1.67" class="g">48%</text><text x="82.164" y="1.67" class="g">|</text><text x="84.168" y="1.67" class="g">134.2MB/s</text><text x="94.188" y="1.67" class="g">|</text><text x="96.192" y="1.67" class="k">269.1MB</text><text x="104.208" y="1.67" class="g">/</text><text x="106.212" y="1.67" class="g">572.2MB</text><text x="114.228" y="1.67" class="g">|</text><text x="116.232" y="1.67" class="k">1</text><text x="118.236" y="1.67" class="g">/</text><text x="120.24" y="1.67" class="g">2</text><text x="122.244" y="1.67" class="g">|</text><text x="124.248" y="1.67" class="g">ETA:</text><text x="129.258" y="1.67" class="l">2s</text></symbol><symbol id="5"><text x="1.002" y="1.67" class="g">1.</text><text x="4.008" y="1.67" class="i">Copy</text><path class="m" d="M9.018 0h48v2.171h-48z"/><text x="9.018" y="1.67" class="n">Processing medium...</text><path class="j" d="M57.114 0h20v2.171h-20z"/><text x="57.114" y="1.67" class="g"></text><text x="78.156" y="1.67" class="g">70%</text><text x="82.164" y="1.67" class="g">|</text><text x="84.168" y="1.67" class="g">133.8MB/s</text><text x="94.188" y="1.67" class="g">|</text><text x="96.192" y="1.67" class="k">395.9MB</text><text x="104.208" y="1.67" class="g">/</text><text x="106.212" y="1.67" class="g">572.2MB</text><text x="114.228" y="1.67" class="g">|</text><text x="116.232" y="1.67" class="k">1</text><text x="118.236" y="1.67" class="g">/</text><text x="120.24" y="1.67" class="g">2</text><text x="122.244" y="1.67" class="g">|</text><text x="124.248" y="1.67" class="g">ETA:</text><text x="129.258" y="1.67" class="l">1s</text></symbol><symbol id="6"><text x="1.002" y="1.67" class="g">1.</text><text x="4.008" y="1.67" class="i">Copy</text><path class="m" d="M9.018 0h57v2.171h-57z"/><text x="9.018" y="1.67" class="n">Processing medium...</text><path class="j" d="M66.132 0h11v2.171h-11z"/><text x="66.132" y="1.67" class="g"></text><text x="78.156" y="1.67" class="g">84%</text><text x="82.164" y="1.67" class="g">|</text><text x="84.168" y="1.67" class="g">134.2MB/s</text><text x="94.188" y="1.67" class="g">|</text><text x="96.192" y="1.67" class="k">476.8MB</text><text x="104.208" y="1.67" class="g">/</text><text x="106.212" y="1.67" class="g">572.2MB</text><text x="114.228" y="1.67" class="g">|</text><text x="116.232" y="1.67" class="k">1</text><text x="118.236" y="1.67" class="g">/</text><text x="120.24" y="1.67" class="g">2</text><text x="122.244" y="1.67" class="g">|</text><text x="124.248" y="1.67" class="g">ETA:</text><text x="129.258" y="1.67" class="l">1s</text></symbol><symbol id="7"><text x="1.002" y="1.67" class="g">1.</text><text x="4.008" y="1.67" class="i">Copy</text><path class="m" d="M9.018 0h57v2.171h-57z"/><text x="9.018" y="1.67" class="n">Processing small...</text><path class="j" d="M66.132 0h11v2.171h-11z"/><text x="66.132" y="1.67" class="g"></text><text x="78.156" y="1.67" class="g">84%</text><text x="82.164" y="1.67" class="g">|</text><text x="84.168" y="1.67" class="g">134.2MB/s</text><text x="94.188" y="1.67" class="g">|</text><text x="96.192" y="1.67" class="k">476.8MB</text><text x="104.208" y="1.67" class="g">/</text><text x="106.212" y="1.67" class="g">572.2MB</text><text x="114.228" y="1.67" class="g">|</text><text x="116.232" y="1.67" class="k">2</text><text x="118.236" y="1.67" class="g">/</text><text x="120.24" y="1.67" class="g">2</text><text x="122.244" y="1.67" class="g">|</text><text x="124.248" y="1.67" class="g">ETA:</text><text x="129.258" y="1.67" class="l">1s</text></symbol><symbol id="8"><text x="1.002" y="1.67" class="g">1.</text><text x="4.008" y="1.67" class="i">Copy</text><path class="m" d="M9.018 0h86v2.171h-86z"/><text x="9.018" y="1.67" class="n">Finished successfully!</text><text x="96.192" y="1.67" class="g">100%</text><text x="101.202" y="1.67" class="g">|</text><text x="103.206" y="1.67" class="g">143.1MB/s</text><text x="113.226" y="1.67" class="g">|</text><text x="115.23" y="1.67" class="k">572.2MB</text><text x="123.246" y="1.67" class="g">|</text><text x="125.25" y="1.67" class="k">2</text><text x="127.254" y="1.67" class="g">|</text><text x="129.258" y="1.67" class="l">4s</text></symbol><symbol id="9"><text y="1.67" class="f">barf</text><text x="4.008" y="1.67" class="g">:</text><text x="5.01" y="1.67" class="h">/home/barf</text><text x="15.03" y="1.67" class="g">$</text><text x="17.034" y="1.67" class="g">du</text><text x="20.04" y="1.67" class="g">-ach</text><text x="25.05" y="1.67" class="g">*</text><text x="27.054" y="1.67" class="g">~/local</text></symbol><symbol id="10"><text y="1.67" class="g">477M</text><text x="8.016" y="1.67" class="g">medium</text></symbol><symbol id="11"><text y="1.67" class="g">96M</text><text x="8.016" y="1.67" class="g">small</text></symbol><symbol id="12"><text y="1.67" class="g">573M</text><text x="8.016" y="1.67" class="g">total</text></symbol><symbol id="13"><text y="1.67" class="f">barf</text><text x="4.008" y="1.67" class="g">:</text><text x="5.01" y="1.67" class="h">/home/barf</text><text x="15.03" y="1.67" class="g">$</text><text x="17.034" y="1.67" class="g">du</text><text x="20.04" y="1.67" class="g">-ach</text><text x="25.05" y="1.67" class="g">*</text><text x="27.054" y="1.67" class="g">~/remote</text></symbol><symbol id="a"><path fill="transparent" d="M0 0h132v17H0z"/></symbol></defs><path class="a" d="M0 0h132v34.736H0z"/><g style="animation-duration:18.906507s;animation-iteration-count:infinite;animation-name:p;animation-timing-function:steps(1,end)"><svg width="6468"><svg><use xlink:href="#a"/></svg><svg x="132"><use xlink:href="#a"/><use xlink:href="#1" y="2.171"/></svg><svg x="264"><use xlink:href="#a"/><use xlink:href="#2" y="2.171"/></svg><svg x="396"><use xlink:href="#a"/><use xlink:href="#2" y="2.171"/></svg><svg x="528"><use xlink:href="#a"/><use xlink:href="#2" y="2.171"/><text x="1.002" y="6.012" class="g">1.</text><text x="4.008" y="6.012" class="i">Copy</text><path class="j" d="M9.018 4.342h84v2.171h-84z"/><text x="9.018" y="6.012" class="g">Preparing...</text><text x="94.188" y="6.012" class="g">0%</text><text x="97.194" y="6.012" class="g">|</text><text x="99.198" y="6.012" class="g">0B/s</text><text x="104.208" y="6.012" class="g">|</text><text x="106.212" y="6.012" class="k">0B</text><text x="109.218" y="6.012" class="g">/</text><text x="111.222" y="6.012" class="g">0B</text><text x="114.228" y="6.012" class="g">|</text><text x="116.232" y="6.012" class="k">0</text><text x="118.236" y="6.012" class="g">/</text><text x="120.24" y="6.012" class="g">0</text><text x="122.244" y="6.012" class="g">|</text><text x="124.248" y="6.012" class="g">ETA:</text><text x="129.258" y="6.012" class="l">0s</text></svg><svg x="660"><use xlink:href="#a"/><use xlink:href="#2" y="2.171"/><text x="1.002" y="6.012" class="g">1.</text><text x="4.008" y="6.012" class="i">Copy</text><path class="j" d="M9.018 4.342h79v2.171h-79z"/><text x="9.018" y="6.012" class="g">Processing...</text><text x="89.178" y="6.012" class="g">0%</text><text x="92.184" y="6.012" class="g">|</text><text x="94.188" y="6.012" class="g">0B/s</text><text x="99.198" y="6.012" class="g">|</text><text x="101.202" y="6.012" class="k">0B</text><text x="104.208" y="6.012" class="g">/</text><text x="106.212" y="6.012" class="g">572.2MB</text><text x="114.228" y="6.012" class="g">|</text><text x="116.232" y="6.012" class="k">0</text><text x="118.236" y="6.012" class="g">/</text><text x="120.24" y="6.012" class="g">2</text><text x="122.244" y="6.012" class="g">|</text><text x="124.248" y="6.012" class="g">ETA:</text><text x="129.258" y="6.012" class="l">0s</text></svg><svg x="792"><use xlink:href="#a"/><use xlink:href="#2" y="2.171"/><use xlink:href="#3" y="4.342"/></svg><svg x="924"><use xlink:href="#a"/><use xlink:href="#2" y="2.171"/></svg><svg x="1056"><use xlink:href="#a"/><use xlink:href="#2" y="2.171"/><use xlink:href="#3" y="4.342"/></svg><svg x="1188"><use xlink:href="#a"/><use xlink:href="#2" y="2.171"/></svg><svg x="1320"><use xlink:href="#a"/><use xlink:href="#2" y="2.171"/><text x="1.002" y="6.012" class="g">1.</text><text x="4.008" y="6.012" class="i">Copy</text><path class="m" d="M9.018 4.342h1v2.171h-1z"/><text x="9.018" y="6.012" class="n">P</text><path class="j" d="M10.02 4.342h74v2.171h-74z"/><text x="10.02" y="6.012" class="g">rocessing medium...</text><text x="85.17" y="6.012" class="g">1%</text><text x="88.176" y="6.012" class="g">|</text><text x="90.18" y="6.012" class="g">0B/s</text><text x="95.19" y="6.012" class="g">|</text><text x="97.194" y="6.012" class="k">32.0KB</text><text x="104.208" y="6.012" class="g">/</text><text x="106.212" y="6.012" class="g">572.2MB</text><text x="114.228" y="6.012" class="g">|</text><text x="116.232" y="6.012" class="k">1</text><text x="118.236" y="6.012" class="g">/</text><text x="120.24" y="6.012" class="g">2</text><text x="122.244" y="6.012" class="g">|</text><text x="124.248" y="6.012" class="g">ETA:</text><text x="129.258" y="6.012" class="l">0s</text></svg><svg x="1452"><use xlink:href="#a"/><use xlink:href="#2" y="2.171"/></svg><svg x="1584"><use xlink:href="#a"/><use xlink:href="#2" y="2.171"/><text x="1.002" y="6.012" class="g">1.</text><text x="4.008" y="6.012" class="i">Copy</text><path class="m" d="M9.018 4.342h16v2.171h-16z"/><text x="9.018" y="6.012" class="n">Processing mediu</text><path class="j" d="M25.05 4.342h52v2.171h-52z"/><text x="25.05" y="6.012" class="g">m...</text><text x="78.156" y="6.012" class="g">24%</text><text x="82.164" y="6.012" class="g">|</text><text x="84.168" y="6.012" class="g">133.8MB/s</text><text x="94.188" y="6.012" class="g">|</text><text x="96.192" y="6.012" class="k">133.8MB</text><text x="104.208" y="6.012" class="g">/</text><text x="106.212" y="6.012" class="g">572.2MB</text><text x="114.228" y="6.012" class="g">|</text><text x="116.232" y="6.012" class="k">1</text><text x="118.236" y="6.012" class="g">/</text><text x="120.24" y="6.012" class="g">2</text><text x="122.244" y="6.012" class="g">|</text><text x="124.248" y="6.012" class="g">ETA:</text><text x="129.258" y="6.012" class="l">3s</text></svg><svg x="1716"><use xlink:href="#a"/><use xlink:href="#2" y="2.171"/></svg><svg x="1848"><use xlink:href="#a"/><use xlink:href="#2" y="2.171"/></svg><svg x="1980"><use xlink:href="#a"/><use xlink:href="#2" y="2.171"/><use xlink:href="#4" y="4.342"/></svg><svg x="2112"><use xlink:href="#a"/><use xlink:href="#2" y="2.171"/><use xlink:href="#4" y="4.342"/></svg><svg x="2244"><use xlink:href="#a"/><use xlink:href="#2" y="2.171"/></svg><svg x="2376"><use xlink:href="#a"/><use xlink:href="#2" y="2.171"/><use xlink:href="#5" y="4.342"/></svg><svg x="2508"><use xlink:href="#a"/><use xlink:href="#2" y="2.171"/><use xlink:href="#5" y="4.342"/></svg><svg x="2640"><use xlink:href="#a"/><use xlink:href="#2" y="2.171"/><use xlink:href="#5" y="4.342"/></svg><svg x="2772"><use xlink:href="#a"/><use xlink:href="#2" y="2.171"/><use xlink:href="#5" y="4.342"/></svg><svg x="2904"><use xlink:href="#a"/><use xlink:href="#2" y="2.171"/><use xlink:href="#5" y="4.342"/></svg><svg x="3036"><use xlink:href="#a"/><use xlink:href="#2" y="2.171"/><use xlink:href="#6" y="4.342"/></svg><svg x="3168"><use xlink:href="#a"/><use xlink:href="#2" y="2.171"/><use xlink:href="#6" y="4.342"/></svg><svg x="3300"><use xlink:href="#a"/><use xlink:href="#2" y="2.171"/><use xlink:href="#6" y="4.342"/></svg><svg x="3432"><use xlink:href="#a"/><use xlink:href="#2" y="2.171"/></svg><svg x="3564"><use xlink:href="#a"/><use xlink:href="#2" y="2.171"/><use xlink:href="#6" y="4.342"/></svg><svg x="3696"><use xlink:href="#a"/><use xlink:href="#2" y="2.171"/><use xlink:href="#6" y="4.342"/></svg><svg x="3828"><use xlink:href="#a"/><use xlink:href="#2" y="2.171"/><use xlink:href="#6" y="4.342"/></svg><svg x="3960"><use xlink:href="#a"/><use xlink:href="#2" y="2.171"/></svg><svg x="4092"><use xlink:href="#a"/><use xlink:href="#2" y="2.171"/><use xlink:href="#7" y="4.342"/></svg><svg x="4224"><use xlink:href="#a"/><use xlink:href="#2" y="2.171"/><use xlink:href="#7" y="4.342"/></svg><svg x="4356"><use xlink:href="#a"/><use xlink:href="#2" y="2.171"/><use xlink:href="#7" y="4.342"/></svg><svg x="4488"><use xlink:href="#a"/><use xlink:href="#2" y="2.171"/></svg><svg x="4620"><use xlink:href="#a"/><use xlink:href="#2" y="2.171"/><text x="1.002" y="6.012" class="g">1.</text><text x="4.008" y="6.012" class="i">Copy</text><path class="m" d="M9.018 4.342h57v2.171h-57z"/><text x="9.018" y="6.012" class="n">Processing small...</text><path class="j" d="M66.132 4.342h11v2.171h-11z"/><text x="66.132" y="6.012" class="g"></text><text x="78.156" y="6.012" class="g">84%</text><text x="82.164" y="6.012" class="g">|</text><text x="84.168" y="6.012" class="g">133.3MB/s</text><text x="94.188" y="6.012" class="g">|</text><text x="96.192" y="6.012" class="k">476.9MB</text><text x="104.208" y="6.012" class="g">/</text><text x="106.212" y="6.012" class="g">572.2MB</text><text x="114.228" y="6.012" class="g">|</text><text x="116.232" y="6.012" class="k">2</text><text x="118.236" y="6.012" class="g">/</text><text x="120.24" y="6.012" class="g">2</text><text x="122.244" y="6.012" class="g">|</text><text x="124.248" y="6.012" class="g">ETA:</text><text x="129.258" y="6.012" class="l">1s</text></svg><svg x="4752"><use xlink:href="#a"/><use xlink:href="#2" y="2.171"/><text x="1.002" y="6.012" class="g">1.</text><text x="4.008" y="6.012" class="i">Copy</text><path class="m" d="M9.018 4.342h66v2.171h-66z"/><text x="9.018" y="6.012" class="n">Processing small...</text><path class="j" d="M75.15 4.342h3v2.171h-3z"/><text x="75.15" y="6.012" class="g"></text><text x="79.158" y="6.012" class="g">96%</text><text x="83.166" y="6.012" class="g">|</text><text x="85.17" y="6.012" class="g">99.7MB/s</text><text x="94.188" y="6.012" class="g">|</text><text x="96.192" y="6.012" class="k">544.1MB</text><text x="104.208" y="6.012" class="g">/</text><text x="106.212" y="6.012" class="g">572.2MB</text><text x="114.228" y="6.012" class="g">|</text><text x="116.232" y="6.012" class="k">2</text><text x="118.236" y="6.012" class="g">/</text><text x="120.24" y="6.012" class="g">2</text><text x="122.244" y="6.012" class="g">|</text><text x="124.248" y="6.012" class="g">ETA:</text><text x="129.258" y="6.012" class="l">1s</text></svg><svg x="4884"><use xlink:href="#a"/><use xlink:href="#2" y="2.171"/><text x="1.002" y="6.012" class="g">1.</text><text x="4.008" y="6.012" class="i">Copy</text><path class="m" d="M9.018 4.342h68v2.171h-68z"/><text x="9.018" y="6.012" class="n">Processing small...</text><text x="78.156" y="6.012" class="g">100%</text><text x="83.166" y="6.012" class="g">|</text><text x="85.17" y="6.012" class="g">73.4MB/s</text><text x="94.188" y="6.012" class="g">|</text><text x="96.192" y="6.012" class="k">572.2MB</text><text x="104.208" y="6.012" class="g">/</text><text x="106.212" y="6.012" class="g">572.2MB</text><text x="114.228" y="6.012" class="g">|</text><text x="116.232" y="6.012" class="k">2</text><text x="118.236" y="6.012" class="g">/</text><text x="120.24" y="6.012" class="g">2</text><text x="122.244" y="6.012" class="g">|</text><text x="124.248" y="6.012" class="g">ETA:</text><text x="129.258" y="6.012" class="l">1s</text></svg><svg x="5016"><use xlink:href="#a"/><use xlink:href="#2" y="2.171"/><use xlink:href="#8" y="4.342"/></svg><svg x="5148"><use xlink:href="#a"/><use xlink:href="#2" y="2.171"/><use xlink:href="#8" y="4.342"/><use xlink:href="#1" y="8.684"/></svg><svg x="5280"><use xlink:href="#a"/><use xlink:href="#2" y="2.171"/><use xlink:href="#8" y="4.342"/><use xlink:href="#9" y="8.684"/></svg><svg x="5412"><use xlink:href="#a"/><use xlink:href="#2" y="2.171"/><use xlink:href="#8" y="4.342"/><use xlink:href="#9" y="8.684"/><use xlink:href="#10" y="10.855"/><use xlink:href="#11" y="13.026"/></svg><svg x="5544"><use xlink:href="#a"/><use xlink:href="#2" y="2.171"/><use xlink:href="#8" y="4.342"/><use xlink:href="#9" y="8.684"/><use xlink:href="#10" y="10.855"/><use xlink:href="#11" y="13.026"/><use xlink:href="#12" y="15.197"/><use xlink:href="#1" y="19.539"/></svg><svg x="5676"><use xlink:href="#a"/><use xlink:href="#2" y="2.171"/><use xlink:href="#8" y="4.342"/><use xlink:href="#9" y="8.684"/><use xlink:href="#10" y="10.855"/><use xlink:href="#11" y="13.026"/><use xlink:href="#12" y="15.197"/><use xlink:href="#13" y="19.539"/></svg><svg x="5808"><use xlink:href="#a"/><use xlink:href="#2" y="2.171"/><use xlink:href="#8" y="4.342"/><use xlink:href="#9" y="8.684"/><use xlink:href="#10" y="10.855"/><use xlink:href="#11" y="13.026"/><use xlink:href="#12" y="15.197"/><use xlink:href="#13" y="19.539"/><use xlink:href="#10" y="21.71"/><use xlink:href="#11" y="23.881"/></svg><svg x="5940"><use xlink:href="#a"/><use xlink:href="#2" y="2.171"/><use xlink:href="#8" y="4.342"/><use xlink:href="#9" y="8.684"/><use xlink:href="#10" y="10.855"/><use xlink:href="#11" y="13.026"/><use xlink:href="#12" y="15.197"/><use xlink:href="#13" y="19.539"/><use xlink:href="#10" y="21.71"/><use xlink:href="#11" y="23.881"/><use xlink:href="#12" y="26.052"/></svg><svg x="6072"><use xlink:href="#a"/><use xlink:href="#2" y="2.171"/><use xlink:href="#8" y="4.342"/><use xlink:href="#9" y="8.684"/><use xlink:href="#10" y="10.855"/><use xlink:href="#11" y="13.026"/><use xlink:href="#12" y="15.197"/><use xlink:href="#13" y="19.539"/><use xlink:href="#10" y="21.71"/><use xlink:href="#11" y="23.881"/><use xlink:href="#12" y="26.052"/><use xlink:href="#1" y="30.394"/></svg><svg x="6204"><use xlink:href="#a"/><use xlink:href="#2" y="2.171"/><use xlink:href="#8" y="4.342"/><use xlink:href="#9" y="8.684"/><use xlink:href="#10" y="10.855"/><use xlink:href="#11" y="13.026"/><use xlink:href="#12" y="15.197"/><use xlink:href="#13" y="19.539"/><use xlink:href="#10" y="21.71"/><use xlink:href="#11" y="23.881"/><use xlink:href="#12" y="26.052"/><use xlink:href="#1" y="30.394"/></svg><svg x="6336"><use xlink:href="#a"/><use xlink:href="#2" y="2.171"/><use xlink:href="#8" y="4.342"/><use xlink:href="#9" y="8.684"/><use xlink:href="#10" y="10.855"/><use xlink:href="#11" y="13.026"/><use xlink:href="#12" y="15.197"/><use xlink:href="#13" y="19.539"/><use xlink:href="#10" y="21.71"/><use xlink:href="#11" y="23.881"/><use xlink:href="#12" y="26.052"/><use xlink:href="#1" y="30.394"/></svg></svg></g></g></svg></svg>