<svg xmlns="http://www.w3.org/2000/svg" xmlns:xlink="http://www.w3.org/1999/xlink" width="1360" height="494.2"><rect width="1360" height="494.2" rx="5" ry="5" class="a"/><svg y="0%" x="0%"><circle cx="20" cy="20" r="6" fill="#ff5f58"/><circle cx="40" cy="20" r="6" fill="#ffbd2e"/><circle cx="60" cy="20" r="6" fill="#18c132"/></svg><svg height="434.2" viewBox="0 0 132 43.42" width="1320" x="15" xmlns="http://www.w3.org/2000/svg" xmlns:xlink="http://www.w3.org/1999/xlink" y="50"><style>@keyframes p{0%{transform:translateX(0)}.03%{transform:translateX(-132px)}.56%{transform:translateX(-396px)}5.73%{transform:translateX(-528px)}6.25%{transform:translateX(-660px)}8.83%{transform:translateX(-792px)}8.85%{transform:translateX(-1056px)}8.87%{transform:translateX(-1320px)}14.02%{transform:translateX(-1584px)}19.17%{transform:translateX(-1980px)}24.32%{transform:translateX(-2244px)}29.47%{transform:translateX(-2772px)}34.62%{transform:translateX(-3300px)}39.77%{transform:translateX(-3828px)}41.27%{transform:translateX(-3960px)}41.28%{transform:translateX(-4092px)}41.58%{transform:translateX(-4224px)}41.59%{transform:translateX(-4884px)}41.86%{transform:translateX(-5148px)}44.92%{transform:translateX(-5412px)}50.07%{transform:translateX(-5808px)}55.22%{transform:translateX(-6072px)}57.29%{transform:translateX(-6600px)}57.35%{transform:translateX(-7260px)}57.41%{transform:translateX(-7656px)}60.37%{transform:translateX(-7920px)}65.52%{transform:translateX(-8448px)}65.53%{transform:translateX(-8844px)}65.81%{transform:translateX(-9108px)}66.1%{transform:translateX(-9504px)}66.38%{transform:translateX(-9900px)}67.14%{transform:translateX(-10164px)}67.35%{transform:translateX(-10296px)}67.36%{transform:translateX(-10428px)}73.14%{transform:translateX(-10560px)}73.67%{transform:translateX(-10692px)}73.68%{transform:translateX(-11088px)}74.21%{transform:translateX(-11220px)}to{transform:translateX(-11352px)}}.a{fill:#282d35}.f,.g,.h,.i{white-space:pre}.f{fill:#a8cc8c;font-weight:700}.g,.h,.i{fill:#b9c0cb}.h,.i{fill:#71bef2;font-weight:700}.i{fill:#d290e3}.j{fill:#a8cc8c}.k{white-space:pre}.l{fill:#303030}.m,.n{fill:#a8cc8c;white-space:pre}.n{fill:#b9c0cb;font-weight:700}</style><g font-family="Monaco,Consolas,Menlo,'Bitstream Vera Sans Mono','Powerline Symbols',monospace" font-size="1.67"><defs><symbol id="1"><text y="1.67" class="f">barf</text><text x="4.008" y="1.67" class="g">:</text><text x="5.01" y="1.67" class="h">/home/barf</text><text x="15.03" y="1.67" class="g">$</text></symbol><symbol id="2"><text y="1.67" class="f">barf</text><text x="4.008" y="1.67" class="g">:</text><text x="5.01" y="1.67" class="h">/home/barf</text><text x="15.03" y="1.67" class="g">$</text><text x="17.034" y="1.67" class="g">ls</text><text x="20.04" y="1.67" class="g">-sh</text><text x="24.048" y="1.67" class="g">-1</text><text x="27.054" y="1.67" class="g">~/from</text></symbol><symbol id="3"><text y="1.67" class="g">total</text><text x="6.012" y="1.67" class="g">3,4G</text></symbol><symbol id="4"><text y="1.67" class="g">1,9G</text><text x="5.01" y="1.67" class="g">01_very_big_file.bin</text></symbol><symbol id="5"><text y="1.67" class="g">954M</text><text x="5.01" y="1.67" class="g">02_big_file.bin</text></symbol><symbol id="6"><text y="1.67" class="g">477M</text><text x="5.01" y="1.67" class="g">03_medium_file.bin</text></symbol><symbol id="7"><text x="1.002" y="1.67" class="g">96M</text><text x="5.01" y="1.67" class="g">04_small_file.bin</text></symbol><symbol id="8"><text y="1.67" class="f">barf</text><text x="4.008" y="1.67" class="g">:</text><text x="5.01" y="1.67" class="h">/home/barf</text><text x="15.03" y="1.67" class="g">$</text><text x="17.034" y="1.67" class="g">barf</text><text x="22.044" y="1.67" class="g">copy</text><text x="27.054" y="1.67" class="g">~/from/*</text><text x="36.072" y="1.67" class="g">~/to/</text></symbol><symbol id="9"><text x="1.002" y="1.67" class="g">1.</text><text x="4.008" y="1.67" class="i">Copy</text><path class="j" d="M9.018 0h7v2.171h-7z"/><text x="9.018" y="1.67" class="k">Syncing</text><path class="l" d="M16.032 0h63v2.171h-63z"/><text x="16.032" y="1.67" class="g">01_very_big_file.bin...</text><text x="80.16" y="1.67" class="g">10%</text><text x="84.168" y="1.67" class="g">|</text><text x="86.172" y="1.67" class="g">317.6MB/s</text><text x="96.192" y="1.67" class="g">|</text><text x="98.196" y="1.67" class="m">317.6MB</text><text x="106.212" y="1.67" class="g">/</text><text x="108.216" y="1.67" class="g">3.4GB</text><text x="114.228" y="1.67" class="g">|</text><text x="116.232" y="1.67" class="m">1</text><text x="118.236" y="1.67" class="g">/</text><text x="120.24" y="1.67" class="g">4</text><text x="122.244" y="1.67" class="g">|</text><text x="124.248" y="1.67" class="g">ETA:</text><text x="129.258" y="1.67" class="n">9s</text></symbol><symbol id="10"><text x="1.002" y="1.67" class="g">1.</text><text x="4.008" y="1.67" class="i">Copy</text><path class="j" d="M9.018 0h20v2.171h-20z"/><text x="9.018" y="1.67" class="k">Syncing 01_very_big_</text><path class="l" d="M29.058 0h50v2.171h-50z"/><text x="29.058" y="1.67" class="g">file.bin...</text><text x="80.16" y="1.67" class="g">28%</text><text x="84.168" y="1.67" class="g">|</text><text x="86.172" y="1.67" class="g">317.4MB/s</text><text x="96.192" y="1.67" class="g">|</text><text x="98.196" y="1.67" class="m">945.6MB</text><text x="106.212" y="1.67" class="g">/</text><text x="108.216" y="1.67" class="g">3.4GB</text><text x="114.228" y="1.67" class="g">|</text><text x="116.232" y="1.67" class="m">1</text><text x="118.236" y="1.67" class="g">/</text><text x="120.24" y="1.67" class="g">4</text><text x="122.244" y="1.67" class="g">|</text><text x="124.248" y="1.67" class="g">ETA:</text><text x="129.258" y="1.67" class="n">7s</text></symbol><symbol id="11"><text x="1.002" y="1.67" class="g">1.</text><text x="4.008" y="1.67" class="i">Copy</text><path class="j" d="M9.018 0h27v2.171h-27z"/><text x="9.018" y="1.67" class="k">Syncing 01_very_big_file.bi</text><path class="l" d="M36.072 0h45v2.171h-45z"/><text x="36.072" y="1.67" class="g">n...</text><text x="82.164" y="1.67" class="g">37%</text><text x="86.172" y="1.67" class="g">|</text><text x="88.176" y="1.67" class="g">316.4MB/s</text><text x="98.196" y="1.67" class="g">|</text><text x="100.2" y="1.67" class="m">1.2GB</text><text x="106.212" y="1.67" class="g">/</text><text x="108.216" y="1.67" class="g">3.4GB</text><text x="114.228" y="1.67" class="g">|</text><text x="116.232" y="1.67" class="m">1</text><text x="118.236" y="1.67" class="g">/</text><text x="120.24" y="1.67" class="g">4</text><text x="122.244" y="1.67" class="g">|</text><text x="124.248" y="1.67" class="g">ETA:</text><text x="129.258" y="1.67" class="n">6s</text></symbol><symbol id="12"><text x="1.002" y="1.67" class="g">1.</text><text x="4.008" y="1.67" class="i">Copy</text><path class="j" d="M9.018 0h33v2.171h-33z"/><text x="9.018" y="1.67" class="k">Syncing 01_very_big_file.bin...</text><path class="l" d="M42.084 0h39v2.171h-39z"/><text x="42.084" y="1.67" class="g"></text><text x="82.164" y="1.67" class="g">46%</text><text x="86.172" y="1.67" class="g">|</text><text x="88.176" y="1.67" class="g">315.4MB/s</text><text x="98.196" y="1.67" class="g">|</text><text x="100.2" y="1.67" class="m">1.5GB</text><text x="106.212" y="1.67" class="g">/</text><text x="108.216" y="1.67" class="g">3.4GB</text><text x="114.228" y="1.67" class="g">|</text><text x="116.232" y="1.67" class="m">1</text><text x="118.236" y="1.67" class="g">/</text><text x="120.24" y="1.67" class="g">4</text><text x="122.244" y="1.67" class="g">|</text><text x="124.248" y="1.67" class="g">ETA:</text><text x="129.258" y="1.67" class="n">5s</text></symbol><symbol id="13"><text x="1.002" y="1.67" class="g">1.</text><text x="4.008" y="1.67" class="i">Copy</text><path class="j" d="M9.018 0h39v2.171h-39z"/><text x="9.018" y="1.67" class="k">Syncing 01_very_big_file.bin...</text><path class="l" d="M48.096 0h33v2.171h-33z"/><text x="48.096" y="1.67" class="g"></text><text x="82.164" y="1.67" class="g">54%</text><text x="86.172" y="1.67" class="g">|</text><text x="88.176" y="1.67" class="g">315.4MB/s</text><text x="98.196" y="1.67" class="g">|</text><text x="100.2" y="1.67" class="m">1.8GB</text><text x="106.212" y="1.67" class="g">/</text><text x="108.216" y="1.67" class="g">3.4GB</text><text x="114.228" y="1.67" class="g">|</text><text x="116.232" y="1.67" class="m">1</text><text x="118.236" y="1.67" class="g">/</text><text x="120.24" y="1.67" class="g">4</text><text x="122.244" y="1.67" class="g">|</text><text x="124.248" y="1.67" class="g">ETA:</text><text x="129.258" y="1.67" class="n">5s</text></symbol><symbol id="14"><text x="1.002" y="1.67" class="g">1.</text><text x="4.008" y="1.67" class="i">Copy</text><path class="j" d="M9.018 0h41v2.171h-41z"/><text x="9.018" y="1.67" class="k">Syncing 01_very_big_file.bin...</text><path class="l" d="M50.1 0h31v2.171h-31z"/><text x="50.1" y="1.67" class="g"></text><text x="82.164" y="1.67" class="g">56%</text><text x="86.172" y="1.67" class="g">|</text><text x="88.176" y="1.67" class="g">315.4MB/s</text><text x="98.196" y="1.67" class="g">|</text><text x="100.2" y="1.67" class="m">1.9GB</text><text x="106.212" y="1.67" class="g">/</text><text x="108.216" y="1.67" class="g">3.4GB</text><text x="114.228" y="1.67" class="g">|</text><text x="116.232" y="1.67" class="m">1</text><text x="118.236" y="1.67" class="g">/</text><text x="120.24" y="1.67" class="g">4</text><text x="122.244" y="1.67" class="g">|</text><text x="124.248" y="1.67" class="g">ETA:</text><text x="129.258" y="1.67" class="n">4s</text></symbol><symbol id="15"><text x="1.002" y="1.67" class="g">1.</text><text x="4.008" y="1.67" class="i">Copy</text><path class="j" d="M9.018 0h41v2.171h-41z"/><text x="9.018" y="1.67" class="k">Syncing 02_big_file.bin...</text><path class="l" d="M50.1 0h31v2.171h-31z"/><text x="50.1" y="1.67" class="g"></text><text x="82.164" y="1.67" class="g">56%</text><text x="86.172" y="1.67" class="g">|</text><text x="88.176" y="1.67" class="g">315.4MB/s</text><text x="98.196" y="1.67" class="g">|</text><text x="100.2" y="1.67" class="m">1.9GB</text><text x="106.212" y="1.67" class="g">/</text><text x="108.216" y="1.67" class="g">3.4GB</text><text x="114.228" y="1.67" class="g">|</text><text x="116.232" y="1.67" class="m">2</text><text x="118.236" y="1.67" class="g">/</text><text x="120.24" y="1.67" class="g">4</text><text x="122.244" y="1.67" class="g">|</text><text x="124.248" y="1.67" class="g">ETA:</text><text x="129.258" y="1.67" class="n">4s</text></symbol><symbol id="16"><text x="1.002" y="1.67" class="g">1.</text><text x="4.008" y="1.67" class="i">Copy</text><path class="j" d="M9.018 0h58v2.171h-58z"/><text x="9.018" y="1.67" class="k">Syncing 02_big_file.bin...</text><path class="l" d="M67.134 0h14v2.171h-14z"/><text x="67.134" y="1.67" class="g"></text><text x="82.164" y="1.67" class="g">80%</text><text x="86.172" y="1.67" class="g">|</text><text x="88.176" y="1.67" class="g">315.4MB/s</text><text x="98.196" y="1.67" class="g">|</text><text x="100.2" y="1.67" class="m">2.7GB</text><text x="106.212" y="1.67" class="g">/</text><text x="108.216" y="1.67" class="g">3.4GB</text><text x="114.228" y="1.67" class="g">|</text><text x="116.232" y="1.67" class="m">2</text><text x="118.236" y="1.67" class="g">/</text><text x="120.24" y="1.67" class="g">4</text><text x="122.244" y="1.67" class="g">|</text><text x="124.248" y="1.67" class="g">ETA:</text><text x="129.258" y="1.67" class="n">2s</text></symbol><symbol id="17"><text x="1.002" y="1.67" class="g">1.</text><text x="4.008" y="1.67" class="i">Copy</text><path class="j" d="M9.018 0h60v2.171h-60z"/><text x="9.018" y="1.67" class="k">Syncing 02_big_file.bin...</text><path class="l" d="M69.138 0h12v2.171h-12z"/><text x="69.138" y="1.67" class="g"></text><text x="82.164" y="1.67" class="g">84%</text><text x="86.172" y="1.67" class="g">|</text><text x="88.176" y="1.67" class="g">315.4MB/s</text><text x="98.196" y="1.67" class="g">|</text><text x="100.2" y="1.67" class="m">2.8GB</text><text x="106.212" y="1.67" class="g">/</text><text x="108.216" y="1.67" class="g">3.4GB</text><text x="114.228" y="1.67" class="g">|</text><text x="116.232" y="1.67" class="m">2</text><text x="118.236" y="1.67" class="g">/</text><text x="120.24" y="1.67" class="g">4</text><text x="122.244" y="1.67" class="g">|</text><text x="124.248" y="1.67" class="g">ETA:</text><text x="129.258" y="1.67" class="n">1s</text></symbol><symbol id="18"><text x="1.002" y="1.67" class="g">1.</text><text x="4.008" y="1.67" class="i">Copy</text><path class="j" d="M9.018 0h60v2.171h-60z"/><text x="9.018" y="1.67" class="k">Syncing 03_medium_file.bin...</text><path class="l" d="M69.138 0h12v2.171h-12z"/><text x="69.138" y="1.67" class="g"></text><text x="82.164" y="1.67" class="g">84%</text><text x="86.172" y="1.67" class="g">|</text><text x="88.176" y="1.67" class="g">315.4MB/s</text><text x="98.196" y="1.67" class="g">|</text><text x="100.2" y="1.67" class="m">2.8GB</text><text x="106.212" y="1.67" class="g">/</text><text x="108.216" y="1.67" class="g">3.4GB</text><text x="114.228" y="1.67" class="g">|</text><text x="116.232" y="1.67" class="m">3</text><text x="118.236" y="1.67" class="g">/</text><text x="120.24" y="1.67" class="g">4</text><text x="122.244" y="1.67" class="g">|</text><text x="124.248" y="1.67" class="g">ETA:</text><text x="129.258" y="1.67" class="n">1s</text></symbol><symbol id="19"><text x="1.002" y="1.67" class="g">1.</text><text x="4.008" y="1.67" class="i">Copy</text><path class="j" d="M9.018 0h64v2.171h-64z"/><text x="9.018" y="1.67" class="k">Syncing 03_medium_file.bin...</text><path class="l" d="M73.146 0h8v2.171h-8z"/><text x="73.146" y="1.67" class="g"></text><text x="82.164" y="1.67" class="g">89%</text><text x="86.172" y="1.67" class="g">|</text><text x="88.176" y="1.67" class="g">315.4MB/s</text><text x="98.196" y="1.67" class="g">|</text><text x="100.2" y="1.67" class="m">3.0GB</text><text x="106.212" y="1.67" class="g">/</text><text x="108.216" y="1.67" class="g">3.4GB</text><text x="114.228" y="1.67" class="g">|</text><text x="116.232" y="1.67" class="m">3</text><text x="118.236" y="1.67" class="g">/</text><text x="120.24" y="1.67" class="g">4</text><text x="122.244" y="1.67" class="g">|</text><text x="124.248" y="1.67" class="g">ETA:</text><text x="129.258" y="1.67" class="n">1s</text></symbol><symbol id="20"><text x="1.002" y="1.67" class="g">1.</text><text x="4.008" y="1.67" class="i">Copy</text><path class="j" d="M9.018 0h70v2.171h-70z"/><text x="9.018" y="1.67" class="k">Syncing 03_medium_file.bin...</text><path class="l" d="M79.158 0h2v2.171h-2z"/><text x="79.158" y="1.67" class="g"></text><text x="82.164" y="1.67" class="g">98%</text><text x="86.172" y="1.67" class="g">|</text><text x="88.176" y="1.67" class="g">315.4MB/s</text><text x="98.196" y="1.67" class="g">|</text><text x="100.2" y="1.67" class="m">3.3GB</text><text x="106.212" y="1.67" class="g">/</text><text x="108.216" y="1.67" class="g">3.4GB</text><text x="114.228" y="1.67" class="g">|</text><text x="116.232" y="1.67" class="m">3</text><text x="118.236" y="1.67" class="g">/</text><text x="120.24" y="1.67" class="g">4</text><text x="122.244" y="1.67" class="g">|</text><text x="124.248" y="1.67" class="g">ETA:</text><text x="129.258" y="1.67" class="n">1s</text></symbol><symbol id="21"><text x="1.002" y="1.67" class="g">1.</text><text x="4.008" y="1.67" class="i">Copy</text><path class="j" d="M9.018 0h70v2.171h-70z"/><text x="9.018" y="1.67" class="k">Syncing 04_small_file.bin...</text><path class="l" d="M79.158 0h2v2.171h-2z"/><text x="79.158" y="1.67" class="g"></text><text x="82.164" y="1.67" class="g">98%</text><text x="86.172" y="1.67" class="g">|</text><text x="88.176" y="1.67" class="g">315.4MB/s</text><text x="98.196" y="1.67" class="g">|</text><text x="100.2" y="1.67" class="m">3.3GB</text><text x="106.212" y="1.67" class="g">/</text><text x="108.216" y="1.67" class="g">3.4GB</text><text x="114.228" y="1.67" class="g">|</text><text x="116.232" y="1.67" class="m">4</text><text x="118.236" y="1.67" class="g">/</text><text x="120.24" y="1.67" class="g">4</text><text x="122.244" y="1.67" class="g">|</text><text x="124.248" y="1.67" class="g">ETA:</text><text x="129.258" y="1.67" class="n">1s</text></symbol><symbol id="22"><text x="1.002" y="1.67" class="g">1.</text><text x="4.008" y="1.67" class="i">Copy</text><path class="j" d="M9.018 0h75v2.171h-75z"/><text x="9.018" y="1.67" class="k">Completed successfully!</text><text x="85.17" y="1.67" class="g">100%</text><text x="90.18" y="1.67" class="g">|</text><text x="92.184" y="1.67" class="g">315.4MB/s</text><text x="102.204" y="1.67" class="g">|</text><text x="104.208" y="1.67" class="m">3.4GB</text><text x="110.22" y="1.67" class="g">/</text><text x="112.224" y="1.67" class="m">3.4GB</text><text x="118.236" y="1.67" class="g">|</text><text x="120.24" y="1.67" class="m">4</text><text x="122.244" y="1.67" class="g">/</text><text x="124.248" y="1.67" class="m">4</text><text x="126.252" y="1.67" class="g">|</text><text x="128.256" y="1.67" class="n">11s</text></symbol><symbol id="23"><text y="1.67" class="f">barf</text><text x="4.008" y="1.67" class="g">:</text><text x="5.01" y="1.67" class="h">/home/barf</text><text x="15.03" y="1.67" class="g">$</text><text x="17.034" y="1.67" class="g">ls</text><text x="20.04" y="1.67" class="g">-sh</text><text x="24.048" y="1.67" class="g">-1</text><text x="27.054" y="1.67" class="g">~/to</text></symbol><symbol id="a"><path fill="transparent" d="M0 0h132v21H0z"/></symbol></defs><path class="a" d="M0 0h132v43.42H0z"/><g style="animation-duration:19.40022s;animation-iteration-count:infinite;animation-name:p;animation-timing-function:steps(1,end)"><svg width="11484"><svg><use xlink:href="#a"/></svg><svg x="132"><use xlink:href="#a"/><use xlink:href="#1"/></svg><svg x="264"><use xlink:href="#a"/><use xlink:href="#2"/></svg><svg x="396"><use xlink:href="#a"/><use xlink:href="#2"/><use xlink:href="#3" y="2.171"/><use xlink:href="#4" y="4.342"/><use xlink:href="#5" y="6.513"/><use xlink:href="#6" y="8.684"/><use xlink:href="#7" y="10.855"/></svg><svg x="528"><use xlink:href="#a"/><use xlink:href="#2"/><use xlink:href="#3" y="2.171"/><use xlink:href="#4" y="4.342"/><use xlink:href="#5" y="6.513"/><use xlink:href="#6" y="8.684"/><use xlink:href="#7" y="10.855"/><use xlink:href="#1" y="15.197"/></svg><svg x="660"><use xlink:href="#a"/><use xlink:href="#2"/><use xlink:href="#3" y="2.171"/><use xlink:href="#4" y="4.342"/><use xlink:href="#5" y="6.513"/><use xlink:href="#6" y="8.684"/><use xlink:href="#7" y="10.855"/><use xlink:href="#8" y="15.197"/></svg><svg x="792"><use xlink:href="#a"/><use xlink:href="#2"/><use xlink:href="#3" y="2.171"/><use xlink:href="#4" y="4.342"/><use xlink:href="#5" y="6.513"/><use xlink:href="#6" y="8.684"/><use xlink:href="#7" y="10.855"/><use xlink:href="#8" y="15.197"/><text x="1.002" y="19.038" class="g">1.</text><text x="4.008" y="19.038" class="i">Copy</text><path class="l" d="M9.018 17.368h84v2.171h-84z"/><text x="9.018" y="19.038" class="g"></text><text x="94.188" y="19.038" class="g">0%</text><text x="97.194" y="19.038" class="g">|</text><text x="99.198" y="19.038" class="g">0B/s</text><text x="104.208" y="19.038" class="g">|</text><text x="106.212" y="19.038" class="m">0B</text><text x="109.218" y="19.038" class="g">/</text><text x="111.222" y="19.038" class="g">0B</text><text x="114.228" y="19.038" class="g">|</text><text x="116.232" y="19.038" class="m">0</text><text x="118.236" y="19.038" class="g">/</text><text x="120.24" y="19.038" class="g">0</text><text x="122.244" y="19.038" class="g">|</text><text x="124.248" y="19.038" class="g">ETA:</text><text x="129.258" y="19.038" class="n">0s</text></svg><svg x="924"><use xlink:href="#a"/><use xlink:href="#2"/><use xlink:href="#3" y="2.171"/><use xlink:href="#4" y="4.342"/><use xlink:href="#5" y="6.513"/><use xlink:href="#6" y="8.684"/><use xlink:href="#7" y="10.855"/><use xlink:href="#8" y="15.197"/></svg><svg x="1056"><use xlink:href="#a"/><use xlink:href="#2"/><use xlink:href="#3" y="2.171"/><use xlink:href="#4" y="4.342"/><use xlink:href="#5" y="6.513"/><use xlink:href="#6" y="8.684"/><use xlink:href="#7" y="10.855"/><use xlink:href="#8" y="15.197"/><text x="1.002" y="19.038" class="g">1.</text><text x="4.008" y="19.038" class="i">Copy</text><path class="l" d="M9.018 17.368h81v2.171h-81z"/><text x="9.018" y="19.038" class="g">Syncing...</text><text x="91.182" y="19.038" class="g">0%</text><text x="94.188" y="19.038" class="g">|</text><text x="96.192" y="19.038" class="g">0B/s</text><text x="101.202" y="19.038" class="g">|</text><text x="103.206" y="19.038" class="m">0B</text><text x="106.212" y="19.038" class="g">/</text><text x="108.216" y="19.038" class="g">3.4GB</text><text x="114.228" y="19.038" class="g">|</text><text x="116.232" y="19.038" class="m">0</text><text x="118.236" y="19.038" class="g">/</text><text x="120.24" y="19.038" class="g">4</text><text x="122.244" y="19.038" class="g">|</text><text x="124.248" y="19.038" class="g">ETA:</text><text x="129.258" y="19.038" class="n">0s</text></svg><svg x="1188"><use xlink:href="#a"/><use xlink:href="#2"/><use xlink:href="#3" y="2.171"/><use xlink:href="#4" y="4.342"/><use xlink:href="#5" y="6.513"/><use xlink:href="#6" y="8.684"/><use xlink:href="#7" y="10.855"/><use xlink:href="#8" y="15.197"/></svg><svg x="1320"><use xlink:href="#a"/><use xlink:href="#2"/><use xlink:href="#3" y="2.171"/><use xlink:href="#4" y="4.342"/><use xlink:href="#5" y="6.513"/><use xlink:href="#6" y="8.684"/><use xlink:href="#7" y="10.855"/><use xlink:href="#8" y="15.197"/><text x="1.002" y="19.038" class="g">1.</text><text x="4.008" y="19.038" class="i">Copy</text><path class="l" d="M9.018 17.368h81v2.171h-81z"/><text x="9.018" y="19.038" class="g">Syncing 01_very_big_file.bin...</text><text x="91.182" y="19.038" class="g">0%</text><text x="94.188" y="19.038" class="g">|</text><text x="96.192" y="19.038" class="g">0B/s</text><text x="101.202" y="19.038" class="g">|</text><text x="103.206" y="19.038" class="m">0B</text><text x="106.212" y="19.038" class="g">/</text><text x="108.216" y="19.038" class="g">3.4GB</text><text x="114.228" y="19.038" class="g">|</text><text x="116.232" y="19.038" class="m">1</text><text x="118.236" y="19.038" class="g">/</text><text x="120.24" y="19.038" class="g">4</text><text x="122.244" y="19.038" class="g">|</text><text x="124.248" y="19.038" class="g">ETA:</text><text x="129.258" y="19.038" class="n">0s</text></svg><svg x="1452"><use xlink:href="#a"/><use xlink:href="#2"/><use xlink:href="#3" y="2.171"/><use xlink:href="#4" y="4.342"/><use xlink:href="#5" y="6.513"/><use xlink:href="#6" y="8.684"/><use xlink:href="#7" y="10.855"/><use xlink:href="#8" y="15.197"/></svg><svg x="1584"><use xlink:href="#a"/><use xlink:href="#2"/><use xlink:href="#3" y="2.171"/><use xlink:href="#4" y="4.342"/><use xlink:href="#5" y="6.513"/><use xlink:href="#6" y="8.684"/><use xlink:href="#7" y="10.855"/><use xlink:href="#8" y="15.197"/><text x="1.002" y="19.038" class="g">1.</text><text x="4.008" y="19.038" class="i">Copy</text><path class="l" d="M9.018 17.368h77v2.171h-77z"/><text x="9.018" y="19.038" class="g">Syncing 01_very_big_file.bin...</text><text x="87.174" y="19.038" class="g">0%</text><text x="90.18" y="19.038" class="g">|</text><text x="92.184" y="19.038" class="g">0B/s</text><text x="97.194" y="19.038" class="g">|</text><text x="99.198" y="19.038" class="m">32.0KB</text><text x="106.212" y="19.038" class="g">/</text><text x="108.216" y="19.038" class="g">3.4GB</text><text x="114.228" y="19.038" class="g">|</text><text x="116.232" y="19.038" class="m">1</text><text x="118.236" y="19.038" class="g">/</text><text x="120.24" y="19.038" class="g">4</text><text x="122.244" y="19.038" class="g">|</text><text x="124.248" y="19.038" class="g">ETA:</text><text x="129.258" y="19.038" class="n">0s</text></svg><svg x="1716"><use xlink:href="#a"/><use xlink:href="#2"/><use xlink:href="#3" y="2.171"/><use xlink:href="#4" y="4.342"/><use xlink:href="#5" y="6.513"/><use xlink:href="#6" y="8.684"/><use xlink:href="#7" y="10.855"/><use xlink:href="#8" y="15.197"/></svg><svg x="1848"><use xlink:href="#a"/><use xlink:href="#2"/><use xlink:href="#3" y="2.171"/><use xlink:href="#4" y="4.342"/><use xlink:href="#5" y="6.513"/><use xlink:href="#6" y="8.684"/><use xlink:href="#7" y="10.855"/><use xlink:href="#8" y="15.197"/><use xlink:href="#9" y="17.368"/></svg><svg x="1980"><use xlink:href="#a"/><use xlink:href="#2"/><use xlink:href="#3" y="2.171"/><use xlink:href="#4" y="4.342"/><use xlink:href="#5" y="6.513"/><use xlink:href="#6" y="8.684"/><use xlink:href="#7" y="10.855"/><use xlink:href="#8" y="15.197"/><use xlink:href="#9" y="17.368"/></svg><svg x="2112"><use xlink:href="#a"/><use xlink:href="#2"/><use xlink:href="#3" y="2.171"/><use xlink:href="#4" y="4.342"/><use xlink:href="#5" y="6.513"/><use xlink:href="#6" y="8.684"/><use xlink:href="#7" y="10.855"/><use xlink:href="#8" y="15.197"/></svg><svg x="2244"><use xlink:href="#a"/><use xlink:href="#2"/><use xlink:href="#3" y="2.171"/><use xlink:href="#4" y="4.342"/><use xlink:href="#5" y="6.513"/><use xlink:href="#6" y="8.684"/><use xlink:href="#7" y="10.855"/><use xlink:href="#8" y="15.197"/><text x="1.002" y="19.038" class="g">1.</text><text x="4.008" y="19.038" class="i">Copy</text><path class="j" d="M9.018 17.368h13v2.171h-13z"/><text x="9.018" y="19.038" class="k">Syncing 01_ve</text><path class="l" d="M22.044 17.368h57v2.171h-57z"/><text x="22.044" y="19.038" class="g">ry_big_file.bin...</text><text x="80.16" y="19.038" class="g">19%</text><text x="84.168" y="19.038" class="g">|</text><text x="86.172" y="19.038" class="g">317.5MB/s</text><text x="96.192" y="19.038" class="g">|</text><text x="98.196" y="19.038" class="m">634.5MB</text><text x="106.212" y="19.038" class="g">/</text><text x="108.216" y="19.038" class="g">3.4GB</text><text x="114.228" y="19.038" class="g">|</text><text x="116.232" y="19.038" class="m">1</text><text x="118.236" y="19.038" class="g">/</text><text x="120.24" y="19.038" class="g">4</text><text x="122.244" y="19.038" class="g">|</text><text x="124.248" y="19.038" class="g">ETA:</text><text x="129.258" y="19.038" class="n">8s</text></svg><svg x="2376"><use xlink:href="#a"/><use xlink:href="#2"/><use xlink:href="#3" y="2.171"/><use xlink:href="#4" y="4.342"/><use xlink:href="#5" y="6.513"/><use xlink:href="#6" y="8.684"/><use xlink:href="#7" y="10.855"/><use xlink:href="#8" y="15.197"/></svg><svg x="2508"><use xlink:href="#a"/><use xlink:href="#2"/><use xlink:href="#3" y="2.171"/><use xlink:href="#4" y="4.342"/><use xlink:href="#5" y="6.513"/><use xlink:href="#6" y="8.684"/><use xlink:href="#7" y="10.855"/><use xlink:href="#8" y="15.197"/></svg><svg x="2640"><use xlink:href="#a"/><use xlink:href="#2"/><use xlink:href="#3" y="2.171"/><use xlink:href="#4" y="4.342"/><use xlink:href="#5" y="6.513"/><use xlink:href="#6" y="8.684"/><use xlink:href="#7" y="10.855"/><use xlink:href="#8" y="15.197"/><use xlink:href="#10" y="17.368"/></svg><svg x="2772"><use xlink:href="#a"/><use xlink:href="#2"/><use xlink:href="#3" y="2.171"/><use xlink:href="#4" y="4.342"/><use xlink:href="#5" y="6.513"/><use xlink:href="#6" y="8.684"/><use xlink:href="#7" y="10.855"/><use xlink:href="#8" y="15.197"/><use xlink:href="#10" y="17.368"/></svg><svg x="2904"><use xlink:href="#a"/><use xlink:href="#2"/><use xlink:href="#3" y="2.171"/><use xlink:href="#4" y="4.342"/><use xlink:href="#5" y="6.513"/><use xlink:href="#6" y="8.684"/><use xlink:href="#7" y="10.855"/><use xlink:href="#8" y="15.197"/></svg><svg x="3036"><use xlink:href="#a"/><use xlink:href="#2"/><use xlink:href="#3" y="2.171"/><use xlink:href="#4" y="4.342"/><use xlink:href="#5" y="6.513"/><use xlink:href="#6" y="8.684"/><use xlink:href="#7" y="10.855"/><use xlink:href="#8" y="15.197"/><use xlink:href="#11" y="17.368"/></svg><svg x="3168"><use xlink:href="#a"/><use xlink:href="#2"/><use xlink:href="#3" y="2.171"/><use xlink:href="#4" y="4.342"/><use xlink:href="#5" y="6.513"/><use xlink:href="#6" y="8.684"/><use xlink:href="#7" y="10.855"/><use xlink:href="#8" y="15.197"/></svg><svg x="3300"><use xlink:href="#a"/><use xlink:href="#2"/><use xlink:href="#3" y="2.171"/><use xlink:href="#4" y="4.342"/><use xlink:href="#5" y="6.513"/><use xlink:href="#6" y="8.684"/><use xlink:href="#7" y="10.855"/><use xlink:href="#8" y="15.197"/><use xlink:href="#11" y="17.368"/></svg><svg x="3432"><use xlink:href="#a"/><use xlink:href="#2"/><use xlink:href="#3" y="2.171"/><use xlink:href="#4" y="4.342"/><use xlink:href="#5" y="6.513"/><use xlink:href="#6" y="8.684"/><use xlink:href="#7" y="10.855"/><use xlink:href="#8" y="15.197"/></svg><svg x="3564"><use xlink:href="#a"/><use xlink:href="#2"/><use xlink:href="#3" y="2.171"/><use xlink:href="#4" y="4.342"/><use xlink:href="#5" y="6.513"/><use xlink:href="#6" y="8.684"/><use xlink:href="#7" y="10.855"/><use xlink:href="#8" y="15.197"/><use xlink:href="#12" y="17.368"/></svg><svg x="3696"><use xlink:href="#a"/><use xlink:href="#2"/><use xlink:href="#3" y="2.171"/><use xlink:href="#4" y="4.342"/><use xlink:href="#5" y="6.513"/><use xlink:href="#6" y="8.684"/><use xlink:href="#7" y="10.855"/><use xlink:href="#8" y="15.197"/></svg><svg x="3828"><use xlink:href="#a"/><use xlink:href="#2"/><use xlink:href="#3" y="2.171"/><use xlink:href="#4" y="4.342"/><use xlink:href="#5" y="6.513"/><use xlink:href="#6" y="8.684"/><use xlink:href="#7" y="10.855"/><use xlink:href="#8" y="15.197"/><use xlink:href="#12" y="17.368"/></svg><svg x="3960"><use xlink:href="#a"/><use xlink:href="#2"/><use xlink:href="#3" y="2.171"/><use xlink:href="#4" y="4.342"/><use xlink:href="#5" y="6.513"/><use xlink:href="#6" y="8.684"/><use xlink:href="#7" y="10.855"/><use xlink:href="#8" y="15.197"/></svg><svg x="4092"><use xlink:href="#a"/><use xlink:href="#2"/><use xlink:href="#3" y="2.171"/><use xlink:href="#4" y="4.342"/><use xlink:href="#5" y="6.513"/><use xlink:href="#6" y="8.684"/><use xlink:href="#7" y="10.855"/><use xlink:href="#8" y="15.197"/><use xlink:href="#13" y="17.368"/></svg><svg x="4224"><use xlink:href="#a"/><use xlink:href="#2"/><use xlink:href="#3" y="2.171"/><use xlink:href="#4" y="4.342"/><use xlink:href="#5" y="6.513"/><use xlink:href="#6" y="8.684"/><use xlink:href="#7" y="10.855"/><use xlink:href="#8" y="15.197"/><use xlink:href="#13" y="17.368"/></svg><svg x="4356"><use xlink:href="#a"/><use xlink:href="#2"/><use xlink:href="#3" y="2.171"/><use xlink:href="#4" y="4.342"/><use xlink:href="#5" y="6.513"/><use xlink:href="#6" y="8.684"/><use xlink:href="#7" y="10.855"/><use xlink:href="#8" y="15.197"/></svg><svg x="4488"><use xlink:href="#a"/><use xlink:href="#2"/><use xlink:href="#3" y="2.171"/><use xlink:href="#4" y="4.342"/><use xlink:href="#5" y="6.513"/><use xlink:href="#6" y="8.684"/><use xlink:href="#7" y="10.855"/><use xlink:href="#8" y="15.197"/><use xlink:href="#14" y="17.368"/></svg><svg x="4620"><use xlink:href="#a"/><use xlink:href="#2"/><use xlink:href="#3" y="2.171"/><use xlink:href="#4" y="4.342"/><use xlink:href="#5" y="6.513"/><use xlink:href="#6" y="8.684"/><use xlink:href="#7" y="10.855"/><use xlink:href="#8" y="15.197"/></svg><svg x="4752"><use xlink:href="#a"/><use xlink:href="#2"/><use xlink:href="#3" y="2.171"/><use xlink:href="#4" y="4.342"/><use xlink:href="#5" y="6.513"/><use xlink:href="#6" y="8.684"/><use xlink:href="#7" y="10.855"/><use xlink:href="#8" y="15.197"/><use xlink:href="#14" y="17.368"/></svg><svg x="4884"><use xlink:href="#a"/><use xlink:href="#2"/><use xlink:href="#3" y="2.171"/><use xlink:href="#4" y="4.342"/><use xlink:href="#5" y="6.513"/><use xlink:href="#6" y="8.684"/><use xlink:href="#7" y="10.855"/><use xlink:href="#8" y="15.197"/><use xlink:href="#14" y="17.368"/></svg><svg x="5016"><use xlink:href="#a"/><use xlink:href="#2"/><use xlink:href="#3" y="2.171"/><use xlink:href="#4" y="4.342"/><use xlink:href="#5" y="6.513"/><use xlink:href="#6" y="8.684"/><use xlink:href="#7" y="10.855"/><use xlink:href="#8" y="15.197"/></svg><svg x="5148"><use xlink:href="#a"/><use xlink:href="#2"/><use xlink:href="#3" y="2.171"/><use xlink:href="#4" y="4.342"/><use xlink:href="#5" y="6.513"/><use xlink:href="#6" y="8.684"/><use xlink:href="#7" y="10.855"/><use xlink:href="#8" y="15.197"/><use xlink:href="#15" y="17.368"/></svg><svg x="5280"><use xlink:href="#a"/><use xlink:href="#2"/><use xlink:href="#3" y="2.171"/><use xlink:href="#4" y="4.342"/><use xlink:href="#5" y="6.513"/><use xlink:href="#6" y="8.684"/><use xlink:href="#7" y="10.855"/><use xlink:href="#8" y="15.197"/></svg><svg x="5412"><use xlink:href="#a"/><use xlink:href="#2"/><use xlink:href="#3" y="2.171"/><use xlink:href="#4" y="4.342"/><use xlink:href="#5" y="6.513"/><use xlink:href="#6" y="8.684"/><use xlink:href="#7" y="10.855"/><use xlink:href="#8" y="15.197"/><use xlink:href="#15" y="17.368"/></svg><svg x="5544"><use xlink:href="#a"/><use xlink:href="#2"/><use xlink:href="#3" y="2.171"/><use xlink:href="#4" y="4.342"/><use xlink:href="#5" y="6.513"/><use xlink:href="#6" y="8.684"/><use xlink:href="#7" y="10.855"/><use xlink:href="#8" y="15.197"/></svg><svg x="5676"><use xlink:href="#a"/><use xlink:href="#2"/><use xlink:href="#3" y="2.171"/><use xlink:href="#4" y="4.342"/><use xlink:href="#5" y="6.513"/><use xlink:href="#6" y="8.684"/><use xlink:href="#7" y="10.855"/><use xlink:href="#8" y="15.197"/></svg><svg x="5808"><use xlink:href="#a"/><use xlink:href="#2"/><use xlink:href="#3" y="2.171"/><use xlink:href="#4" y="4.342"/><use xlink:href="#5" y="6.513"/><use xlink:href="#6" y="8.684"/><use xlink:href="#7" y="10.855"/><use xlink:href="#8" y="15.197"/><text x="1.002" y="19.038" class="g">1.</text><text x="4.008" y="19.038" class="i">Copy</text><path class="j" d="M9.018 17.368h45v2.171h-45z"/><text x="9.018" y="19.038" class="k">Syncing 02_big_file.bin...</text><path class="l" d="M54.108 17.368h27v2.171h-27z"/><text x="54.108" y="19.038" class="g"></text><text x="82.164" y="19.038" class="g">63%</text><text x="86.172" y="19.038" class="g">|</text><text x="88.176" y="19.038" class="g">315.4MB/s</text><text x="98.196" y="19.038" class="g">|</text><text x="100.2" y="19.038" class="m">2.1GB</text><text x="106.212" y="19.038" class="g">/</text><text x="108.216" y="19.038" class="g">3.4GB</text><text x="114.228" y="19.038" class="g">|</text><text x="116.232" y="19.038" class="m">2</text><text x="118.236" y="19.038" class="g">/</text><text x="120.24" y="19.038" class="g">4</text><text x="122.244" y="19.038" class="g">|</text><text x="124.248" y="19.038" class="g">ETA:</text><text x="129.258" y="19.038" class="n">4s</text></svg><svg x="5940"><use xlink:href="#a"/><use xlink:href="#2"/><use xlink:href="#3" y="2.171"/><use xlink:href="#4" y="4.342"/><use xlink:href="#5" y="6.513"/><use xlink:href="#6" y="8.684"/><use xlink:href="#7" y="10.855"/><use xlink:href="#8" y="15.197"/></svg><svg x="6072"><use xlink:href="#a"/><use xlink:href="#2"/><use xlink:href="#3" y="2.171"/><use xlink:href="#4" y="4.342"/><use xlink:href="#5" y="6.513"/><use xlink:href="#6" y="8.684"/><use xlink:href="#7" y="10.855"/><use xlink:href="#8" y="15.197"/><text x="1.002" y="19.038" class="g">1.</text><text x="4.008" y="19.038" class="i">Copy</text><path class="j" d="M9.018 17.368h52v2.171h-52z"/><text x="9.018" y="19.038" class="k">Syncing 02_big_file.bin...</text><path class="l" d="M61.122 17.368h20v2.171h-20z"/><text x="61.122" y="19.038" class="g"></text><text x="82.164" y="19.038" class="g">72%</text><text x="86.172" y="19.038" class="g">|</text><text x="88.176" y="19.038" class="g">315.4MB/s</text><text x="98.196" y="19.038" class="g">|</text><text x="100.2" y="19.038" class="m">2.4GB</text><text x="106.212" y="19.038" class="g">/</text><text x="108.216" y="19.038" class="g">3.4GB</text><text x="114.228" y="19.038" class="g">|</text><text x="116.232" y="19.038" class="m">2</text><text x="118.236" y="19.038" class="g">/</text><text x="120.24" y="19.038" class="g">4</text><text x="122.244" y="19.038" class="g">|</text><text x="124.248" y="19.038" class="g">ETA:</text><text x="129.258" y="19.038" class="n">3s</text></svg><svg x="6204"><use xlink:href="#a"/><use xlink:href="#2"/><use xlink:href="#3" y="2.171"/><use xlink:href="#4" y="4.342"/><use xlink:href="#5" y="6.513"/><use xlink:href="#6" y="8.684"/><use xlink:href="#7" y="10.855"/><use xlink:href="#8" y="15.197"/></svg><svg x="6336"><use xlink:href="#a"/><use xlink:href="#2"/><use xlink:href="#3" y="2.171"/><use xlink:href="#4" y="4.342"/><use xlink:href="#5" y="6.513"/><use xlink:href="#6" y="8.684"/><use xlink:href="#7" y="10.855"/><use xlink:href="#8" y="15.197"/><use xlink:href="#16" y="17.368"/></svg><svg x="6468"><use xlink:href="#a"/><use xlink:href="#2"/><use xlink:href="#3" y="2.171"/><use xlink:href="#4" y="4.342"/><use xlink:href="#5" y="6.513"/><use xlink:href="#6" y="8.684"/><use xlink:href="#7" y="10.855"/><use xlink:href="#8" y="15.197"/></svg><svg x="6600"><use xlink:href="#a"/><use xlink:href="#2"/><use xlink:href="#3" y="2.171"/><use xlink:href="#4" y="4.342"/><use xlink:href="#5" y="6.513"/><use xlink:href="#6" y="8.684"/><use xlink:href="#7" y="10.855"/><use xlink:href="#8" y="15.197"/><use xlink:href="#16" y="17.368"/></svg><svg x="6732"><use xlink:href="#a"/><use xlink:href="#2"/><use xlink:href="#3" y="2.171"/><use xlink:href="#4" y="4.342"/><use xlink:href="#5" y="6.513"/><use xlink:href="#6" y="8.684"/><use xlink:href="#7" y="10.855"/><use xlink:href="#8" y="15.197"/></svg><svg x="6864"><use xlink:href="#a"/><use xlink:href="#2"/><use xlink:href="#3" y="2.171"/><use xlink:href="#4" y="4.342"/><use xlink:href="#5" y="6.513"/><use xlink:href="#6" y="8.684"/><use xlink:href="#7" y="10.855"/><use xlink:href="#8" y="15.197"/><use xlink:href="#17" y="17.368"/></svg><svg x="6996"><use xlink:href="#a"/><use xlink:href="#2"/><use xlink:href="#3" y="2.171"/><use xlink:href="#4" y="4.342"/><use xlink:href="#5" y="6.513"/><use xlink:href="#6" y="8.684"/><use xlink:href="#7" y="10.855"/><use xlink:href="#8" y="15.197"/><use xlink:href="#17" y="17.368"/></svg><svg x="7128"><use xlink:href="#a"/><use xlink:href="#2"/><use xlink:href="#3" y="2.171"/><use xlink:href="#4" y="4.342"/><use xlink:href="#5" y="6.513"/><use xlink:href="#6" y="8.684"/><use xlink:href="#7" y="10.855"/><use xlink:href="#8" y="15.197"/></svg><svg x="7260"><use xlink:href="#a"/><use xlink:href="#2"/><use xlink:href="#3" y="2.171"/><use xlink:href="#4" y="4.342"/><use xlink:href="#5" y="6.513"/><use xlink:href="#6" y="8.684"/><use xlink:href="#7" y="10.855"/><use xlink:href="#8" y="15.197"/><use xlink:href="#17" y="17.368"/></svg><svg x="7392"><use xlink:href="#a"/><use xlink:href="#2"/><use xlink:href="#3" y="2.171"/><use xlink:href="#4" y="4.342"/><use xlink:href="#5" y="6.513"/><use xlink:href="#6" y="8.684"/><use xlink:href="#7" y="10.855"/><use xlink:href="#8" y="15.197"/></svg><svg x="7524"><use xlink:href="#a"/><use xlink:href="#2"/><use xlink:href="#3" y="2.171"/><use xlink:href="#4" y="4.342"/><use xlink:href="#5" y="6.513"/><use xlink:href="#6" y="8.684"/><use xlink:href="#7" y="10.855"/><use xlink:href="#8" y="15.197"/><use xlink:href="#18" y="17.368"/></svg><svg x="7656"><use xlink:href="#a"/><use xlink:href="#2"/><use xlink:href="#3" y="2.171"/><use xlink:href="#4" y="4.342"/><use xlink:href="#5" y="6.513"/><use xlink:href="#6" y="8.684"/><use xlink:href="#7" y="10.855"/><use xlink:href="#8" y="15.197"/><use xlink:href="#18" y="17.368"/></svg><svg x="7788"><use xlink:href="#a"/><use xlink:href="#2"/><use xlink:href="#3" y="2.171"/><use xlink:href="#4" y="4.342"/><use xlink:href="#5" y="6.513"/><use xlink:href="#6" y="8.684"/><use xlink:href="#7" y="10.855"/><use xlink:href="#8" y="15.197"/></svg><svg x="7920"><use xlink:href="#a"/><use xlink:href="#2"/><use xlink:href="#3" y="2.171"/><use xlink:href="#4" y="4.342"/><use xlink:href="#5" y="6.513"/><use xlink:href="#6" y="8.684"/><use xlink:href="#7" y="10.855"/><use xlink:href="#8" y="15.197"/><use xlink:href="#18" y="17.368"/></svg><svg x="8052"><use xlink:href="#a"/><use xlink:href="#2"/><use xlink:href="#3" y="2.171"/><use xlink:href="#4" y="4.342"/><use xlink:href="#5" y="6.513"/><use xlink:href="#6" y="8.684"/><use xlink:href="#7" y="10.855"/><use xlink:href="#8" y="15.197"/><use xlink:href="#18" y="17.368"/></svg><svg x="8184"><use xlink:href="#a"/><use xlink:href="#2"/><use xlink:href="#3" y="2.171"/><use xlink:href="#4" y="4.342"/><use xlink:href="#5" y="6.513"/><use xlink:href="#6" y="8.684"/><use xlink:href="#7" y="10.855"/><use xlink:href="#8" y="15.197"/></svg><svg x="8316"><use xlink:href="#a"/><use xlink:href="#2"/><use xlink:href="#3" y="2.171"/><use xlink:href="#4" y="4.342"/><use xlink:href="#5" y="6.513"/><use xlink:href="#6" y="8.684"/><use xlink:href="#7" y="10.855"/><use xlink:href="#8" y="15.197"/><use xlink:href="#19" y="17.368"/></svg><svg x="8448"><use xlink:href="#a"/><use xlink:href="#2"/><use xlink:href="#3" y="2.171"/><use xlink:href="#4" y="4.342"/><use xlink:href="#5" y="6.513"/><use xlink:href="#6" y="8.684"/><use xlink:href="#7" y="10.855"/><use xlink:href="#8" y="15.197"/><use xlink:href="#19" y="17.368"/></svg><svg x="8580"><use xlink:href="#a"/><use xlink:href="#2"/><use xlink:href="#3" y="2.171"/><use xlink:href="#4" y="4.342"/><use xlink:href="#5" y="6.513"/><use xlink:href="#6" y="8.684"/><use xlink:href="#7" y="10.855"/><use xlink:href="#8" y="15.197"/></svg><svg x="8712"><use xlink:href="#a"/><use xlink:href="#2"/><use xlink:href="#3" y="2.171"/><use xlink:href="#4" y="4.342"/><use xlink:href="#5" y="6.513"/><use xlink:href="#6" y="8.684"/><use xlink:href="#7" y="10.855"/><use xlink:href="#8" y="15.197"/><use xlink:href="#19" y="17.368"/></svg><svg x="8844"><use xlink:href="#a"/><use xlink:href="#2"/><use xlink:href="#3" y="2.171"/><use xlink:href="#4" y="4.342"/><use xlink:href="#5" y="6.513"/><use xlink:href="#6" y="8.684"/><use xlink:href="#7" y="10.855"/><use xlink:href="#8" y="15.197"/><use xlink:href="#19" y="17.368"/></svg><svg x="8976"><use xlink:href="#a"/><use xlink:href="#2"/><use xlink:href="#3" y="2.171"/><use xlink:href="#4" y="4.342"/><use xlink:href="#5" y="6.513"/><use xlink:href="#6" y="8.684"/><use xlink:href="#7" y="10.855"/><use xlink:href="#8" y="15.197"/></svg><svg x="9108"><use xlink:href="#a"/><use xlink:href="#2"/><use xlink:href="#3" y="2.171"/><use xlink:href="#4" y="4.342"/><use xlink:href="#5" y="6.513"/><use xlink:href="#6" y="8.684"/><use xlink:href="#7" y="10.855"/><use xlink:href="#8" y="15.197"/><use xlink:href="#20" y="17.368"/></svg><svg x="9240"><use xlink:href="#a"/><use xlink:href="#2"/><use xlink:href="#3" y="2.171"/><use xlink:href="#4" y="4.342"/><use xlink:href="#5" y="6.513"/><use xlink:href="#6" y="8.684"/><use xlink:href="#7" y="10.855"/><use xlink:href="#8" y="15.197"/><use xlink:href="#20" y="17.368"/></svg><svg x="9372"><use xlink:href="#a"/><use xlink:href="#2"/><use xlink:href="#3" y="2.171"/><use xlink:href="#4" y="4.342"/><use xlink:href="#5" y="6.513"/><use xlink:href="#6" y="8.684"/><use xlink:href="#7" y="10.855"/><use xlink:href="#8" y="15.197"/><use xlink:href="#20" y="17.368"/></svg><svg x="9504"><use xlink:href="#a"/><use xlink:href="#2"/><use xlink:href="#3" y="2.171"/><use xlink:href="#4" y="4.342"/><use xlink:href="#5" y="6.513"/><use xlink:href="#6" y="8.684"/><use xlink:href="#7" y="10.855"/><use xlink:href="#8" y="15.197"/><use xlink:href="#20" y="17.368"/></svg><svg x="9636"><use xlink:href="#a"/><use xlink:href="#2"/><use xlink:href="#3" y="2.171"/><use xlink:href="#4" y="4.342"/><use xlink:href="#5" y="6.513"/><use xlink:href="#6" y="8.684"/><use xlink:href="#7" y="10.855"/><use xlink:href="#8" y="15.197"/></svg><svg x="9768"><use xlink:href="#a"/><use xlink:href="#2"/><use xlink:href="#3" y="2.171"/><use xlink:href="#4" y="4.342"/><use xlink:href="#5" y="6.513"/><use xlink:href="#6" y="8.684"/><use xlink:href="#7" y="10.855"/><use xlink:href="#8" y="15.197"/></svg><svg x="9900"><use xlink:href="#a"/><use xlink:href="#2"/><use xlink:href="#3" y="2.171"/><use xlink:href="#4" y="4.342"/><use xlink:href="#5" y="6.513"/><use xlink:href="#6" y="8.684"/><use xlink:href="#7" y="10.855"/><use xlink:href="#8" y="15.197"/><use xlink:href="#21" y="17.368"/></svg><svg x="10032"><use xlink:href="#a"/><use xlink:href="#2"/><use xlink:href="#3" y="2.171"/><use xlink:href="#4" y="4.342"/><use xlink:href="#5" y="6.513"/><use xlink:href="#6" y="8.684"/><use xlink:href="#7" y="10.855"/><use xlink:href="#8" y="15.197"/></svg><svg x="10164"><use xlink:href="#a"/><use xlink:href="#2"/><use xlink:href="#3" y="2.171"/><use xlink:href="#4" y="4.342"/><use xlink:href="#5" y="6.513"/><use xlink:href="#6" y="8.684"/><use xlink:href="#7" y="10.855"/><use xlink:href="#8" y="15.197"/><use xlink:href="#21" y="17.368"/></svg><svg x="10296"><use xlink:href="#a"/><use xlink:href="#2"/><use xlink:href="#3" y="2.171"/><use xlink:href="#4" y="4.342"/><use xlink:href="#5" y="6.513"/><use xlink:href="#6" y="8.684"/><use xlink:href="#7" y="10.855"/><use xlink:href="#8" y="15.197"/></svg><svg x="10428"><use xlink:href="#a"/><use xlink:href="#2"/><use xlink:href="#3" y="2.171"/><use xlink:href="#4" y="4.342"/><use xlink:href="#5" y="6.513"/><use xlink:href="#6" y="8.684"/><use xlink:href="#7" y="10.855"/><use xlink:href="#8" y="15.197"/><use xlink:href="#22" y="17.368"/></svg><svg x="10560"><use xlink:href="#a"/><use xlink:href="#2"/><use xlink:href="#3" y="2.171"/><use xlink:href="#4" y="4.342"/><use xlink:href="#5" y="6.513"/><use xlink:href="#6" y="8.684"/><use xlink:href="#7" y="10.855"/><use xlink:href="#8" y="15.197"/><use xlink:href="#22" y="17.368"/><use xlink:href="#1" y="21.71"/></svg><svg x="10692"><use xlink:href="#a"/><use xlink:href="#2"/><use xlink:href="#3" y="2.171"/><use xlink:href="#4" y="4.342"/><use xlink:href="#5" y="6.513"/><use xlink:href="#6" y="8.684"/><use xlink:href="#7" y="10.855"/><use xlink:href="#8" y="15.197"/><use xlink:href="#22" y="17.368"/><use xlink:href="#23" y="21.71"/></svg><svg x="10824"><use xlink:href="#a"/><use xlink:href="#2"/><use xlink:href="#3" y="2.171"/><use xlink:href="#4" y="4.342"/><use xlink:href="#5" y="6.513"/><use xlink:href="#6" y="8.684"/><use xlink:href="#7" y="10.855"/><use xlink:href="#8" y="15.197"/><use xlink:href="#22" y="17.368"/><use xlink:href="#23" y="21.71"/><use xlink:href="#3" y="23.881"/><use xlink:href="#4" y="26.052"/><use xlink:href="#5" y="28.223"/><use xlink:href="#6" y="30.394"/><use xlink:href="#7" y="32.565"/></svg><svg x="10956"><use xlink:href="#a"/><use xlink:href="#2"/><use xlink:href="#3" y="2.171"/><use xlink:href="#4" y="4.342"/><use xlink:href="#5" y="6.513"/><use xlink:href="#6" y="8.684"/><use xlink:href="#7" y="10.855"/><use xlink:href="#8" y="15.197"/><use xlink:href="#22" y="17.368"/><use xlink:href="#23" y="21.71"/><use xlink:href="#3" y="23.881"/><use xlink:href="#4" y="26.052"/><use xlink:href="#5" y="28.223"/><use xlink:href="#6" y="30.394"/><use xlink:href="#7" y="32.565"/></svg><svg x="11088"><use xlink:href="#a"/><use xlink:href="#2"/><use xlink:href="#3" y="2.171"/><use xlink:href="#4" y="4.342"/><use xlink:href="#5" y="6.513"/><use xlink:href="#6" y="8.684"/><use xlink:href="#7" y="10.855"/><use xlink:href="#8" y="15.197"/><use xlink:href="#22" y="17.368"/><use xlink:href="#23" y="21.71"/><use xlink:href="#3" y="23.881"/><use xlink:href="#4" y="26.052"/><use xlink:href="#5" y="28.223"/><use xlink:href="#6" y="30.394"/><use xlink:href="#7" y="32.565"/><use xlink:href="#1" y="36.907"/></svg><svg x="11220"><use xlink:href="#a"/><use xlink:href="#2"/><use xlink:href="#3" y="2.171"/><use xlink:href="#4" y="4.342"/><use xlink:href="#5" y="6.513"/><use xlink:href="#6" y="8.684"/><use xlink:href="#7" y="10.855"/><use xlink:href="#8" y="15.197"/><use xlink:href="#22" y="17.368"/><use xlink:href="#23" y="21.71"/><use xlink:href="#3" y="23.881"/><use xlink:href="#4" y="26.052"/><use xlink:href="#5" y="28.223"/><use xlink:href="#6" y="30.394"/><use xlink:href="#7" y="32.565"/><use xlink:href="#1" y="36.907"/></svg><svg x="11352"><use xlink:href="#a"/><use xlink:href="#2"/><use xlink:href="#3" y="2.171"/><use xlink:href="#4" y="4.342"/><use xlink:href="#5" y="6.513"/><use xlink:href="#6" y="8.684"/><use xlink:href="#7" y="10.855"/><use xlink:href="#8" y="15.197"/><use xlink:href="#22" y="17.368"/><use xlink:href="#23" y="21.71"/><use xlink:href="#3" y="23.881"/><use xlink:href="#4" y="26.052"/><use xlink:href="#5" y="28.223"/><use xlink:href="#6" y="30.394"/><use xlink:href="#7" y="32.565"/><use xlink:href="#1" y="36.907"/></svg></svg></g></g></svg></svg>