<svg xmlns="http://www.w3.org/2000/svg" xmlns:xlink="http://www.w3.org/1999/xlink" width="1360" height="971.82"><rect width="1360" height="971.82" rx="5" ry="5" class="a"/><svg y="0%" x="0%"><circle cx="20" cy="20" r="6" fill="#ff5f58"/><circle cx="40" cy="20" r="6" fill="#ffbd2e"/><circle cx="60" cy="20" r="6" fill="#18c132"/></svg><svg height="911.82" viewBox="0 0 132 91.182" width="1320" x="15" xmlns="http://www.w3.org/2000/svg" xmlns:xlink="http://www.w3.org/1999/xlink" y="50"><style>@keyframes p{0%{transform:translateX(0)}.1%{transform:translateX(-132px)}1.9%{transform:translateX(-264px)}2%{transform:translateX(-924px)}2.1%{transform:translateX(-1188px)}11.3%{transform:translateX(-1452px)}20.6%{transform:translateX(-1716px)}29.8%{transform:translateX(-2244px)}31.8%{transform:translateX(-2640px)}32.3%{transform:translateX(-2904px)}32.9%{transform:translateX(-3300px)}39%{transform:translateX(-3564px)}40.9%{transform:translateX(-3696px)}42.6%{transform:translateX(-4092px)}44.5%{transform:translateX(-4224px)}to{transform:translateX(-4356px)}}.a{fill:#282d35}.f,.g,.h,.i{white-space:pre}.f{fill:#a8cc8c;font-weight:700}.g,.h,.i{fill:#b9c0cb}.h,.i{fill:#71bef2;font-weight:700}.i{fill:#d290e3}.j{fill:#a8cc8c}.k{white-space:pre}.l{fill:#303030}.m,.n{fill:#a8cc8c;white-space:pre}.n{fill:#b9c0cb;font-weight:700}</style><g font-family="Monaco,Consolas,Menlo,'Bitstream Vera Sans Mono','Powerline Symbols',monospace" font-size="1.67"><defs><symbol id="1"><text y="1.67" class="f">barf</text><text x="4.008" y="1.67" class="g">:</text><text x="5.01" y="1.67" class="h">/home/barf</text><text x="15.03" y="1.67" class="g">$</text></symbol><symbol id="2"><text y="1.67" class="f">barf</text><text x="4.008" y="1.67" class="g">:</text><text x="5.01" y="1.67" class="h">/home/barf</text><text x="15.03" y="1.67" class="g">$</text><text x="17.034" y="1.67" class="g">barf</text><text x="22.044" y="1.67" class="g">copy</text><text x="27.054" y="1.67" class="g">~/local/*</text><text x="37.074" y="1.67" class="g">~/remote/</text></symbol><symbol id="3"><text x="1.002" y="1.67" class="g">1.</text><text x="4.008" y="1.67" class="i">Copy</text><path class="j" d="M9.018 0h16v2.171h-16z"/><text x="9.018" y="1.67" class="k">Syncing big...</text><path class="l" d="M25.05 0h54v2.171h-54z"/><text x="25.05" y="1.67" class="g"></text><text x="80.16" y="1.67" class="g">22%</text><text x="84.168" y="1.67" class="g">|</text><text x="86.172" y="1.67" class="g">319.7MB/s</text><text x="96.192" y="1.67" class="g">|</text><text x="98.196" y="1.67" class="m">639.3MB</text><text x="106.212" y="1.67" class="g">/</text><text x="108.216" y="1.67" class="g">2.9GB</text><text x="114.228" y="1.67" class="g">|</text><text x="116.232" y="1.67" class="m">1</text><text x="118.236" y="1.67" class="g">/</text><text x="120.24" y="1.67" class="g">4</text><text x="122.244" y="1.67" class="g">|</text><text x="124.248" y="1.67" class="g">ETA:</text><text x="129.258" y="1.67" class="n">7s</text></symbol><symbol id="4"><text x="1.002" y="1.67" class="g">1.</text><text x="4.008" y="1.67" class="i">Copy</text><path class="j" d="M9.018 0h23v2.171h-23z"/><text x="9.018" y="1.67" class="k">Syncing huge...</text><path class="l" d="M32.064 0h47v2.171h-47z"/><text x="32.064" y="1.67" class="g"></text><text x="80.16" y="1.67" class="g">33%</text><text x="84.168" y="1.67" class="g">|</text><text x="86.172" y="1.67" class="g">311.0MB/s</text><text x="96.192" y="1.67" class="g">|</text><text x="98.196" y="1.67" class="m">953.7MB</text><text x="106.212" y="1.67" class="g">/</text><text x="108.216" y="1.67" class="g">2.9GB</text><text x="114.228" y="1.67" class="g">|</text><text x="116.232" y="1.67" class="m">2</text><text x="118.236" y="1.67" class="g">/</text><text x="120.24" y="1.67" class="g">4</text><text x="122.244" y="1.67" class="g">|</text><text x="124.248" y="1.67" class="g">ETA:</text><text x="129.258" y="1.67" class="n">6s</text></symbol><symbol id="5"><text y="1.67" class="g">^C</text></symbol><symbol id="6"><text y="1.67" class="f">barf</text><text x="4.008" y="1.67" class="g">:</text><text x="5.01" y="1.67" class="h">/home/barf</text><text x="15.03" y="1.67" class="g">$</text><text x="17.034" y="1.67" class="g">cat</text><text x="21.042" y="1.67" class="g">~/.config/barf/journal/active/*.json</text><text x="58.116" y="1.67" class="g">|</text><text x="60.12" y="1.67" class="g">jq</text></symbol><symbol id="7"><text y="1.67" class="n">{</text></symbol><symbol id="8"><text x="2.004" y="1.67" class="h">&quot;operation&quot;</text><text x="13.026" y="1.67" class="n">:</text><text x="15.03" y="1.67" class="n">{</text></symbol><symbol id="9"><text x="4.008" y="1.67" class="h">&quot;id&quot;</text><text x="8.016" y="1.67" class="n">:</text><text x="10.02" y="1.67" class="m">&quot;c00abn9qnsvp637bva7g&quot;</text><text x="32.064" y="1.67" class="n">,</text></symbol><symbol id="10"><text x="4.008" y="1.67" class="h">&quot;index&quot;</text><text x="11.022" y="1.67" class="n">:</text><text x="13.026" y="1.67" class="g">1</text><text x="14.028" y="1.67" class="n">,</text></symbol><symbol id="11"><text x="4.008" y="1.67" class="h">&quot;title&quot;</text><text x="11.022" y="1.67" class="n">:</text><text x="13.026" y="1.67" class="m">&quot;Copy&quot;</text><text x="19.038" y="1.67" class="n">,</text></symbol><symbol id="12"><text x="4.008" y="1.67" class="h">&quot;type&quot;</text><text x="10.02" y="1.67" class="n">:</text><text x="12.024" y="1.67" class="m">&quot;copy&quot;</text><text x="18.036" y="1.67" class="n">,</text></symbol><symbol id="13"><text x="4.008" y="1.67" class="h">&quot;args&quot;</text><text x="10.02" y="1.67" class="n">:</text><text x="12.024" y="1.67" class="n">{</text></symbol><symbol id="14"><text x="6.012" y="1.67" class="h">&quot;from&quot;</text><text x="12.024" y="1.67" class="n">:</text><text x="14.028" y="1.67" class="n">[</text></symbol><symbol id="15"><text x="8.016" y="1.67" class="m">&quot;~/local/big&quot;</text><text x="21.042" y="1.67" class="n">,</text></symbol><symbol id="16"><text x="8.016" y="1.67" class="m">&quot;~/local/huge&quot;</text><text x="22.044" y="1.67" class="n">,</text></symbol><symbol id="17"><text x="8.016" y="1.67" class="m">&quot;~/local/medium&quot;</text><text x="24.048" y="1.67" class="n">,</text></symbol><symbol id="18"><text x="8.016" y="1.67" class="m">&quot;~/local/small&quot;</text></symbol><symbol id="19"><text x="6.012" y="1.67" class="n">],</text></symbol><symbol id="20"><text x="6.012" y="1.67" class="h">&quot;to&quot;</text><text x="10.02" y="1.67" class="n">:</text><text x="12.024" y="1.67" class="m">&quot;~/remote/&quot;</text></symbol><symbol id="21"><text x="4.008" y="1.67" class="n">}</text></symbol><symbol id="22"><text x="2.004" y="1.67" class="n">},</text></symbol><symbol id="23"><text x="2.004" y="1.67" class="h">&quot;status&quot;</text><text x="10.02" y="1.67" class="n">:</text><text x="12.024" y="1.67" class="n">{</text></symbol><symbol id="24"><text x="4.008" y="1.67" class="h">&quot;bytesDiffTotal&quot;</text><text x="20.04" y="1.67" class="n">:</text><text x="22.044" y="1.67" class="g">3100000000</text><text x="32.064" y="1.67" class="n">,</text></symbol><symbol id="25"><text x="4.008" y="1.67" class="h">&quot;bytesTotal&quot;</text><text x="16.032" y="1.67" class="n">:</text><text x="18.036" y="1.67" class="g">3100000000</text><text x="28.056" y="1.67" class="n">,</text></symbol><symbol id="26"><text x="4.008" y="1.67" class="h">&quot;bytesDone&quot;</text><text x="15.03" y="1.67" class="n">:</text><text x="17.034" y="1.67" class="g">1000032768</text><text x="27.054" y="1.67" class="n">,</text></symbol><symbol id="27"><text x="4.008" y="1.67" class="h">&quot;filesDiffTotal&quot;</text><text x="20.04" y="1.67" class="n">:</text><text x="22.044" y="1.67" class="g">4</text><text x="23.046" y="1.67" class="n">,</text></symbol><symbol id="28"><text x="4.008" y="1.67" class="h">&quot;filesTotal&quot;</text><text x="16.032" y="1.67" class="n">:</text><text x="18.036" y="1.67" class="g">4</text><text x="19.038" y="1.67" class="n">,</text></symbol><symbol id="29"><text x="4.008" y="1.67" class="h">&quot;filesDone&quot;</text><text x="15.03" y="1.67" class="n">:</text><text x="17.034" y="1.67" class="g">2</text><text x="18.036" y="1.67" class="n">,</text></symbol><symbol id="30"><text x="4.008" y="1.67" class="h">&quot;progress&quot;</text><text x="14.028" y="1.67" class="n">:</text><text x="16.032" y="1.67" class="g">32.26</text><text x="21.042" y="1.67" class="n">,</text></symbol><symbol id="31"><text x="4.008" y="1.67" class="h">&quot;speed&quot;</text><text x="11.022" y="1.67" class="n">:</text><text x="13.026" y="1.67" class="g">317152296</text><text x="22.044" y="1.67" class="n">,</text></symbol><symbol id="32"><text x="4.008" y="1.67" class="h">&quot;startedTimestamp&quot;</text><text x="22.044" y="1.67" class="n">:</text><text x="24.048" y="1.67" class="g">1610655197</text><text x="34.068" y="1.67" class="n">,</text></symbol><symbol id="33"><text x="4.008" y="1.67" class="h">&quot;finishedTimestamp&quot;</text><text x="23.046" y="1.67" class="n">:</text><text x="25.05" y="1.67" class="g">0</text><text x="26.052" y="1.67" class="n">,</text></symbol><symbol id="34"><text x="4.008" y="1.67" class="h">&quot;secondsLeft&quot;</text><text x="17.034" y="1.67" class="n">:</text><text x="19.038" y="1.67" class="g">6</text><text x="20.04" y="1.67" class="n">,</text></symbol><symbol id="35"><text x="4.008" y="1.67" class="h">&quot;fileName&quot;</text><text x="14.028" y="1.67" class="n">:</text><text x="16.032" y="1.67" class="m">&quot;huge&quot;</text><text x="22.044" y="1.67" class="n">,</text></symbol><symbol id="36"><text x="4.008" y="1.67" class="h">&quot;step&quot;</text><text x="10.02" y="1.67" class="n">:</text><text x="12.024" y="1.67" class="m">&quot;Syncing&quot;</text><text x="21.042" y="1.67" class="n">,</text></symbol><symbol id="37"><text x="4.008" y="1.67" class="h">&quot;finished&quot;</text><text x="14.028" y="1.67" class="n">:</text><text x="16.032" y="1.67" class="g">false</text><text x="21.042" y="1.67" class="n">,</text></symbol><symbol id="38"><text x="4.008" y="1.67" class="h">&quot;exitCode&quot;</text><text x="14.028" y="1.67" class="n">:</text><text x="16.032" y="1.67" class="g">-1</text></symbol><symbol id="39"><text x="2.004" y="1.67" class="n">}</text></symbol><symbol id="40"><text y="1.67" class="n">}</text></symbol><symbol id="a"><path fill="transparent" d="M0 0h132v43H0z"/></symbol></defs><path class="a" d="M0 0h132v91.182H0z"/><g style="animation-duration:10.804042s;animation-iteration-count:infinite;animation-name:p;animation-timing-function:steps(1,end)"><svg width="4488"><svg><use xlink:href="#a"/></svg><svg x="132"><use xlink:href="#a"/><use xlink:href="#1" y="2.171"/></svg><svg x="264"><use xlink:href="#a"/><use xlink:href="#2" y="2.171"/></svg><svg x="396"><use xlink:href="#a"/><use xlink:href="#2" y="2.171"/></svg><svg x="528"><use xlink:href="#a"/><use xlink:href="#2" y="2.171"/></svg><svg x="660"><use xlink:href="#a"/><use xlink:href="#2" y="2.171"/><text x="1.002" y="6.012" class="g">1.</text><text x="4.008" y="6.012" class="i">Copy</text><path class="l" d="M9.018 4.342h84v2.171h-84z"/><text x="9.018" y="6.012" class="g">Preparing...</text><text x="94.188" y="6.012" class="g">0%</text><text x="97.194" y="6.012" class="g">|</text><text x="99.198" y="6.012" class="g">0B/s</text><text x="104.208" y="6.012" class="g">|</text><text x="106.212" y="6.012" class="m">0B</text><text x="109.218" y="6.012" class="g">/</text><text x="111.222" y="6.012" class="g">0B</text><text x="114.228" y="6.012" class="g">|</text><text x="116.232" y="6.012" class="m">0</text><text x="118.236" y="6.012" class="g">/</text><text x="120.24" y="6.012" class="g">0</text><text x="122.244" y="6.012" class="g">|</text><text x="124.248" y="6.012" class="g">ETA:</text><text x="129.258" y="6.012" class="n">0s</text></svg><svg x="792"><use xlink:href="#a"/><use xlink:href="#2" y="2.171"/></svg><svg x="924"><use xlink:href="#a"/><use xlink:href="#2" y="2.171"/><text x="1.002" y="6.012" class="g">1.</text><text x="4.008" y="6.012" class="i">Copy</text><path class="l" d="M9.018 4.342h81v2.171h-81z"/><text x="9.018" y="6.012" class="g">Syncing...</text><text x="91.182" y="6.012" class="g">0%</text><text x="94.188" y="6.012" class="g">|</text><text x="96.192" y="6.012" class="g">0B/s</text><text x="101.202" y="6.012" class="g">|</text><text x="103.206" y="6.012" class="m">0B</text><text x="106.212" y="6.012" class="g">/</text><text x="108.216" y="6.012" class="g">2.9GB</text><text x="114.228" y="6.012" class="g">|</text><text x="116.232" y="6.012" class="m">0</text><text x="118.236" y="6.012" class="g">/</text><text x="120.24" y="6.012" class="g">4</text><text x="122.244" y="6.012" class="g">|</text><text x="124.248" y="6.012" class="g">ETA:</text><text x="129.258" y="6.012" class="n">0s</text></svg><svg x="1056"><use xlink:href="#a"/><use xlink:href="#2" y="2.171"/></svg><svg x="1188"><use xlink:href="#a"/><use xlink:href="#2" y="2.171"/><text x="1.002" y="6.012" class="g">1.</text><text x="4.008" y="6.012" class="i">Copy</text><path class="l" d="M9.018 4.342h81v2.171h-81z"/><text x="9.018" y="6.012" class="g">Syncing big...</text><text x="91.182" y="6.012" class="g">0%</text><text x="94.188" y="6.012" class="g">|</text><text x="96.192" y="6.012" class="g">0B/s</text><text x="101.202" y="6.012" class="g">|</text><text x="103.206" y="6.012" class="m">0B</text><text x="106.212" y="6.012" class="g">/</text><text x="108.216" y="6.012" class="g">2.9GB</text><text x="114.228" y="6.012" class="g">|</text><text x="116.232" y="6.012" class="m">1</text><text x="118.236" y="6.012" class="g">/</text><text x="120.24" y="6.012" class="g">4</text><text x="122.244" y="6.012" class="g">|</text><text x="124.248" y="6.012" class="g">ETA:</text><text x="129.258" y="6.012" class="n">0s</text></svg><svg x="1320"><use xlink:href="#a"/><use xlink:href="#2" y="2.171"/></svg><svg x="1452"><use xlink:href="#a"/><use xlink:href="#2" y="2.171"/><text x="1.002" y="6.012" class="g">1.</text><text x="4.008" y="6.012" class="i">Copy</text><path class="l" d="M9.018 4.342h77v2.171h-77z"/><text x="9.018" y="6.012" class="g">Syncing big...</text><text x="87.174" y="6.012" class="g">0%</text><text x="90.18" y="6.012" class="g">|</text><text x="92.184" y="6.012" class="g">0B/s</text><text x="97.194" y="6.012" class="g">|</text><text x="99.198" y="6.012" class="m">32.0KB</text><text x="106.212" y="6.012" class="g">/</text><text x="108.216" y="6.012" class="g">2.9GB</text><text x="114.228" y="6.012" class="g">|</text><text x="116.232" y="6.012" class="m">1</text><text x="118.236" y="6.012" class="g">/</text><text x="120.24" y="6.012" class="g">4</text><text x="122.244" y="6.012" class="g">|</text><text x="124.248" y="6.012" class="g">ETA:</text><text x="129.258" y="6.012" class="n">0s</text></svg><svg x="1584"><use xlink:href="#a"/><use xlink:href="#2" y="2.171"/></svg><svg x="1716"><use xlink:href="#a"/><use xlink:href="#2" y="2.171"/><text x="1.002" y="6.012" class="g">1.</text><text x="4.008" y="6.012" class="i">Copy</text><path class="j" d="M9.018 4.342h8v2.171h-8z"/><text x="9.018" y="6.012" class="k">Syncing</text><path class="l" d="M17.034 4.342h62v2.171h-62z"/><text x="17.034" y="6.012" class="g">big...</text><text x="80.16" y="6.012" class="g">11%</text><text x="84.168" y="6.012" class="g">|</text><text x="86.172" y="6.012" class="g">319.5MB/s</text><text x="96.192" y="6.012" class="g">|</text><text x="98.196" y="6.012" class="m">319.5MB</text><text x="106.212" y="6.012" class="g">/</text><text x="108.216" y="6.012" class="g">2.9GB</text><text x="114.228" y="6.012" class="g">|</text><text x="116.232" y="6.012" class="m">1</text><text x="118.236" y="6.012" class="g">/</text><text x="120.24" y="6.012" class="g">4</text><text x="122.244" y="6.012" class="g">|</text><text x="124.248" y="6.012" class="g">ETA:</text><text x="129.258" y="6.012" class="n">8s</text></svg><svg x="1848"><use xlink:href="#a"/><use xlink:href="#2" y="2.171"/></svg><svg x="1980"><use xlink:href="#a"/><use xlink:href="#2" y="2.171"/><use xlink:href="#3" y="4.342"/></svg><svg x="2112"><use xlink:href="#a"/><use xlink:href="#2" y="2.171"/></svg><svg x="2244"><use xlink:href="#a"/><use xlink:href="#2" y="2.171"/><use xlink:href="#3" y="4.342"/></svg><svg x="2376"><use xlink:href="#a"/><use xlink:href="#2" y="2.171"/></svg><svg x="2508"><use xlink:href="#a"/><use xlink:href="#2" y="2.171"/></svg><svg x="2640"><use xlink:href="#a"/><use xlink:href="#2" y="2.171"/><text x="1.002" y="6.012" class="g">1.</text><text x="4.008" y="6.012" class="i">Copy</text><path class="j" d="M9.018 4.342h22v2.171h-22z"/><text x="9.018" y="6.012" class="k">Syncing big...</text><path class="l" d="M31.062 4.342h48v2.171h-48z"/><text x="31.062" y="6.012" class="g"></text><text x="80.16" y="6.012" class="g">31%</text><text x="84.168" y="6.012" class="g">|</text><text x="86.172" y="6.012" class="g">319.5MB/s</text><text x="96.192" y="6.012" class="g">|</text><text x="98.196" y="6.012" class="m">906.8MB</text><text x="106.212" y="6.012" class="g">/</text><text x="108.216" y="6.012" class="g">2.9GB</text><text x="114.228" y="6.012" class="g">|</text><text x="116.232" y="6.012" class="m">1</text><text x="118.236" y="6.012" class="g">/</text><text x="120.24" y="6.012" class="g">4</text><text x="122.244" y="6.012" class="g">|</text><text x="124.248" y="6.012" class="g">ETA:</text><text x="129.258" y="6.012" class="n">6s</text></svg><svg x="2772"><use xlink:href="#a"/><use xlink:href="#2" y="2.171"/></svg><svg x="2904"><use xlink:href="#a"/><use xlink:href="#2" y="2.171"/><text x="1.002" y="6.012" class="g">1.</text><text x="4.008" y="6.012" class="i">Copy</text><path class="j" d="M9.018 4.342h23v2.171h-23z"/><text x="9.018" y="6.012" class="k">Syncing big...</text><path class="l" d="M32.064 4.342h47v2.171h-47z"/><text x="32.064" y="6.012" class="g"></text><text x="80.16" y="6.012" class="g">33%</text><text x="84.168" y="6.012" class="g">|</text><text x="86.172" y="6.012" class="g">311.0MB/s</text><text x="96.192" y="6.012" class="g">|</text><text x="98.196" y="6.012" class="m">953.7MB</text><text x="106.212" y="6.012" class="g">/</text><text x="108.216" y="6.012" class="g">2.9GB</text><text x="114.228" y="6.012" class="g">|</text><text x="116.232" y="6.012" class="m">1</text><text x="118.236" y="6.012" class="g">/</text><text x="120.24" y="6.012" class="g">4</text><text x="122.244" y="6.012" class="g">|</text><text x="124.248" y="6.012" class="g">ETA:</text><text x="129.258" y="6.012" class="n">6s</text></svg><svg x="3036"><use xlink:href="#a"/><use xlink:href="#2" y="2.171"/></svg><svg x="3168"><use xlink:href="#a"/><use xlink:href="#2" y="2.171"/></svg><svg x="3300"><use xlink:href="#a"/><use xlink:href="#2" y="2.171"/><use xlink:href="#4" y="4.342"/></svg><svg x="3432"><use xlink:href="#a"/><use xlink:href="#2" y="2.171"/><use xlink:href="#4" y="4.342"/><use xlink:href="#5" y="6.513"/></svg><svg x="3564"><use xlink:href="#a"/><use xlink:href="#2" y="2.171"/><use xlink:href="#4" y="4.342"/><use xlink:href="#5" y="6.513"/><use xlink:href="#1" y="10.855"/></svg><svg x="3696"><use xlink:href="#a"/><use xlink:href="#2" y="2.171"/><use xlink:href="#4" y="4.342"/><use xlink:href="#5" y="6.513"/><use xlink:href="#6" y="10.855"/></svg><svg x="3828"><use xlink:href="#a"/><use xlink:href="#2" y="2.171"/><use xlink:href="#4" y="4.342"/><use xlink:href="#5" y="6.513"/><use xlink:href="#6" y="10.855"/><use xlink:href="#7" y="13.026"/><use xlink:href="#8" y="15.197"/><use xlink:href="#9" y="17.368"/><use xlink:href="#10" y="19.539"/><use xlink:href="#11" y="21.71"/><use xlink:href="#12" y="23.881"/><use xlink:href="#13" y="26.052"/><use xlink:href="#14" y="28.223"/><use xlink:href="#15" y="30.394"/><use xlink:href="#16" y="32.565"/><use xlink:href="#17" y="34.736"/><use xlink:href="#18" y="36.907"/><use xlink:href="#19" y="39.078"/><use xlink:href="#20" y="41.249"/><use xlink:href="#21" y="43.42"/><use xlink:href="#22" y="45.591"/><use xlink:href="#23" y="47.762"/><use xlink:href="#24" y="49.933"/><use xlink:href="#25" y="52.104"/><use xlink:href="#26" y="54.275"/></svg><svg x="3960"><use xlink:href="#a"/><use xlink:href="#2" y="2.171"/><use xlink:href="#4" y="4.342"/><use xlink:href="#5" y="6.513"/><use xlink:href="#6" y="10.855"/><use xlink:href="#7" y="13.026"/><use xlink:href="#8" y="15.197"/><use xlink:href="#9" y="17.368"/><use xlink:href="#10" y="19.539"/><use xlink:href="#11" y="21.71"/><use xlink:href="#12" y="23.881"/><use xlink:href="#13" y="26.052"/><use xlink:href="#14" y="28.223"/><use xlink:href="#15" y="30.394"/><use xlink:href="#16" y="32.565"/><use xlink:href="#17" y="34.736"/><use xlink:href="#18" y="36.907"/><use xlink:href="#19" y="39.078"/><use xlink:href="#20" y="41.249"/><use xlink:href="#21" y="43.42"/><use xlink:href="#22" y="45.591"/><use xlink:href="#23" y="47.762"/><use xlink:href="#24" y="49.933"/><use xlink:href="#25" y="52.104"/><use xlink:href="#26" y="54.275"/><use xlink:href="#27" y="56.446"/><use xlink:href="#28" y="58.617"/><use xlink:href="#29" y="60.788"/><use xlink:href="#30" y="62.959"/><use xlink:href="#31" y="65.13"/><use xlink:href="#32" y="67.301"/><use xlink:href="#33" y="69.472"/><use xlink:href="#34" y="71.643"/><use xlink:href="#35" y="73.814"/><use xlink:href="#36" y="75.985"/><use xlink:href="#37" y="78.156"/><use xlink:href="#38" y="80.327"/><use xlink:href="#39" y="82.498"/><use xlink:href="#40" y="84.669"/></svg><svg x="4092"><use xlink:href="#a"/><use xlink:href="#2" y="2.171"/><use xlink:href="#4" y="4.342"/><use xlink:href="#5" y="6.513"/><use xlink:href="#6" y="10.855"/><use xlink:href="#7" y="13.026"/><use xlink:href="#8" y="15.197"/><use xlink:href="#9" y="17.368"/><use xlink:href="#10" y="19.539"/><use xlink:href="#11" y="21.71"/><use xlink:href="#12" y="23.881"/><use xlink:href="#13" y="26.052"/><use xlink:href="#14" y="28.223"/><use xlink:href="#15" y="30.394"/><use xlink:href="#16" y="32.565"/><use xlink:href="#17" y="34.736"/><use xlink:href="#18" y="36.907"/><use xlink:href="#19" y="39.078"/><use xlink:href="#20" y="41.249"/><use xlink:href="#21" y="43.42"/><use xlink:href="#22" y="45.591"/><use xlink:href="#23" y="47.762"/><use xlink:href="#24" y="49.933"/><use xlink:href="#25" y="52.104"/><use xlink:href="#26" y="54.275"/><use xlink:href="#27" y="56.446"/><use xlink:href="#28" y="58.617"/><use xlink:href="#29" y="60.788"/><use xlink:href="#30" y="62.959"/><use xlink:href="#31" y="65.13"/><use xlink:href="#32" y="67.301"/><use xlink:href="#33" y="69.472"/><use xlink:href="#34" y="71.643"/><use xlink:href="#35" y="73.814"/><use xlink:href="#36" y="75.985"/><use xlink:href="#37" y="78.156"/><use xlink:href="#38" y="80.327"/><use xlink:href="#39" y="82.498"/><use xlink:href="#40" y="84.669"/><use xlink:href="#1" y="89.011"/></svg><svg x="4224"><use xlink:href="#a"/><use xlink:href="#2" y="2.171"/><use xlink:href="#4" y="4.342"/><use xlink:href="#5" y="6.513"/><use xlink:href="#6" y="10.855"/><use xlink:href="#7" y="13.026"/><use xlink:href="#8" y="15.197"/><use xlink:href="#9" y="17.368"/><use xlink:href="#10" y="19.539"/><use xlink:href="#11" y="21.71"/><use xlink:href="#12" y="23.881"/><use xlink:href="#13" y="26.052"/><use xlink:href="#14" y="28.223"/><use xlink:href="#15" y="30.394"/><use xlink:href="#16" y="32.565"/><use xlink:href="#17" y="34.736"/><use xlink:href="#18" y="36.907"/><use xlink:href="#19" y="39.078"/><use xlink:href="#20" y="41.249"/><use xlink:href="#21" y="43.42"/><use xlink:href="#22" y="45.591"/><use xlink:href="#23" y="47.762"/><use xlink:href="#24" y="49.933"/><use xlink:href="#25" y="52.104"/><use xlink:href="#26" y="54.275"/><use xlink:href="#27" y="56.446"/><use xlink:href="#28" y="58.617"/><use xlink:href="#29" y="60.788"/><use xlink:href="#30" y="62.959"/><use xlink:href="#31" y="65.13"/><use xlink:href="#32" y="67.301"/><use xlink:href="#33" y="69.472"/><use xlink:href="#34" y="71.643"/><use xlink:href="#35" y="73.814"/><use xlink:href="#36" y="75.985"/><use xlink:href="#37" y="78.156"/><use xlink:href="#38" y="80.327"/><use xlink:href="#39" y="82.498"/><use xlink:href="#40" y="84.669"/><use xlink:href="#1" y="89.011"/></svg><svg x="4356"><use xlink:href="#a"/><use xlink:href="#2"/><use xlink:href="#4" y="2.171"/><use xlink:href="#5" y="4.342"/><use xlink:href="#6" y="8.684"/><use xlink:href="#7" y="10.855"/><use xlink:href="#8" y="13.026"/><use xlink:href="#9" y="15.197"/><use xlink:href="#10" y="17.368"/><use xlink:href="#11" y="19.539"/><use xlink:href="#12" y="21.71"/><use xlink:href="#13" y="23.881"/><use xlink:href="#14" y="26.052"/><use xlink:href="#15" y="28.223"/><use xlink:href="#16" y="30.394"/><use xlink:href="#17" y="32.565"/><use xlink:href="#18" y="34.736"/><use xlink:href="#19" y="36.907"/><use xlink:href="#20" y="39.078"/><use xlink:href="#21" y="41.249"/><use xlink:href="#22" y="43.42"/><use xlink:href="#23" y="45.591"/><use xlink:href="#24" y="47.762"/><use xlink:href="#25" y="49.933"/><use xlink:href="#26" y="52.104"/><use xlink:href="#27" y="54.275"/><use xlink:href="#28" y="56.446"/><use xlink:href="#29" y="58.617"/><use xlink:href="#30" y="60.788"/><use xlink:href="#31" y="62.959"/><use xlink:href="#32" y="65.13"/><use xlink:href="#33" y="67.301"/><use xlink:href="#34" y="69.472"/><use xlink:href="#35" y="71.643"/><use xlink:href="#36" y="73.814"/><use xlink:href="#37" y="75.985"/><use xlink:href="#38" y="78.156"/><use xlink:href="#39" y="80.327"/><use xlink:href="#40" y="82.498"/><use xlink:href="#1" y="86.84"/></svg></svg></g></g></svg></svg>